<?xml version="1.0" encoding="UTF-8"?>
<svg xmlns="http://www.w3.org/2000/svg" xmlns:xlink="http://www.w3.org/1999/xlink" width="400.000mm" height="295.121mm" viewBox="700.600098 106.019424 400.000000 295.121094">
    <rect transform="translate(900.600098,253.579956)" style="stroke:#ff0000;stroke-width:0.05mm;fill:none" x="-200" y="-147.560532" width="400" height="295.121063"/>
    <rect transform="translate(900.600098,253.579956)" style="stroke:#0000ff;stroke-width:0.05mm;fill:none" x="-170.733215" y="-118.294357" width="341.466431" height="236.588715"/>
    <path transform="matrix(1.092606,0,0,1.092606,15345.796875,3967.282227)" style="stroke:#0000ff;stroke-width:0.05mm;fill:none" d="M-13377.193359,-3290.678223L-13064.667969,-3290.678223"/>
    <path transform="matrix(1.092606,0,0,1.092606,15345.796875,3967.282227)" style="stroke:#0000ff;stroke-width:0.05mm;fill:none" d="M-13377.193359,-3507.214844L-13377.193359,-3290.678223"/>
    <path transform="matrix(1.092606,0,0,1.092606,15358.775391,3967.282227)" style="stroke:#0000ff;stroke-width:0.05mm;fill:none" d="M-13377.193359,-3507.214844L-13377.193359,-3290.678223"/>
    <path transform="matrix(1.092606,0,0,1.092606,15371.748047,3967.282227)" style="stroke:#0000ff;stroke-width:0.05mm;fill:none" d="M-13377.193359,-3507.214844L-13377.193359,-3290.678223"/>
    <path transform="matrix(1.092606,0,0,1.092606,15384.724609,3967.282227)" style="stroke:#0000ff;stroke-width:0.05mm;fill:none" d="M-13377.193359,-3507.214844L-13377.193359,-3290.678223"/>
    <path transform="matrix(1.092606,0,0,1.092606,15397.695313,3967.282227)" style="stroke:#0000ff;stroke-width:0.05mm;fill:none" d="M-13377.193359,-3507.214844L-13377.193359,-3290.678223"/>
    <path transform="matrix(1.092606,0,0,1.092606,15410.675781,3967.282227)" style="stroke:#0000ff;stroke-width:0.05mm;fill:none" d="M-13377.193359,-3507.214844L-13377.193359,-3290.678223"/>
    <path transform="matrix(1.092606,0,0,1.092606,15423.646484,3967.282227)" style="stroke:#0000ff;stroke-width:0.05mm;fill:none" d="M-13377.193359,-3507.214844L-13377.193359,-3290.678223"/>
    <path transform="matrix(1.092606,0,0,1.092606,15436.625,3967.282227)" style="stroke:#0000ff;stroke-width:0.05mm;fill:none" d="M-13377.193359,-3507.214844L-13377.193359,-3290.678223"/>
    <path transform="matrix(1.092606,0,0,1.092606,15449.595703,3967.282227)" style="stroke:#0000ff;stroke-width:0.05mm;fill:none" d="M-13377.193359,-3507.214844L-13377.193359,-3290.678223"/>
    <path transform="matrix(1.092606,0,0,1.092606,15462.576172,3967.282227)" style="stroke:#0000ff;stroke-width:0.05mm;fill:none" d="M-13377.193359,-3507.214844L-13377.193359,-3290.678223"/>
    <path transform="matrix(1.092606,0,0,1.092606,15475.546875,3967.282227)" style="stroke:#0000ff;stroke-width:0.05mm;fill:none" d="M-13377.193359,-3507.214844L-13377.193359,-3290.678223"/>
    <path transform="matrix(1.092606,0,0,1.092606,15488.525391,3967.282227)" style="stroke:#0000ff;stroke-width:0.05mm;fill:none" d="M-13377.193359,-3507.214844L-13377.193359,-3290.678223"/>
    <path transform="matrix(1.092606,0,0,1.092606,15501.496094,3967.282227)" style="stroke:#0000ff;stroke-width:0.05mm;fill:none" d="M-13377.193359,-3507.214844L-13377.193359,-3290.678223"/>
    <path transform="matrix(1.092606,0,0,1.092606,15514.466797,3967.282227)" style="stroke:#0000ff;stroke-width:0.05mm;fill:none" d="M-13377.193359,-3507.214844L-13377.193359,-3290.678223"/>
    <path transform="matrix(1.092606,0,0,1.092606,15527.445313,3967.282227)" style="stroke:#0000ff;stroke-width:0.05mm;fill:none" d="M-13377.193359,-3507.214844L-13377.193359,-3290.678223"/>
    <path transform="matrix(1.092606,0,0,1.092606,15540.416016,3967.282227)" style="stroke:#0000ff;stroke-width:0.05mm;fill:none" d="M-13377.193359,-3507.214844L-13377.193359,-3290.678223"/>
    <path transform="matrix(1.092606,0,0,1.092606,15553.396484,3967.282227)" style="stroke:#0000ff;stroke-width:0.05mm;fill:none" d="M-13377.193359,-3507.214844L-13377.193359,-3290.678223"/>
    <path transform="matrix(1.092606,0,0,1.092606,15566.367188,3967.282227)" style="stroke:#0000ff;stroke-width:0.05mm;fill:none" d="M-13377.193359,-3507.214844L-13377.193359,-3290.678223"/>
    <path transform="matrix(1.092606,0,0,1.092606,15579.345703,3967.282227)" style="stroke:#0000ff;stroke-width:0.05mm;fill:none" d="M-13377.193359,-3507.214844L-13377.193359,-3290.678223"/>
    <path transform="matrix(1.092606,0,0,1.092606,15592.316406,3967.282227)" style="stroke:#0000ff;stroke-width:0.05mm;fill:none" d="M-13377.193359,-3507.214844L-13377.193359,-3290.678223"/>
    <path transform="matrix(1.092606,0,0,1.092606,15605.296875,3967.282227)" style="stroke:#0000ff;stroke-width:0.05mm;fill:none" d="M-13377.193359,-3507.214844L-13377.193359,-3290.678223"/>
    <path transform="matrix(1.092606,0,0,1.092606,15618.267578,3967.282227)" style="stroke:#0000ff;stroke-width:0.05mm;fill:none" d="M-13377.193359,-3507.214844L-13377.193359,-3290.678223"/>
    <path transform="matrix(1.092606,0,0,1.092606,15631.240234,3967.282227)" style="stroke:#0000ff;stroke-width:0.05mm;fill:none" d="M-13377.193359,-3507.214844L-13377.193359,-3290.678223"/>
    <path transform="matrix(1.092606,0,0,1.092606,15644.216797,3967.282227)" style="stroke:#0000ff;stroke-width:0.05mm;fill:none" d="M-13377.193359,-3507.214844L-13377.193359,-3290.678223"/>
    <path transform="matrix(1.092606,0,0,1.092606,15657.1875,3967.282227)" style="stroke:#0000ff;stroke-width:0.05mm;fill:none" d="M-13377.193359,-3507.214844L-13377.193359,-3290.678223"/>
    <path transform="matrix(1.092606,0,0,1.092606,15670.167969,3967.282227)" style="stroke:#0000ff;stroke-width:0.05mm;fill:none" d="M-13377.193359,-3507.214844L-13377.193359,-3290.678223"/>
    <path transform="matrix(1.092606,0,0,1.092606,15683.138672,3967.282227)" style="stroke:#0000ff;stroke-width:0.05mm;fill:none" d="M-13377.193359,-3507.214844L-13377.193359,-3290.678223"/>
    <path transform="matrix(1.092606,0,0,1.092606,15345.796875,3954.311035)" style="stroke:#0000ff;stroke-width:0.05mm;fill:none" d="M-13377.193359,-3290.678223L-13064.667969,-3290.678223"/>
    <path transform="matrix(1.092606,0,0,1.092606,15345.796875,3941.33252)" style="stroke:#0000ff;stroke-width:0.05mm;fill:none" d="M-13377.193359,-3290.678223L-13064.667969,-3290.678223"/>
    <path transform="matrix(1.092606,0,0,1.092606,15345.796875,3928.36084)" style="stroke:#0000ff;stroke-width:0.05mm;fill:none" d="M-13377.193359,-3290.678223L-13064.667969,-3290.678223"/>
    <path transform="matrix(1.092606,0,0,1.092606,15345.796875,3915.382324)" style="stroke:#0000ff;stroke-width:0.05mm;fill:none" d="M-13377.193359,-3290.678223L-13064.667969,-3290.678223"/>
    <path transform="matrix(1.092606,0,0,1.092606,15345.796875,3902.411133)" style="stroke:#0000ff;stroke-width:0.05mm;fill:none" d="M-13377.193359,-3290.678223L-13064.667969,-3290.678223"/>
    <path transform="matrix(1.092606,0,0,1.092606,15345.796875,3889.432617)" style="stroke:#0000ff;stroke-width:0.05mm;fill:none" d="M-13377.193359,-3290.678223L-13064.667969,-3290.678223"/>
    <path transform="matrix(1.092606,0,0,1.092606,15345.796875,3876.460938)" style="stroke:#0000ff;stroke-width:0.05mm;fill:none" d="M-13377.193359,-3290.678223L-13064.667969,-3290.678223"/>
    <path transform="matrix(1.092606,0,0,1.092606,15345.796875,3863.489258)" style="stroke:#0000ff;stroke-width:0.05mm;fill:none" d="M-13377.193359,-3290.678223L-13064.667969,-3290.678223"/>
    <path transform="matrix(1.092606,0,0,1.092606,15345.796875,3850.510742)" style="stroke:#0000ff;stroke-width:0.05mm;fill:none" d="M-13377.193359,-3290.678223L-13064.667969,-3290.678223"/>
    <path transform="matrix(1.092606,0,0,1.092606,15345.796875,3837.539551)" style="stroke:#0000ff;stroke-width:0.05mm;fill:none" d="M-13377.193359,-3290.678223L-13064.667969,-3290.678223"/>
    <path transform="matrix(1.092606,0,0,1.092606,15345.796875,3824.561035)" style="stroke:#0000ff;stroke-width:0.05mm;fill:none" d="M-13377.193359,-3290.678223L-13064.667969,-3290.678223"/>
    <path transform="matrix(1.092606,0,0,1.092606,15345.796875,3811.589355)" style="stroke:#0000ff;stroke-width:0.05mm;fill:none" d="M-13377.193359,-3290.678223L-13064.667969,-3290.678223"/>
    <path transform="matrix(1.092606,0,0,1.092606,15345.796875,3798.61084)" style="stroke:#0000ff;stroke-width:0.05mm;fill:none" d="M-13377.193359,-3290.678223L-13064.667969,-3290.678223"/>
    <path transform="matrix(1.092606,0,0,1.092606,15345.796875,3785.63916)" style="stroke:#0000ff;stroke-width:0.05mm;fill:none" d="M-13377.193359,-3290.678223L-13064.667969,-3290.678223"/>
    <path transform="matrix(1.092606,0,0,1.092606,15345.796875,3772.660645)" style="stroke:#0000ff;stroke-width:0.05mm;fill:none" d="M-13377.193359,-3290.678223L-13064.667969,-3290.678223"/>
    <path transform="matrix(1.092606,0,0,1.092606,15345.796875,3759.689453)" style="stroke:#0000ff;stroke-width:0.05mm;fill:none" d="M-13377.193359,-3290.678223L-13064.667969,-3290.678223"/>
    <path transform="matrix(1.092606,0,0,1.092606,15345.796875,3746.710938)" style="stroke:#0000ff;stroke-width:0.05mm;fill:none" d="M-13377.193359,-3290.678223L-13064.667969,-3290.678223"/>
    <path transform="matrix(1.092606,0,0,1.092606,15345.796875,3733.739746)" style="stroke:#0000ff;stroke-width:0.05mm;fill:none" d="M-13377.193359,-3290.678223L-13064.667969,-3290.678223"/>
</svg>
