<?xml version="1.0" encoding="UTF-8" standalone="no"?>
<!-- Created with Inkscape (http://www.inkscape.org/) -->

<svg
   width="2135.189mm"
   height="638.43896mm"
   viewBox="0 0 2135.189 638.43896"
   version="1.1"
   id="svg8340"
   inkscape:version="1.2.1 (9c6d41e410, 2022-07-14)"
   sodipodi:docname="pochoires_5.svg"
   xmlns:inkscape="http://www.inkscape.org/namespaces/inkscape"
   xmlns:sodipodi="http://sodipodi.sourceforge.net/DTD/sodipodi-0.dtd"
   xmlns="http://www.w3.org/2000/svg"
   xmlns:svg="http://www.w3.org/2000/svg">
  <sodipodi:namedview
     id="namedview8342"
     pagecolor="#ffffff"
     bordercolor="#000000"
     borderopacity="0.25"
     inkscape:showpageshadow="2"
     inkscape:pageopacity="0.0"
     inkscape:pagecheckerboard="0"
     inkscape:deskcolor="#d1d1d1"
     inkscape:document-units="mm"
     showgrid="false"
     inkscape:zoom="0.71624579"
     inkscape:cx="3849.2373"
     inkscape:cy="1366.1511"
     inkscape:window-width="1920"
     inkscape:window-height="991"
     inkscape:window-x="-9"
     inkscape:window-y="-9"
     inkscape:window-maximized="1"
     inkscape:current-layer="layer1" />
  <defs
     id="defs8337" />
  <g
     inkscape:label="Calque 1"
     inkscape:groupmode="layer"
     id="layer1"
     transform="translate(956.0348,212.83138)">
    <rect
       style="fill:none;stroke:#000000;stroke-width:0.05mm"
       x="-955.94031"
       y="-212.73689"
       width="310"
       height="310"
       id="rect172" />
    <rect
       style="fill:none;stroke:#000000;stroke-width:0.05mm"
       x="-640.94031"
       y="-212.73689"
       width="310"
       height="310"
       id="rect174" />
    <rect
       style="fill:none;stroke:#000000;stroke-width:0.05mm"
       x="-325.94031"
       y="-212.73689"
       width="310"
       height="310"
       id="rect176" />
    <rect
       style="fill:none;stroke:#000000;stroke-width:0.05mm"
       x="-10.9403"
       y="-212.73689"
       width="310"
       height="310"
       id="rect178" />
    <rect
       style="fill:none;stroke:#000000;stroke-width:0.05mm"
       x="304.05969"
       y="-212.73689"
       width="310"
       height="310"
       id="rect180" />
    <rect
       style="fill:none;stroke:#000000;stroke-width:0.05mm"
       x="619.05969"
       y="-212.73689"
       width="310"
       height="310"
       id="rect182" />
    <rect
       style="fill:none;stroke:#000000;stroke-width:0.05mm"
       x="-944.44031"
       y="115.5131"
       width="310"
       height="310"
       id="rect198" />
    <rect
       style="fill:none;stroke:#000000;stroke-width:0.05mm"
       x="-629.44031"
       y="115.5131"
       width="310"
       height="310"
       id="rect200" />
    <path
       style="fill:none;stroke:#000000;stroke-width:0.33184mm"
       d="m 176.80035,21.123803 c 1.80289,0.772635 3.20763,1.475039 4.65916,1.943258 18.75398,6.20447 37.50789,12.408992 56.30852,18.51979 5.19767,1.685778 6.34504,-0.772635 5.01051,-5.384998 -3.62906,-12.479223 -7.00055,-25.052071 -10.98083,-37.4141804 -2.55212,-7.8902009 -6.01712,-15.4760586 -9.2949,-23.6940706 2.99698,-1.334552 5.6659,-2.388136 8.21801,-3.699267 16.4595,-8.311657 32.96573,-16.506254 49.26118,-25.122274 5.38502,-2.832987 5.3148,-4.588975 0.0265,-7.656095 -10.58276,-6.15766 -21.25903,-12.151412 -32.16951,-17.676924 -8.07757,-4.097282 -16.59994,-7.328304 -25.40325,-11.168059 1.31117,-3.277811 2.62233,-6.063988 3.55885,-8.967232 5.64253,-17.349111 11.21485,-34.698231 16.74044,-52.070761 1.40481,-4.42509 0.49179,-6.9303 -4.96352,-5.45526 -8.05415,2.17742 -16.29558,3.69927 -24.18579,6.34493 -12.4558,4.21438 -24.70081,9.13114 -37.34396,13.86057 -0.58536,-1.33453 -1.17066,-2.73932 -1.82631,-4.07387 -8.77994,-17.72373 -17.34904,-35.56454 -26.4802,-53.12437 -3.04369,-5.82988 -4.753,-5.80645 -7.86685,-0.0702 -8.12423,15.00782 -15.78036,30.29658 -23.45992,45.53854 -1.96675,3.88659 -3.37149,8.03071 -5.12752,12.24506 -3.53542,-1.54527 -6.29812,-3.02028 -9.22481,-3.98022 -17.70025,-5.71281 -35.423997,-11.35536 -53.14781,-16.92768 -4.144144,-1.31114 -5.431881,0.49165 -4.261217,4.51871 3.58234,12.29191 6.860118,24.70087 10.793411,36.87571 2.739335,8.45211 6.391826,16.599896 9.810171,25.356404 -2.973547,1.334552 -5.642532,2.388136 -8.194577,3.675879 -16.459571,8.311657 -32.965732,16.506247 -49.2611755,25.122274 -5.2913799,2.809566 -5.1976684,4.635778 0,7.656088 10.5828265,6.134219 21.2591645,12.151418 32.1695835,17.676924 8.07757,4.097282 16.600005,7.328311 25.333092,11.144624 -0.936651,2.434946 -1.779457,4.354836 -2.434972,6.344977 -6.040607,18.42609194 -12.034425,36.875651 -18.098328,55.278375 -1.615461,4.940174 0.21105,6.064008 4.776233,4.869944 8.054209,-2.107168 16.318871,-3.652432 24.18579,-6.298148 12.643151,-4.23777 25.05209,-9.201332 37.812249,-13.930815 0.56214,1.334579 1.12381,2.76273 1.80295,4.144145 8.87352,17.887615 17.74711,35.798672 26.71421,53.662893 2.27111,4.495297 4.86994,4.518692 7.42192,0.04712 4.30814,-7.609279 9.06088,-14.984425 12.90072,-22.827837 5.6424,-11.472401 10.67634,-23.225778 16.15508,-35.306959 z"
       id="path1140" />
    <path
       style="fill:none;stroke:#000000;stroke-width:0.334218mm"
       d="m -171.95408,82.307117 c -1.55635,-4.669039 -3.20701,-9.314462 -4.66903,-14.030672 -6.06031,-19.642908 -12.12059,-39.262253 -18.01583,-58.952332 -1.20263,-4.0559159 -2.90047,-5.2349768 -7.1922,-3.8672766 -11.76688,3.7493712 -23.67526,7.0742926 -35.56005,10.4935026 -2.59391,0.754611 -5.28213,1.20265 -9.55029,2.145874 1.34411,-5.282129 2.28736,-9.5030949 3.48999,-13.6769497 2.92404,-10.1633621 5.68302,-20.3739293 9.05507,-30.3722413 1.69783,-5.0699 0.0943,-7.050676 -4.5747,-8.441966 -21.0342,-6.319688 -42.02124,-12.828035 -63.03185,-19.3128 -3.01836,-0.943237 -5.96597,-2.169436 -8.93718,-3.25416 0,-0.636686 0,-1.273371 0,-1.91005 6.76773,-2.14588 13.53547,-4.362467 20.32677,-6.437593 17.23767,-5.329307 34.47533,-10.705751 51.78374,-15.822816 4.85766,-1.438441 6.01314,-3.631466 4.40963,-8.536302 -3.79653,-11.719735 -7.05069,-23.628105 -10.46993,-35.465735 -0.68386,-2.35809 -1.08473,-4.78693 -1.95723,-8.72495 7.85246,2.14587 14.36078,3.86728 20.84555,5.70659 8.11184,2.31094 16.27084,4.50396 24.24119,7.21578 4.36247,1.48559 5.91883,0 7.12143,-3.9616 6.86207,-22.66129 13.91277,-45.27541 20.93986,-67.88952 0.51877,-1.69783 1.27338,-3.32491 1.93365,-4.99916 0.58956,0 1.17904,0 1.76857,0 1.46203,4.29173 3.01835,8.55988 4.36247,12.87519 6.13103,19.80799 12.30924,39.61597 18.1809,59.51829 1.36771,4.69261 3.15984,5.75373 7.92319,4.1974 11.55466,-3.77295 23.29797,-6.9328 34.99411,-10.28129 2.59392,-0.75459 5.282156,-1.20263 9.503129,-2.14587 -1.320535,5.25855 -2.240169,9.50312 -3.442826,13.65337 -2.924043,10.16337 -5.706583,20.350338 -9.055083,30.372239 -1.67425,4.999173 -0.16504,7.050703 4.5511,8.465555 21.034198,6.319688 42.021223,12.828028 63.031838,19.312787 3.041932,0.943236 5.989541,2.169449 8.960766,3.254167 0,0.636685 0.0234,1.273377 0.04746,1.910056 -6.767713,2.14586 -13.511872,4.338878 -20.303195,6.437593 -17.237654,5.3293 -34.475309,10.682162 -51.783749,15.799214 -4.8105,1.414851 -6.08389,3.584294 -4.48037,8.512726 3.77293,11.719742 7.02711,23.6280895 10.422792,35.4657368 0.683823,2.3580752 1.108307,4.8105002 2.004385,8.7485102 -7.852457,-2.169436 -14.384367,-3.890832 -20.869117,-5.75375 -8.11186,-2.310937 -16.27087,-4.5039617 -24.24121,-7.2157597 -4.38605,-1.4855857 -5.91881,0.047459 -7.12144,4.0087444 -6.90921,22.8499433 -14.00708,45.6526883 -21.05778,68.4554863 -0.44806,1.414872 -1.06113,2.782532 -1.60349,4.197411 -0.66029,0.07072 -1.32054,0.141441 -1.95725,0.212228 z"
       id="path1142" />
    <path
       style="fill:none;stroke:#000000;stroke-width:0.198019mm"
       d="m -742.02873,372.59453 c 0.0978,0 0.20958,-0.0281 0.30736,-0.0419 -0.74048,-4.83409 -1.08975,-9.75199 -2.31925,-14.46035 -1.22949,-4.68039 -2.90604,-9.36079 -5.19733,-13.5941 -2.05379,-3.80021 -5.08557,-4.31714 -8.49458,-2.75236 -3.70241,1.71847 -5.07159,4.10757 -3.89801,8.36884 2.79426,10.17113 8.99756,18.3304 16.06703,25.90288 0.51693,0.54489 1.87215,1.03389 2.31925,0.75444 0.65665,-0.4331 0.90813,-1.55081 1.17359,-2.43101 0.16765,-0.53093 0.0281,-1.15963 0.0281,-1.74641 z"
       id="path1152" />
    <path
       style="fill:none;stroke:#000000;stroke-width:0.198019mm"
       d="m -775.99306,360.25785 c -0.37722,-1.70451 -0.93606,-4.76423 -1.71848,-7.76807 -0.68458,-2.65455 -2.76633,-3.93992 -5.28116,-4.55464 -7.72615,-1.92805 -12.89554,1.84422 -13.21688,10.03141 -0.18163,4.387 0.11176,8.82989 0.61474,13.20291 1.00594,8.70415 3.11561,17.15682 6.73419,25.16239 0.47501,1.0618 1.62067,1.83023 2.44498,2.7244 0.92211,-0.92212 1.85819,-1.83023 2.73838,-2.79425 0.25148,-0.27945 0.40517,-0.67063 0.54489,-1.04787 4.12153,-10.79983 6.35695,-22.00487 7.13934,-34.97027 z"
       id="path1154" />
    <path
       style="fill:none;stroke:#000000;stroke-width:0.198019mm"
       d="m -742.30815,173.92206 c -0.32134,-1.24345 -0.74048,-2.89207 -1.15961,-4.54069 -1.50891,0.93608 -3.35312,1.57876 -4.47084,2.85016 -5.96575,6.81802 -11.09325,14.20885 -14.01325,22.913 -1.52287,4.52672 -0.23751,7.78204 3.66049,9.57037 3.60461,1.66258 7.15334,0.41914 9.30491,-3.64653 4.40096,-8.31294 5.365,-17.50608 6.69226,-27.14631 z"
       id="path1156" />
    <path
       style="fill:none;stroke:#000000;stroke-width:0.198019mm"
       d="m -890.62791,230.31039 c -0.16766,0.43311 -0.34928,0.86623 -0.51694,1.31331 3.66049,3.01782 7.0695,6.44079 11.05133,8.94166 5.19734,3.24136 10.66013,6.23122 16.37442,8.41075 4.52671,1.73244 7.72614,-0.30737 8.96959,-4.16346 1.24345,-3.89801 -0.20958,-7.08348 -4.35906,-9.10931 -8.80194,-4.30318 -18.27451,-5.67237 -27.92871,-6.10549 -1.17359,-0.0559 -2.37513,0.46106 -3.57666,0.72651 z"
       id="path1158" />
    <path
       style="fill:none;stroke:#000000;stroke-width:0.198019mm"
       d="m -835.1477,332.76224 c -0.67064,-1.91408 -0.95006,-3.39503 -1.6626,-4.61055 -3.57667,-6.03563 -9.66817,-7.41878 -15.18684,-2.94796 -3.53476,2.86413 -6.87391,6.24519 -9.38875,10.01745 -4.93188,7.37687 -9.27697,15.14493 -13.69192,22.85712 -0.57282,1.00594 -0.65665,3.01781 -0.0281,3.77226 0.55886,0.65665 2.59867,0.6287 3.70241,0.18162 3.35313,-1.34126 6.65036,-2.86414 9.80788,-4.61055 8.5365,-4.70833 16.54207,-10.18509 22.88506,-17.68772 1.67656,-1.98394 2.45896,-4.72232 3.59063,-6.97171 z"
       id="path1160" />
    <path
       style="fill:none;stroke:#000000;stroke-width:0.198019mm"
       d="m -890.92131,316.9327 c 1.7045,0.27941 2.54278,0.5868 3.35312,0.51694 5.05763,-0.46105 10.21305,-0.53093 15.11699,-1.63464 4.98777,-1.13169 9.91965,-2.96192 14.54417,-5.15543 3.78623,-1.78834 4.69438,-5.68634 3.0737,-9.24904 -1.43904,-3.15753 -5.14146,-4.66642 -8.98357,-3.43695 -8.55046,2.71045 -15.74571,7.75409 -22.4799,13.48234 -1.62067,1.38317 -2.79426,3.28327 -4.62451,5.49073 z"
       id="path1162" />
    <path
       style="fill:none;stroke:#000000;stroke-width:0.198019mm"
       d="m -810.62801,198.51162 c -0.3353,-1.52288 -0.41915,-3.14355 -1.03388,-4.54069 -1.38315,-3.12958 -2.71044,-6.35696 -4.63848,-9.15123 -3.38106,-4.90394 -7.16729,-9.54242 -10.89765,-14.19488 -0.50297,-0.64268 -1.69053,-1.11771 -2.47293,-1.01991 -0.47501,0.0699 -0.8243,1.38317 -1.11771,2.17953 -0.16764,0.44709 -0.18162,0.978 -0.13972,1.45302 0.88019,9.91965 2.48689,19.67164 7.15333,28.64125 1.57876,3.04576 4.55466,4.1914 8.01955,3.35312 3.36709,-0.81034 4.88997,-2.90603 5.12748,-6.73418 z"
       id="path1164" />
    <path
       style="fill:none;stroke:#000000;stroke-width:0.198019mm"
       d="m -711.09618,296.59043 c -3.82815,0.67063 -5.96577,2.30528 -6.90184,5.72825 -0.93608,3.45092 0.15371,6.23122 3.33916,7.94969 9.02549,4.87601 18.93117,6.21724 28.96257,6.83198 1.10373,0.0699 2.26335,-0.8243 3.39504,-1.2714 -0.53093,-0.99197 -0.79638,-2.33321 -1.62069,-2.93398 -5.50471,-4.06567 -10.98148,-8.21515 -16.77957,-11.84769 -3.15751,-1.98394 -6.91581,-3.00385 -10.40864,-4.45686 z"
       id="path1166" />
    <path
       style="fill:none;stroke:#000000;stroke-width:0.198019mm"
       d="m -796.61475,185.09913 c 0.27944,2.20748 0.36324,4.47083 0.86622,6.63639 1.08976,4.77819 4.79218,7.69822 9.38874,7.65629 4.93189,-0.0419 8.2431,-2.64058 9.47258,-7.58644 0.3912,-1.6067 0.78239,-3.32518 0.6287,-4.93188 -0.71254,-7.09743 -1.25743,-14.23679 -2.59867,-21.22246 -0.99197,-5.14146 -3.00384,-10.11526 -4.7782,-15.08905 -0.40517,-1.13168 -1.73244,-1.92805 -2.64058,-2.86413 -0.86622,0.95005 -2.05379,1.76039 -2.55676,2.86413 -4.93187,10.95353 -7.08348,22.53577 -7.7541,34.52318 z"
       id="path1168" />
    <path
       style="fill:none;stroke:#000000;stroke-width:0.198019mm"
       d="m -852.29055,272.65753 c -0.62871,37.17775 29.01849,67.53747 67.29995,66.85286 36.66082,-0.65665 63.77919,-29.84278 64.79909,-64.21227 1.13168,-38.15574 -29.36776,-67.67719 -65.21822,-68.15221 -37.38732,-0.489 -67.17422,29.98249 -66.89479,65.51162 z"
       id="path1170" />
    <path
       style="fill:none;stroke:#000000;stroke-width:0.198019mm"
       d="m -875.04986,283.15001 c 1.95599,0 3.93991,0.16765 5.86796,-0.0281 4.75026,-0.50297 8.20117,-3.71638 8.64826,-7.8519 0.65665,-6.06355 -1.28537,-9.45858 -6.60844,-11.16309 -1.64862,-0.53092 -3.45093,-0.97799 -5.15543,-0.90815 -4.77819,0.22356 -9.64023,0.23754 -14.27871,1.24345 -7.61439,1.64862 -15.10302,3.9539 -22.59166,6.17532 -1.13168,0.33533 -1.95599,1.73246 -2.93398,2.6406 1.03387,0.95004 1.91407,2.24939 3.12958,2.76633 10.81381,4.66642 22.18648,6.81801 33.90844,7.12538 z"
       id="path1172" />
    <path
       style="fill:none;stroke:#000000;stroke-width:0.198019mm"
       d="m -835.32933,214.13157 c -0.58679,-1.63465 -0.74048,-3.67447 -1.83024,-4.83409 -3.98183,-4.27523 -7.82396,-8.88577 -12.54626,-12.19698 -6.69228,-4.70834 -14.06915,-8.4806 -21.26439,-12.44846 -1.08977,-0.60077 -2.79427,-0.0838 -4.20537,-0.0838 0.0838,1.28535 -0.12575,2.68249 0.29338,3.84211 3.08766,8.59237 8.01955,16.16484 13.53823,23.34612 3.32518,4.33111 6.65036,8.78796 11.8477,11.23295 6.23122,2.93398 13.83163,-1.83025 14.16694,-8.85783 z"
       id="path1174" />
    <path
       style="fill:none;stroke:#000000;stroke-width:0.198019mm"
       d="m -726.68818,322.67492 c -6.21724,0.0699 -12.71392,6.39888 -9.263,13.97135 0.82431,1.81627 2.12366,3.64652 3.67447,4.88997 6.34298,5.04366 12.68598,10.11525 19.37825,14.65595 3.75829,2.55675 8.14529,4.1914 12.35065,6.02163 0.89417,0.39121 2.62662,0.25149 3.18547,-0.36325 0.51694,-0.55883 0.22356,-2.19351 -0.1537,-3.18546 -4.35904,-11.52635 -11.14911,-21.5438 -19.504,-30.49943 -2.7244,-2.90605 -5.84001,-5.64442 -9.66817,-5.49072 z"
       id="path1176" />
    <path
       style="fill:none;stroke:#000000;stroke-width:0.198019mm"
       d="m -698.99699,283.47136 c 12.85364,-0.65666 23.96086,-2.71045 34.55114,-7.1673 1.43903,-0.60077 2.58471,-1.88613 3.87007,-2.86412 -1.27141,-1.10375 -2.36118,-2.65457 -3.84212,-3.24137 -11.84771,-4.80613 -24.21235,-7.06948 -36.98216,-6.97169 -1.80229,0.0139 -3.66049,0.65665 -5.39293,1.29933 -3.92595,1.45303 -5.28116,4.07964 -5.19735,9.48655 0.0699,4.16347 1.8023,7.0695 5.44882,8.13133 2.86412,0.8243 5.90987,1.07579 7.54452,1.34124 z"
       id="path1178" />
    <path
       style="fill:none;stroke:#000000;stroke-width:0.198019mm"
       d="m -829.8945,370.98783 c 0,0.97798 -0.15366,1.98392 0.0419,2.93398 0.22352,1.14566 0.7265,2.23544 1.10373,3.33916 1.17359,-0.61475 2.73838,-0.92211 3.43695,-1.88615 3.84213,-5.16938 7.83792,-10.29686 11.05133,-15.85747 1.98393,-3.45092 2.93398,-7.58643 3.84212,-11.52635 0.48899,-2.10968 -0.55886,-4.19141 -2.6825,-5.44882 -4.26126,-2.5428 -8.0475,-1.73245 -10.3388,2.76632 -4.0936,8.03352 -5.93781,16.70972 -6.46872,25.67933 z"
       id="path1180" />
    <path
       style="fill:none;stroke:#000000;stroke-width:0.198019mm"
       d="m -736.77548,214.85809 c 0,2.87809 2.0957,6.3849 5.42088,8.11734 3.14356,1.63465 6.32902,1.45302 9.19314,-0.58679 2.30528,-1.63465 4.7363,-3.31121 6.45476,-5.49074 4.37305,-5.51868 8.62032,-11.1631 12.43449,-17.07298 2.36116,-3.6605 3.93992,-7.85189 5.67236,-11.88962 0.39121,-0.9221 0.36325,-2.83618 -0.18162,-3.18546 -0.8802,-0.57283 -2.47293,-0.55886 -3.53475,-0.16764 -2.47293,0.89416 -4.86202,2.03981 -7.19523,3.28326 -8.8718,4.69437 -17.19872,10.19908 -24.19838,17.47814 -2.33321,2.41704 -4.17743,5.21131 -4.05168,9.52846 z"
       id="path1182" />
    <path
       style="fill:none;stroke:#000000;stroke-width:0.198019mm"
       d="m -688.18317,228.95517 c -0.0139,-0.0838 -0.0281,-0.18162 -0.0419,-0.26546 -3.08768,0.48899 -6.27314,0.65665 -9.263,1.52286 -5.97973,1.74642 -11.9455,3.67446 -17.7436,5.9518 -3.01782,1.18756 -3.98184,4.35906 -3.0737,7.43276 1.467,4.94585 5.21131,6.70625 10.46455,4.79217 8.62031,-3.14356 15.88541,-8.49458 22.7593,-14.39049 1.08976,-0.93608 1.56479,-2.57072 2.33321,-3.88403 -1.42507,-0.3912 -2.83617,-0.79637 -4.26126,-1.14565 -0.36325,-0.0978 -0.7824,0 -1.17358,0 z"
       id="path1184" />
    <path
       style="fill:none;stroke:#000000;stroke-width:0.210519mm"
       d="m 786.39843,-131.37004 c 4.22588,-3.62615 8.13632,-7.04761 12.12206,-10.37246 12.87656,-10.72288 26.33268,-20.61403 41.33774,-28.2184 6.42275,-3.25081 13.06055,-5.97958 20.22548,-7.04117 2.48437,-0.36933 5.06182,-0.45498 7.56502,-0.23159 5.7348,0.51406 9.34093,3.88783 10.66686,9.52241 1.49406,6.30737 0.67769,12.5334 -0.69505,18.71344 -2.73042,12.3209 -7.69033,23.8261 -13.43248,34.99546 -14.68055,28.546661 -33.28624,54.429395 -53.87645,78.949297 -19.77306,23.540659 -41.18037,45.482121 -65.17075,64.782549 -13.34263,10.734373 -27.26919,20.590228 -43.09073,27.451542 -5.87139,2.551737 -11.94711,4.495491 -18.41268,4.678729 -4.58787,0.131372 -9.09162,-0.684254 -11.61381,-4.911767 -1.50492,-2.517492 -2.33795,-5.6087 -2.74591,-8.547051 -0.87122,-6.258332 0.45325,-12.400751 2.05205,-18.437242 3.97044,-14.949498 10.63445,-28.7689796 18.24202,-42.145379 3.97081,-6.989605 8.32284,-13.74195 12.51368,-20.60156 0.29469,-0.471651 0.65419,-0.907061 1.18748,-1.646861 0.3487,0.933971 0.61184,1.564693 0.83418,2.213484 0.75869,2.263171 1.15521,4.735484 2.31082,6.757862 2.21351,3.86064 1.60735,7.296889 -0.0641,11.188725 -2.57454,5.997532 -4.36074,12.3444759 -4.41594,18.931897 -0.0326,3.1172536 0.34622,6.393383 1.27144,9.362567 1.8114,5.776934 6.20386,8.688726 12.13901,9.325227 5.31993,0.567854 10.36176,-0.739274 15.25962,-2.664892 13.74444,-5.389045 25.52781,-13.9220041 36.6232,-23.3848788 28.23582,-24.0561572 51.55878,-52.1257002 68.65049,-85.1679782 3.86742,-7.479908 7.05047,-15.25776 8.97781,-23.48664 1.18582,-5.02507 1.90864,-10.105 0.91992,-15.27163 -1.50263,-7.83062 -6.94261,-12.37405 -14.90543,-12.45362 -5.62979,-0.057 -10.88014,1.58617 -15.90821,3.87815 -4.08335,1.85728 -7.95463,4.15674 -11.98387,6.13628 -0.93264,0.4618 -2.1741,0.70304 -3.16319,0.52378 -4.32584,-0.78071 -8.61521,-1.77251 -13.43539,-2.78914 z"
       id="path1186" />
    <path
       style="fill:none;stroke:#000000;stroke-width:0.21052mm"
       d="m 716.20728,-29.436343 c -8.69815,-22.903078 -6.17568,-47.137008 12.2565,-68.166855 18.15883,-20.730102 41.50105,-27.299752 68.24828,-20.643262 12.68689,3.15317 23.28162,10.09212 32.05855,19.785582 1.17022,1.284893 1.27761,2.260764 0.53357,3.80869 -9.77292,20.151179 -22.61365,38.217184 -37.29125,55.033636 -13.25937,15.213603 -27.7537,29.105996 -44.36102,40.6852424 -3.68464,2.5741858 -3.66058,2.6285089 -7.40189,0.013121 -10.14818,-7.1042266 -17.64074,-16.3918534 -24.05629,-30.5101534 z"
       id="path1188" />
    <path
       style="fill:none;stroke:#000000;stroke-width:0.21052mm"
       d="m 844.83522,-64.281188 c 7.87411,39.82175 -25.84207,78.976332 -66.53088,77.373791 11.46568,-12.40475121 23.41518,-24.63394 34.54069,-37.586602 11.15263,-12.964654 21.46772,-26.646779 31.99018,-39.787205 z"
       id="path1190" />
    <path
       style="fill:none;stroke:#000000;stroke-width:0.21853mm"
       d="m -575.60937,270.25263 c 0.47797,-48.81501 35.18502,-90.42954 83.33702,-99.44937 2.42072,-0.44712 4.85684,-0.72469 7.29296,-1.12556 1.94273,-0.32378 3.5,0.13876 4.28636,2.08153 0.81717,2.03524 -0.26215,3.36121 -1.88106,4.34803 -8.54187,5.18061 -15.72689,11.81054 -21.6476,19.84362 -32.31719,43.78854 -7.52422,107.32819 45.87006,117.59692 31.02205,5.96696 61.30399,-7.16958 78.21809,-33.93614 0.92513,-1.44933 1.83482,-2.86781 3.82379,-2.75995 2.0815,0.12326 3.26872,1.89654 3.00661,4.30181 -4.57931,41.44496 -34.01323,76.02864 -73.79299,86.69828 -57.14098,15.32595 -114.15862,-19.88986 -126.07712,-78.01766 -1.31057,-6.42954 -1.63436,-13.05948 -2.4207,-19.58151 z"
       id="path1196" />
    <path
       style="fill:none;stroke:#000000;stroke-width:0.143787mm"
       d="m 389.00709,-155.95271 c -1.22756,1.68409 -2.23188,2.62756 -2.6884,3.78409 -1.20729,3.04347 -2.08988,6.21885 -3.25657,9.28262 -2.57679,6.7565 -7.2739,11.47391 -14.03048,14.05073 -3.14487,1.19708 -6.41159,2.0797 -9.50578,3.37824 -1.05505,0.4464 -2.42465,1.72466 -2.42465,2.62755 0,0.89277 1.37966,2.17104 2.43483,2.61738 2.86083,1.21741 5.89418,2.0087 8.80577,3.09417 7.2232,2.65801 12.26525,7.55802 14.90292,14.83192 1.00435,2.76956 1.98843,5.549269 2.89126,8.349281 0.50728,1.572478 0.89274,3.205835 2.98262,3.175381 2.12034,-0.03048 2.40434,-1.775361 2.91159,-3.286931 0.88262,-2.637734 1.71448,-5.285534 2.66813,-7.892781 2.67829,-7.31451 7.64927,-12.40728 14.97393,-15.10581 3.00295,-1.10581 6.09712,-1.9377 9.04929,-3.16523 1.00432,-0.41595 2.38404,-1.70433 2.31304,-2.4551 -0.10152,-1.00435 -1.28842,-2.28258 -2.32313,-2.73913 -2.44492,-1.0855 -5.08266,-1.75509 -7.63921,-2.60725 -8.44055,-2.78986 -14.03046,-8.43044 -16.84053,-16.85075 -0.8522,-2.55652 -1.58263,-5.15362 -2.57683,-7.65942 -0.40579,-1.02468 -1.36954,-1.81596 -2.6478,-3.42899 z"
       id="path2156" />
    <path
       style="fill:none;stroke:#000000;stroke-width:0.143787mm"
       d="m 544.75211,-120.95266 c -1.33914,-1.16665 -2.08985,-2.19131 -3.10435,-2.63771 -1.90724,-0.84201 -3.97676,-1.32896 -5.96518,-2.00869 -6.1377,-2.1 -10.31743,-6.18843 -12.42758,-12.3464 -0.71017,-2.06958 -1.21742,-4.22028 -2.13043,-6.18843 -0.41589,-0.89274 -1.6029,-1.95794 -2.45504,-1.95794 -0.86229,0 -2.08985,1.00432 -2.53622,1.88694 -0.83189,1.62317 -1.20723,3.47969 -1.76521,5.24493 -2.14058,6.84783 -6.54352,11.44348 -13.44205,13.58408 -1.76521,0.54783 -3.6116,0.9638 -5.23475,1.80582 -0.9638,0.4971 -2.18122,1.71448 -2.17104,2.58692 0.0201,0.89277 1.23766,2.0797 2.22176,2.57685 1.6333,0.82171 3.4797,1.21739 5.24491,1.76521 6.68552,2.08982 11.0681,6.50292 13.23911,13.14781 0.59858,1.83624 0.97392,3.784088 1.83627,5.48839 0.47674,0.943527 1.7246,1.968178 2.6884,2.039151 0.77101,0.06096 1.96809,-1.115956 2.39419,-2.01882 0.89277,-1.886939 1.37972,-3.956511 2.05945,-5.955061 2.01885,-5.94494 5.87391,-10.13479 11.85943,-12.22461 2.14061,-0.75077 4.35216,-1.31884 6.43194,-2.21161 1.03478,-0.44637 1.83621,-1.4203 3.24639,-2.5565 z"
       id="path2158" />
    <path
       style="fill:none;stroke:#000000;stroke-width:0.143787mm"
       d="m 455.15213,-96.087401 c -0.40585,0 -0.80144,0 -1.20729,0 -0.76089,1.136229 -1.77533,2.181155 -2.23188,3.41884 -1.81594,4.889863 -3.30729,9.901455 -5.19423,14.760835 -3.7333,9.627541 -10.48989,16.414523 -20.0971,20.198581 -4.84934,1.907299 -9.8406,3.459445 -14.77101,5.163776 -1.52172,0.527524 -3.22608,0.862316 -3.1449,3.013074 0.0811,1.947819 1.6029,2.302856 3.08402,2.810106 4.94059,1.663783 9.93188,3.236261 14.78117,5.143502 9.50581,3.743482 16.28261,10.418828 20.03624,19.944942 1.9783,5.00147 3.45942,10.205822 5.38699,15.2275655 0.43622,1.1463522 1.6333,2.5464014 2.71883,2.7898607 1.76521,0.3956717 2.42464,-1.2884133 2.91156,-2.830466 1.26814,-4.0173372 2.58695,-8.0144872 3.9667,-11.9913052 3.98694,-11.524632 11.4739,-19.691331 23.08987,-23.830427 4.36228,-1.552204 8.74492,-3.023197 13.14784,-4.463794 1.52172,-0.49707 3.05362,-0.994198 3.07395,-2.840589 0.0305,-2.008697 -1.6333,-2.505767 -3.21593,-3.013017 -3.69278,-1.166655 -7.37538,-2.363735 -11.04784,-3.591327 -12.40725,-4.159398 -20.91886,-12.275341 -25.09859,-24.784047 -1.32893,-3.986941 -2.56668,-8.014487 -4.0174,-11.971032 -0.42606,-1.166655 -1.43041,-2.130427 -2.171,-3.185532 z"
       id="path2160" />
    <path
       style="fill:none;stroke:#000000;stroke-width:0.414274mm"
       d="m -660.9635,-197.7044 c -5.10831,0.35093 -7.82303,0.14601 -10.30432,0.79064 -11.47195,3.07291 -23.03152,5.82433 -34.24092,9.68764 -44.31164,15.27784 -83.13543,39.42371 -115.56645,73.49167 -3.70726,3.86339 -7.06425,4.62417 -12.23106,2.95593 -5.89645,-1.93157 -12.26009,-3.36585 -18.41927,-3.30711 -27.99411,0.26299 -53.18571,9.54137 -75.9546,25.521413 -3.76567,2.634193 -6.74311,6.468213 -11.06334,10.682706 5.60461,2.692683 9.86651,4.390295 13.77807,6.64418 12.2893,7.170422 24.46194,14.575133 36.66362,21.892235 4.52462,2.72172 4.93338,5.76559 1.54718,10.068191 -3.1234,3.951 -5.19593,8.780257 -8.14424,12.906974 -3.29858,4.59505 -1.83911,7.726696 1.83894,11.268019 13.92411,13.5510238 27.64376,27.306886 41.42183,41.033712 14.62472,14.546012 14.71219,14.69261 31.64287,2.195064 4.23277,-3.102277 7.21021,-3.482833 10.01248,1.258565 8.11503,13.755863 16.23007,27.482439 24.31598,41.23855 1.63456,2.80958 3.15244,5.707267 4.84559,8.838996 2.10174,-1.404997 3.70725,-1.96094 4.40786,-3.073239 7.26855,-11.385247 15.85068,-22.214302 21.19258,-34.47764 9.83731,-22.506999 15.6463,-46.0383558 6.97662,-70.769622 -0.72982,-2.078168 1.08008,-6.087823 2.94831,-7.873044 34.70802,-32.69217 59.11146,-71.91129 73.41497,-117.30585 4.3204,-13.75611 7.06425,-28.0095 10.94659,-43.69685 z"
       id="path2162" />
    <path
       style="fill:none;stroke:#000000;stroke-width:0.660024mm"
       d="m -905.31219,-3.0413272 c -10.69651,24.6205862 -22.13746,50.4068582 -33.06651,76.4264262 -3.30184,7.833589 1.86026,10.864585 8.23179,8.253521 25.9508,-10.678212 51.57637,-22.149102 78.783,-33.946739 -18.64935,-17.532751 -35.90352,-33.759838 -53.94828,-50.6864168 z"
       id="path2164" />
    <path
       style="fill:none;stroke:#000000;stroke-width:0.263469mm"
       d="m -434.01043,-17.036521 c 5.96715,-0.966615 10.93048,-1.970538 15.94957,-2.416643 1.05956,-0.09327 2.91855,1.617278 3.34605,2.8442 5.76265,16.73022902 11.33939,33.516419 16.97188,50.30245 1.61728,4.81458 3.30891,9.592063 4.79598,14.462499 1.58008,5.167891 -0.83651,9.945217 -5.59534,11.525135 -5.03763,1.673239 -10.09387,-0.68776 -11.87855,-5.911296 -5.744,-16.897637 -11.33939,-33.832423 -16.97189,-50.7673147 -2.11924,-6.3946034 -4.21977,-12.7893122 -6.59921,-20.0391883 z"
       id="path2166" />
    <path
       style="fill:none;stroke:#000000;stroke-width:0.263469mm"
       d="m -490.52741,-60.75085 c -13.92328,-1.338369 -33.25611,-3.160047 -52.58888,-5.074781 -1.82179,-0.186009 -3.62491,-0.724909 -5.40944,-1.208322 -11.06064,-2.974301 -13.01247,-6.394551 -10.67018,-17.697002 3.0114,-14.480994 5.03763,-29.222135 8.8856,-43.480075 8.08633,-29.89146 40.11547,-50.0979 70.93639,-46.99365 28.81329,2.90005 56.2881,25.37433 60.91683,59.16945 1.52427,11.13483 4.05247,22.139769 6.2831,33.163049 1.56153,7.714478 0.13015,11.766894 -7.34267,14.053436 -8.34654,2.565345 -17.02774,4.572926 -25.69034,5.465243 -13.19837,1.375519 -26.50819,1.579919 -45.32046,2.583841 z"
       id="path2168" />
    <path
       style="fill:none;stroke:#000000;stroke-width:0.263469mm"
       d="m -567.25777,60.294634 c -6.32036,0.03688 -10.65163,-5.892853 -8.58825,-12.231601 4.85178,-14.964565 9.87092,-29.854463 14.8528,-44.7626983 2.13774,-6.4319106 4.49863,-12.7894703 6.45046,-19.2771307 0.98522,-3.252999 2.50954,-4.089513 5.76265,-3.234504 3.10445,0.817861 6.3761,1.152519 9.59201,1.431533 4.08967,0.334605 3.77361,2.565187 2.78839,5.446589 -4.12676,12.26890815 -8.19783,24.556259 -12.2874,36.843821 -3.1602,9.499006 -6.37611,18.979464 -9.49906,28.497071 -1.46857,4.424329 -4.36847,6.970915 -9.07155,7.324069 z"
       id="path2170" />
    <path
       style="fill:none;stroke:#000000;stroke-width:0.263469mm"
       d="m -409.683,-111.85245 c 1.97044,10.35396 3.47616,18.979407 5.27929,27.549105 2.37949,11.246491 -0.39046,18.403257 -11.15343,22.195261 -9.49917,3.346162 -19.61158,5.781248 -29.63126,6.63631 -30.82086,2.621148 -61.71613,2.695288 -92.46265,-1.450028 -6.65491,-0.892159 -13.36568,-2.6212 -19.57443,-5.167786 -9.66641,-3.95957 -12.51056,-10.763236 -10.37272,-20.987308 1.71018,-8.142036 3.2159,-16.340084 4.74018,-24.519114 0.20445,-1.09671 0.0369,-2.26773 0.0369,-4.18246 -5.66975,1.41267 -10.61443,2.47223 -15.46626,3.86646 -13.40283,3.84781 -26.5454,8.383793 -37.42008,17.566583 -13.40283,11.320789 -13.66308,26.619644 -0.70642,38.293692 8.42095,7.584376 18.60782,12.045855 29.1851,15.596521 22.38143,7.510079 45.50642,10.837376 68.98451,12.622062 40.61738,3.067254 80.82581,1.171173 120.45803,-8.699746 14.27643,-3.550666 28.14402,-8.365299 39.98532,-17.529805 15.65216,-12.138754 15.76366,-28.850487 0.29772,-41.267992 -9.44337,-7.584219 -20.5597,-11.785495 -31.9549,-15.280205 -6.24595,-1.91473 -12.65926,-3.30896 -20.26218,-5.24203 z"
       id="path2172" />
    <path
       style="fill:none;stroke:#000000;stroke-width:0.263469mm"
       d="m -475.33423,20.866919 c 0,9.573568 0.0559,19.146978 -0.0211,28.738883 -0.0559,6.617761 -3.51336,10.614375 -8.99715,10.670178 -5.48379,0.05586 -9.12735,-3.978118 -9.1459,-10.521582 -0.0559,-19.778986 0.0558,-39.539319 -0.0927,-59.318148 -0.0211,-3.86646 1.37562,-5.297993 5.14918,-5.037633 2.9185,0.204452 5.87425,0.16704 8.81125,0.02108 3.19735,-0.148597 4.38702,1.226975 4.34987,4.387022 -0.11171,10.35396298 -0.0369,20.689799 -0.0369,31.043762 z"
       id="path2174" />
    <rect
       style="fill:none;stroke:#000000;stroke-width:0.05mm"
       x="1019.0597"
       y="-119.02956"
       width="160"
       height="121.08533"
       id="rect2236" />
    <path
       style="fill:#ff0000;fill-rule:evenodd;stroke:none"
       d="m 1081.2824,-19.8452 c 0.8298,-0.1344 1.5197,-0.274 2.2177,-0.336 0.1472,-0.013 0.4058,0.2248 0.4654,0.3955 0.801,2.3261 1.5766,4.6601 2.3596,6.9941 0.2248,0.6694 0.4602,1.3338 0.667,2.011 0.2197,0.7185 -0.1165,1.3828 -0.7781,1.6025 -0.7004,0.2326 -1.4036,-0.096 -1.6516,-0.822 -0.7986,-2.3495 -1.5767,-4.7041 -2.3599,-7.0588 -0.2947,-0.8892 -0.5866,-1.7782 -0.9175,-2.7863 z"
       id="path4514" />
    <path
       style="fill:#ff0000;fill-rule:evenodd;stroke:none"
       d="m 1073.4242,-25.9233 c -1.9358,-0.1862 -4.624,-0.4393 -7.312,-0.7057 -0.2534,-0.026 -0.5042,-0.1007 -0.7522,-0.168 -1.5378,-0.4135 -1.8093,-0.8891 -1.4836,-2.4607 0.4187,-2.0134 0.7004,-4.0629 1.2355,-6.0455 1.1243,-4.1561 5.5777,-6.9657 9.8631,-6.534 4.0063,0.4032 7.8266,3.528 8.4702,8.227 0.2119,1.5482 0.5635,3.0784 0.8735,4.6111 0.2171,1.0726 0.018,1.6361 -1.021,1.954 -1.1604,0.3567 -2.3674,0.6358 -3.572,0.7599 -1.8352,0.1912 -3.6858,0.2197 -6.3015,0.3593 z"
       id="path4516" />
    <path
       style="fill:#ff0000;fill-rule:evenodd;stroke:none"
       d="m 1062.7553,-9.0929 c -0.8787,0.01 -1.481,-0.8193 -1.1941,-1.7006 0.6745,-2.0807 1.3725,-4.1512 2.0652,-6.2239 0.2973,-0.8944 0.6254,-1.7783 0.8969,-2.6804 0.137,-0.4523 0.3489,-0.5686 0.8013,-0.4497 0.4316,0.1137 0.8865,0.1601 1.3337,0.1989 0.5686,0.047 0.5247,0.3567 0.3877,0.7574 -0.5739,1.7059 -1.1399,3.4144 -1.7085,5.1229 -0.4394,1.3207 -0.8867,2.6389 -1.3208,3.9623 -0.2043,0.6152 -0.6074,0.9692 -1.2614,1.0183 z"
       id="path4518" />
    <path
       style="fill:#ff0000;fill-rule:evenodd;stroke:none"
       d="m 1084.6652,-33.0286 c 0.2739,1.4396 0.4831,2.6389 0.7339,3.8305 0.331,1.5637 -0.054,2.5589 -1.5508,3.0861 -1.3208,0.4652 -2.7268,0.8038 -4.1199,0.9227 -4.2854,0.3645 -8.5813,0.3748 -12.8564,-0.2017 -0.9253,-0.124 -1.8584,-0.3643 -2.7217,-0.7185 -1.344,-0.5505 -1.7395,-1.4965 -1.4422,-2.918 0.2378,-1.1323 0.4471,-2.272 0.659,-3.4094 0.028,-0.1524 0.01,-0.3153 0.01,-0.5815 -0.7883,0.1965 -1.4758,0.3438 -2.1506,0.5376 -1.8635,0.535 -3.6909,1.1658 -5.2029,2.4426 -1.8635,1.574 -1.8999,3.7012 -0.098,5.3245 1.1706,1.0544 2.5871,1.6748 4.0578,2.1684 3.1121,1.0444 6.3274,1.507 9.5918,1.7552 5.6475,0.4264 11.2383,0.1628 16.7488,-1.2097 1.9851,-0.4937 3.9134,-1.1631 5.5598,-2.4374 2.1763,-1.6879 2.1919,-4.0115 0.041,-5.7381 -1.313,-1.0545 -2.8586,-1.6386 -4.4431,-2.1246 -0.8684,-0.2661 -1.76,-0.4599 -2.8172,-0.7287 z"
       id="path4520" />
    <path
       style="fill:#ff0000;fill-rule:evenodd;stroke:none"
       d="m 1075.5368,-14.575 c 0,1.3311 0.01,2.6623 0,3.9959 -0.01,0.9202 -0.4886,1.476 -1.251,1.4837 -0.7625,0.01 -1.2691,-0.5531 -1.2717,-1.463 -0.01,-2.75 0.01,-5.4976 -0.013,-8.2477 0,-0.5376 0.1914,-0.7367 0.7161,-0.7005 0.4057,0.029 0.8166,0.023 1.2251,0 0.4446,-0.021 0.6098,0.1707 0.6047,0.61 -0.015,1.4396 -0.01,2.8768 -0.01,4.3164 z"
       id="path4522" />
    <path
       style="fill:#ff0000;fill-rule:evenodd;stroke:none"
       d="m 1115.9113,-3.5568 c -0.2215,-0.6645 -0.4563,-1.3255 -0.6646,-1.9966 -0.8623,-2.7952 -1.7246,-5.5871 -2.5635,-8.3889 -0.1711,-0.5772 -0.4128,-0.745 -1.0234,-0.5503 -1.6746,0.5335 -3.3691,1.0066 -5.0603,1.4931 -0.3691,0.1074 -0.7517,0.1712 -1.3591,0.3054 0.1914,-0.7517 0.3256,-1.3522 0.4968,-1.9462 0.416,-1.4462 0.8086,-2.8992 1.2886,-4.3221 0.2414,-0.7214 0.013,-1.0033 -0.6512,-1.2013 -2.9931,-0.8992 -5.9797,-1.8254 -8.9694,-2.7481 -0.4295,-0.1343 -0.8489,-0.3087 -1.2718,-0.463 0,-0.091 0,-0.1813 0,-0.2719 0.9632,-0.3054 1.9261,-0.6207 2.8926,-0.9161 2.4529,-0.7583 4.9058,-1.5235 7.3689,-2.2516 0.6912,-0.2046 0.8555,-0.5167 0.6274,-1.2147 -0.5402,-1.6678 -1.0034,-3.3623 -1.4899,-5.0468 -0.097,-0.3356 -0.1543,-0.6811 -0.2786,-1.2416 1.1174,0.3055 2.0437,0.5503 2.9665,0.812 1.1543,0.3289 2.3152,0.641 3.4495,1.0269 0.6209,0.2114 0.8423,0 1.0134,-0.5637 0.9764,-3.2248 1.9798,-6.4428 2.9798,-9.6608 0.074,-0.2416 0.1811,-0.4731 0.2751,-0.7113 0.084,0 0.1677,0 0.2517,0 0.208,0.6107 0.4295,1.218 0.6206,1.8322 0.8726,2.8186 1.7517,5.6373 2.5872,8.4694 0.1948,0.6678 0.4497,0.8188 1.1277,0.5973 1.644,-0.537 3.3152,-0.9865 4.9795,-1.4631 0.3691,-0.1073 0.7517,-0.171 1.3523,-0.3053 -0.1878,0.7483 -0.3186,1.3523 -0.4898,1.9429 -0.4162,1.4463 -0.8122,2.8958 -1.2886,4.322 -0.2382,0.7113 -0.023,1.0033 0.6475,1.2046 2.9932,0.8993 5.9797,1.8254 8.9695,2.7483 0.4328,0.1341 0.8523,0.3087 1.2751,0.463 0,0.091 0,0.1813 0.01,0.2718 -0.9632,0.3053 -1.9229,0.6175 -2.8892,0.9161 -2.4529,0.7584 -4.906,1.5201 -7.3689,2.2482 -0.6846,0.2013 -0.8657,0.5101 -0.6374,1.2113 0.5368,1.6678 0.9997,3.3624 1.4831,5.0469 0.097,0.3356 0.1577,0.6846 0.2852,1.2449 -1.1175,-0.3087 -2.0469,-0.5536 -2.9698,-0.8187 -1.1543,-0.3289 -2.3154,-0.641 -3.4494,-1.0269 -0.6243,-0.2113 -0.8423,0.01 -1.0134,0.5705 -0.9832,3.2515 -1.9932,6.4964 -2.9966,9.7413 -0.064,0.2013 -0.1509,0.3959 -0.2283,0.5973 -0.094,0.01 -0.1877,0.02 -0.2783,0.03 z"
       id="path4524" />
    <path
       style="fill:#ff0000;fill-rule:evenodd;stroke:none"
       d="m 1172.0643,-107.9243 c -0.9873,0.2554 -1.5263,0.3146 -1.9885,0.5313 -2.1338,1.0208 -4.2964,1.9818 -6.3498,3.1478 -8.1172,4.6102 -14.8362,10.7561 -19.9407,18.6111 -0.5847,0.8918 -1.2141,1.1633 -2.2866,1.0256 -1.2251,-0.1628 -2.5235,-0.211 -3.7271,0.025 -5.4712,1.0744 -10.0642,3.8114 -13.938,7.7719 -0.6411,0.6533 -1.084,1.5128 -1.7759,2.4957 1.1958,0.3224 2.0923,0.4992 2.9405,0.7974 2.6679,0.9548 5.3218,1.9598 7.978,2.9465 0.9854,0.3676 1.1765,0.9486 0.6707,1.9147 -0.4671,0.8877 -0.6966,1.9089 -1.1228,2.8244 -0.4781,1.0203 -0.078,1.5801 0.7717,2.139 3.2212,2.1442 6.4099,4.3361 9.6089,6.5202 3.3947,2.3135 3.4172,2.339 6.2754,-0.7264 0.7153,-0.762 1.2844,-0.9453 2.0063,-0.1194 2.0913,2.3966 4.1816,4.7876 6.2673,7.1853 0.4229,0.4904 0.8257,1.0022 1.2718,1.5535 0.3601,-0.3518 0.654,-0.5194 0.7507,-0.7629 1.0071,-2.4945 2.2915,-4.9282 2.8894,-7.5244 1.1035,-4.7658 1.3811,-9.5852 -1.22,-14.1103 -0.2187,-0.3803 -0.011,-1.2315 0.2896,-1.6492 5.6006,-7.6687 8.9455,-16.2388 10.0871,-25.6489 0.3433,-2.8511 0.3597,-5.742 0.5467,-8.9551 z"
       id="path4526" />
    <path
       style="fill:#ff0000;fill-rule:evenodd;stroke:none"
       d="m 1131.3375,-60.8845 c -1.1945,5.2112 -2.4922,10.6778 -3.6814,16.1713 -0.3601,1.6543 0.7613,2.0591 1.9134,1.315 4.6904,-3.0388 9.2885,-6.2209 14.184,-9.5247 -4.2919,-2.7513 -8.2629,-5.2978 -12.4143,-7.9524 z"
       id="path4528" />
    <path
       style="fill:#ff0000;fill-rule:evenodd;stroke:none"
       d="m 1041.8668,-12.4262 c 0.2246,0.096 0.3997,0.1838 0.5806,0.2422 2.3369,0.773 4.6736,1.5462 7.0164,2.3076 0.6477,0.2101 0.7905,-0.096 0.6242,-0.671 -0.4521,-1.555 -0.8723,-3.1216 -1.3681,-4.662 -0.3182,-0.9832 -0.7498,-1.9284 -1.1582,-2.9524 0.3732,-0.1663 0.706,-0.2976 1.0239,-0.461 2.051,-1.0356 4.1076,-2.0567 6.1382,-3.1303 0.6711,-0.3531 0.6623,-0.5718 0,-0.954 -1.3186,-0.7673 -2.6489,-1.5142 -4.0086,-2.2027 -1.0063,-0.5105 -2.0683,-0.9132 -3.1652,-1.3916 0.1633,-0.4084 0.3266,-0.7556 0.4433,-1.1174 0.7031,-2.1617 1.3975,-4.3235 2.086,-6.4883 0.175,-0.5514 0.061,-0.8635 -0.6184,-0.6797 -1.0037,0.2713 -2.0306,0.461 -3.0137,0.7906 -1.552,0.5251 -3.0779,1.1378 -4.6533,1.7271 -0.073,-0.1662 -0.1458,-0.3413 -0.2276,-0.5076 -1.094,-2.2084 -2.1618,-4.4316 -3.2995,-6.6196 -0.3792,-0.7264 -0.5923,-0.7235 -0.9803,-0.01 -1.0124,1.8701 -1.9663,3.7751 -2.9233,5.6743 -0.2449,0.4844 -0.4199,1.0007 -0.6389,1.5259 -0.4404,-0.1927 -0.7847,-0.3764 -1.1494,-0.496 -2.2056,-0.7119 -4.4141,-1.4149 -6.6226,-2.1093 -0.5163,-0.1634 -0.6768,0.061 -0.5308,0.563 0.4463,1.5316 0.8548,3.0779 1.3448,4.595 0.3413,1.0531 0.7966,2.0683 1.2224,3.1595 -0.3704,0.1663 -0.7031,0.2975 -1.021,0.458 -2.051,1.0357 -4.1077,2.0568 -6.1382,3.1304 -0.6594,0.3501 -0.6477,0.5777 0,0.954 1.3186,0.7644 2.6489,1.5142 4.0085,2.2026 1.0064,0.5105 2.0684,0.9132 3.1565,1.3887 -0.1167,0.3035 -0.2216,0.5426 -0.3034,0.7907 -0.7527,2.296 -1.4995,4.5948 -2.2551,6.8879 -0.2012,0.6156 0.026,0.7556 0.5952,0.6068 1.0036,-0.2626 2.0334,-0.4551 3.0136,-0.7848 1.5755,-0.5279 3.1216,-1.1465 4.7117,-1.7358 0.07,0.1662 0.1399,0.3442 0.2246,0.5163 1.1057,2.229 2.2114,4.4608 3.3289,6.6868 0.2829,0.5601 0.6067,0.563 0.9248,0.01 0.5366,-0.9483 1.1289,-1.8672 1.6074,-2.8445 0.7031,-1.4296 1.3303,-2.8941 2.0129,-4.3996 z"
       id="path4530" />
    <path
       style="fill:#ff0000;fill-rule:evenodd;stroke:none"
       d="m 1103.9144,-102.5216 0.2461,0.041 c 0.4624,0.1032 0.8572,0.4022 1.0818,0.8193 v -0.7544 h 0.8167 v 4.3553 c 0.022,0.5307 -0.086,1.0588 -0.3167,1.5376 -0.2934,0.5268 -0.8284,0.8752 -1.4289,0.9306 -0.7073,0.094 -1.4266,0.018 -2.0982,-0.2226 v -0.794 l 0.3574,0.1692 c 0.6072,0.2665 1.2945,0.2837 1.9143,0.048 0.4253,-0.2196 0.7029,-0.6475 0.7305,-1.1253 0.026,-0.2665 0.034,-0.5344 0.025,-0.802 -0.2671,0.4943 -0.7676,0.819 -1.3279,0.8614 -0.9072,0.1289 -1.7797,-0.4039 -2.0798,-1.2696 -0.3298,-0.8887 -0.2952,-1.8708 0.096,-2.7341 0.3555,-0.7512 1.1616,-1.182 1.9836,-1.0601 z m -0.2251,0.6773 c -0.5124,0.05 -0.9431,0.4081 -1.0866,0.9026 -0.2408,0.7227 -0.1914,1.51 0.1374,2.1972 0.2908,0.4895 0.8699,0.7285 1.4212,0.5865 0.5073,-0.1224 0.8952,-0.5323 0.9895,-1.0455 0.1599,-0.6272 0.1198,-1.2882 -0.1143,-1.8916 -0.2263,-0.5267 -0.7803,-0.8348 -1.3472,-0.7492 z"
       id="path4532" />
    <path
       style="fill:#ff0000;fill-rule:evenodd;stroke:none"
       d="m 1134.4354,-102.5216 c 0.5601,0.042 1.0606,0.3661 1.3279,0.8601 v -0.7544 h 0.8169 v 6.8623 h -0.8169 V -98.19 l -0.1369,0.2075 c -0.3453,0.4498 -0.8907,0.6997 -1.4568,0.6675 -0.7398,0 -1.4119,-0.4323 -1.7141,-1.1074 -0.4734,-1.0271 -0.4307,-2.2166 0.1149,-3.2071 0.3826,-0.6482 1.1202,-1.001 1.865,-0.8921 z m -0.2231,0.6778 -0.1489,0.024 c -0.4532,0.1193 -0.8096,0.4689 -0.9378,0.9197 -0.2429,0.7416 -0.1933,1.5473 0.1389,2.2534 0.3025,0.5508 0.9644,0.7959 1.5525,0.575 0.4412,-0.1869 0.7608,-0.5803 0.8533,-1.0506 0.1628,-0.642 0.1221,-1.3184 -0.1167,-1.9362 -0.2127,-0.5393 -0.7671,-0.8639 -1.3413,-0.7854 z"
       id="path4534" />
    <path
       style="fill:#ff0000;fill-rule:evenodd;stroke:none"
       d="m 1138.995,-99.4371 0.017,0.3311 c 0.014,0.2623 0.104,0.515 0.2578,0.728 0.2024,0.2436 0.51,0.375 0.8259,0.3528 0.6021,0.033 1.1504,-0.3459 1.3328,-0.9204 0.067,-0.2107 0.099,-0.4308 0.096,-0.6519 v -2.8184 h 0.8166 v 4.9717 h -0.8166 v -0.7641 l -0.1546,0.2119 c -0.3942,0.5006 -1.0236,0.7564 -1.6555,0.6731 -0.687,-0.026 -1.2722,-0.5099 -1.4255,-1.1802 -0.078,-0.2942 -0.1157,-0.5979 -0.1111,-0.9023 v -3.0101 h 0.8169 z"
       id="path4536" />
    <path
       style="fill:#ff0000;fill-rule:evenodd;stroke:none"
       d="m 1146.3497,-102.525 c 0.9134,0.056 1.6729,0.725 1.8443,1.6238 0.078,0.3833 0.1057,0.7753 0.082,1.1658 h -3.7559 l 0.02,0.2048 c 0.032,0.5171 0.3054,0.9895 0.7385,1.2739 0.3826,0.2066 0.8188,0.2908 1.2507,0.2415 0.5454,-0.038 1.0764,-0.1926 1.5564,-0.4546 v 0.7727 c -0.7544,0.3317 -1.5857,0.449 -2.4023,0.3389 -1.1245,-0.1548 -1.9729,-1.101 -2.0044,-2.2356 -0.069,-0.6338 0.057,-1.274 0.3598,-1.8348 0.4292,-0.7244 1.2259,-1.151 2.0667,-1.1064 z m -0.56,0.7058 -0.2905,0.072 c -0.4617,0.1681 -0.8023,0.5649 -0.8987,1.0467 l -0.053,0.331 2.9119,-0.01 c 0.014,-0.3907 -0.1199,-0.7725 -0.375,-1.0688 -0.2496,-0.2684 -0.604,-0.4145 -0.9703,-0.3999 z"
       id="path4538" />
    <path
       style="fill:#ff0000;fill-rule:evenodd;stroke:none"
       d="m 1123.9225,-102.5157 c 0.3672,0.038 0.7256,0.1362 1.061,0.2903 v 0.7641 l -0.3469,-0.1674 c -0.553,-0.2519 -1.1814,-0.2836 -1.7571,-0.089 -0.4797,0.2107 -0.8205,0.6492 -0.9065,1.166 -0.1377,0.5917 -0.072,1.2124 0.1856,1.7625 0.2839,0.5149 0.8406,0.8193 1.4272,0.7808 0.4912,0 0.9732,-0.1352 1.3977,-0.3821 v 0.7556 c -0.7812,0.3716 -1.6765,0.4231 -2.4951,0.1433 -0.77,-0.3218 -1.3049,-1.0362 -1.3967,-1.8657 -0.1294,-0.7179 -0.011,-1.4584 0.3347,-2.1006 0.3979,-0.6395 1.0881,-1.0393 1.8408,-1.0667 0.2183,-0.017 0.4375,-0.014 0.6553,0.01 z"
       id="path4540" />
    <path
       style="fill:#ff0000;fill-rule:evenodd;stroke:none"
       d="m 1117.8417,-102.5265 c 0.5041,0 0.988,0.2004 1.3508,0.5503 0.3352,0.3979 0.5208,0.9001 0.5244,1.4202 l 0.01,0.2752 v 2.8366 h -0.8169 v -0.7541 l -0.1484,0.2109 c -0.313,0.3922 -0.7791,0.632 -1.28,0.6589 -0.4854,0.077 -0.9822,-0.035 -1.3865,-0.3149 -0.4321,-0.3491 -0.6458,-0.9025 -0.5598,-1.4514 0.033,-0.6192 0.456,-1.1497 1.052,-1.3208 0.3806,-0.1184 0.7778,-0.1746 1.1765,-0.1663 h 1.1462 c 0.021,-0.2771 -0.052,-0.5532 -0.2085,-0.7832 -0.2202,-0.2682 -0.541,-0.4341 -0.8869,-0.459 -0.6658,-0.07 -1.3369,0.066 -1.9229,0.3899 v -0.7556 c 0.617,-0.2578 1.2842,-0.3729 1.9517,-0.3367 z m 0.2541,2.5838 h -0.238 c -0.3901,-0.017 -0.7793,0.059 -1.134,0.2224 -0.1895,0.1127 -0.3201,0.3023 -0.3582,0.5193 -0.093,0.3386 0.01,0.7015 0.2629,0.9431 0.3636,0.2584 0.8274,0.3278 1.2508,0.1873 0.5625,-0.2049 0.9541,-0.7179 1.0034,-1.3145 0.022,-0.1861 0.03,-0.3736 0.026,-0.561 z"
       id="path4542" />
    <path
       style="fill:#ff0000;fill-rule:evenodd;stroke:none"
       d="m 1094.9679,-102.525 0.2312,0.03 c 0.8157,0.1462 1.457,0.7798 1.613,1.5935 0.078,0.3833 0.1058,0.7753 0.082,1.1658 h -3.7558 l 0.02,0.2048 c 0.032,0.5171 0.3055,0.9895 0.7386,1.2739 0.3825,0.2066 0.8188,0.2908 1.2507,0.2415 0.5454,-0.038 1.0764,-0.1926 1.5564,-0.4546 v 0.7727 c -0.7544,0.3317 -1.5857,0.449 -2.4024,0.3389 -1.1245,-0.1548 -1.9729,-1.101 -2.0044,-2.2356 -0.069,-0.6338 0.057,-1.274 0.3599,-1.8348 0.4292,-0.7244 1.2258,-1.151 2.0667,-1.1064 z m -0.5601,0.7058 c -0.5949,0.08 -1.0734,0.5301 -1.1892,1.1192 l -0.053,0.331 2.9118,-0.01 c 0.014,-0.3907 -0.1199,-0.7725 -0.375,-1.0688 -0.2495,-0.2684 -0.604,-0.4145 -0.9702,-0.3999 z"
       id="path4544" />
    <path
       style="fill:#ff0000;fill-rule:evenodd;stroke:none"
       d="m 1109.7465,-102.5265 c 0.5041,0 0.988,0.2002 1.3508,0.5503 0.3354,0.3976 0.521,0.8999 0.5244,1.4202 l 0.01,0.2752 v 2.8366 h -0.8166 v -0.7541 l -0.1487,0.2109 c -0.313,0.3922 -0.7791,0.632 -1.28,0.6589 -0.4854,0.078 -0.982,-0.035 -1.3863,-0.3149 -0.4321,-0.349 -0.6457,-0.9025 -0.5598,-1.4514 0.034,-0.6192 0.4558,-1.1497 1.0518,-1.3208 0.3806,-0.1184 0.7778,-0.1746 1.1765,-0.1663 h 1.1465 c 0.021,-0.2772 -0.053,-0.5532 -0.2088,-0.7832 -0.2202,-0.268 -0.5407,-0.4341 -0.8867,-0.459 -0.6658,-0.07 -1.3369,0.066 -1.9231,0.3899 v -0.7556 c 0.617,-0.2577 1.2842,-0.3728 1.9517,-0.3367 z m 0.2544,2.5838 h -0.2381 c -0.3904,-0.017 -0.7793,0.059 -1.1343,0.2224 -0.1894,0.1127 -0.32,0.3023 -0.3581,0.5193 -0.066,0.2756 -0.017,0.5665 0.1374,0.8044 0.2195,0.2704 0.5567,0.4172 0.9041,0.3936 0.7131,0.01 1.3264,-0.5038 1.4436,-1.2073 0.05,-0.2419 0.069,-0.4891 0.058,-0.7358 z"
       id="path4546" />
    <path
       style="fill:#ff0000;fill-rule:evenodd;stroke:none"
       d="m 1130.7833,-97.4442 h -0.8166 v -4.9717 h 0.8166 z"
       id="path4548" />
    <path
       style="fill:#ff0000;fill-rule:evenodd;stroke:none"
       d="m 1127.2108,-102.4159 h 1.6819 v 0.6351 h -1.6819 v 2.6989 c -0.015,0.2265 0.016,0.4538 0.093,0.6673 0.062,0.1292 0.1836,0.2201 0.3252,0.2439 0.1394,0.032 0.2823,0.046 0.4251,0.043 h 0.8381 v 0.6833 c -0.4248,0.022 -0.8506,0.015 -1.2744,-0.022 -0.3181,-0.012 -0.6238,-0.1282 -0.8691,-0.3311 -0.2056,-0.2388 -0.3243,-0.5402 -0.337,-0.855 -0.016,-0.1427 -0.023,-0.2861 -0.022,-0.4297 v -2.6989 h -0.5994 v -0.6351 h 0.5994 v -1.4118 h 0.821 z"
       id="path4550" />
    <path
       style="fill:#ff0000;fill-rule:evenodd;stroke:none"
       d="m 1114.1271,-97.4442 h -0.8167 v -6.9077 h 0.8167 z"
       id="path4552" />
    <path
       style="fill:#ff0000;fill-rule:evenodd;stroke:none"
       d="m 1067.3375,-100.2723 2.4375,-2.1436 h 1.0428 l -2.6365,2.3255 2.7488,2.6462 h -1.0655 l -2.5271,-2.4275 v 2.4275 h -0.8208 v -6.9077 h 0.8208 z"
       id="path4554" />
    <path
       style="fill:#ff0000;fill-rule:evenodd;stroke:none"
       d="m 1100.7868,-102.5323 0.098,0.01 c 0.076,0.01 0.1511,0.019 0.2258,0.033 v 0.8382 c -0.5747,-0.3014 -1.2791,-0.1804 -1.7202,0.2954 -0.2696,0.3754 -0.4007,0.8328 -0.3706,1.2939 v 2.6194 h -0.8211 v -4.9717 h 0.8211 v 0.773 l 0.1389,-0.2122 c 0.2993,-0.3946 0.7568,-0.6383 1.2514,-0.6662 0.1238,-0.014 0.2486,-0.017 0.3729,-0.011 z"
       id="path4556" />
    <path
       style="fill:#ff0000;fill-rule:evenodd;stroke:none"
       d="m 1072.6288,-97.4442 h -0.8167 v -4.9717 h 0.8167 z"
       id="path4558" />
    <path
       style="fill:#ff0000;fill-rule:evenodd;stroke:none"
       d="m 1075.1459,-102.4159 h 1.6816 v 0.6351 h -1.6816 v 2.6989 c -0.016,0.2265 0.016,0.4539 0.093,0.6673 0.062,0.1294 0.1836,0.2202 0.3252,0.2439 0.1394,0.032 0.2822,0.046 0.425,0.043 h 0.8379 v 0.6833 c -0.4248,0.022 -0.8506,0.015 -1.2741,-0.022 -0.3182,-0.012 -0.6238,-0.1282 -0.8692,-0.3311 -0.2056,-0.2388 -0.3242,-0.5402 -0.3369,-0.855 -0.016,-0.1427 -0.023,-0.2861 -0.023,-0.4297 v -2.6989 h -0.5993 v -0.6351 h 0.5993 v -1.4118 h 0.8211 z"
       id="path4560" />
    <path
       style="fill:#ff0000;fill-rule:evenodd;stroke:none"
       d="m 1081.6076,-97.4442 h -0.8169 v -4.9717 h 0.8169 z"
       id="path4562" />
    <path
       style="fill:#ff0000;fill-rule:evenodd;stroke:none"
       d="m 1089.8859,-102.4159 h 1.6816 v 0.6351 h -1.6816 v 2.6989 c -0.016,0.2265 0.016,0.4539 0.093,0.6673 0.062,0.1294 0.1836,0.2202 0.3252,0.2439 0.1394,0.032 0.2822,0.046 0.425,0.043 h 0.8379 v 0.6833 c -0.4248,0.022 -0.8506,0.015 -1.2744,-0.022 -0.3181,-0.012 -0.6235,-0.1282 -0.8689,-0.3311 -0.2056,-0.2388 -0.3242,-0.5402 -0.3369,-0.855 -0.016,-0.1427 -0.023,-0.2861 -0.023,-0.4297 v -2.6989 h -0.5993 v -0.6351 h 0.5993 v -1.4118 h 0.8211 z"
       id="path4564" />
    <path
       style="fill:#ff0000;fill-rule:evenodd;stroke:none"
       d="m 1085.9215,-102.5267 0.1946,0.025 c 0.6062,0.095 1.0923,0.5523 1.2236,1.1516 0.078,0.2951 0.1148,0.5996 0.1101,0.9048 v 3.0014 h -0.8169 v -2.9743 c 0.027,-0.3728 -0.069,-0.7442 -0.2756,-1.0562 -0.2031,-0.2419 -0.51,-0.3721 -0.8252,-0.3501 -0.6013,-0.034 -1.1494,0.3447 -1.3306,0.9192 -0.066,0.2108 -0.099,0.4309 -0.095,0.6519 v 2.8095 h -0.8211 v -4.9717 h 0.8211 v 0.773 l 0.1533,-0.2105 c 0.3977,-0.4998 1.0286,-0.7554 1.6621,-0.6733 z"
       id="path4566" />
    <path
       style="fill:#ff0000;fill-rule:evenodd;stroke:none"
       d="m 1072.6288,-103.3162 h -0.8167 v -1.0357 h 0.8167 z"
       id="path4568" />
    <path
       style="fill:#ff0000;fill-rule:evenodd;stroke:none"
       d="m 1130.7833,-103.3162 h -0.8166 v -1.0357 h 0.8166 z"
       id="path4570" />
    <path
       style="fill:#ff0000;fill-rule:evenodd;stroke:none"
       d="m 1081.6076,-103.3162 h -0.8169 v -1.0357 h 0.8169 z"
       id="path4572" />
    <path
       style="fill:#ff0000;fill-rule:evenodd;stroke:none"
       d="m 1161.7411,-5.3142 c -9.4458,2.3033 -19.1816,-2.354 -23.2856,-11.2058 -0.2051,-0.4453 -0.3782,-0.9018 -0.575,-1.3524 -0.158,-0.3591 -0.145,-0.6824 0.1914,-0.9296 0.3528,-0.2575 0.6616,-0.1143 0.9316,0.1498 1.419,1.3945 3.0513,2.4561 4.8926,3.2047 10.0379,4.0891 21.086,-3.8144 20.448,-14.6247 -0.3706,-6.2808 -4.3923,-11.4814 -10.3889,-13.4326 -0.3252,-0.1075 -0.6435,-0.2134 -0.7205,-0.6027 -0.078,-0.4078 0.2059,-0.724 0.6829,-0.7914 8.2246,-1.1499 16.3445,2.8345 20.356,9.9893 5.7624,10.2774 1.7629,23.0113 -8.8723,28.1643 -1.1768,0.5685 -2.4407,0.9564 -3.6609,1.4282 z"
       id="path4574" />
    <path
       style="fill:#ff0000;fill-rule:evenodd;stroke:none"
       d="m 1042.4076,-66.3424 c -0.019,0.4147 -0.082,0.6818 -0.031,0.924 0.1338,0.6383 0.3359,1.2627 0.4788,1.8999 0.3142,1.4055 0.052,2.7052 -0.7874,3.8755 -0.3909,0.5443 -0.8364,1.0498 -1.208,1.6054 -0.1262,0.1901 -0.2131,0.5529 -0.114,0.7029 0.098,0.1483 0.4678,0.2091 0.6919,0.1674 0.6091,-0.1121 1.1999,-0.3139 1.803,-0.4534 1.4919,-0.3519 2.8676,-0.092 4.1049,0.8268 0.4712,0.3497 0.94,0.7034 1.3977,1.0693 0.2569,0.2056 0.5005,0.4346 0.8443,0.1999 0.3489,-0.238 0.2043,-0.559 0.1225,-0.8659 -0.143,-0.5351 -0.2959,-1.0664 -0.4238,-1.6042 -0.3586,-1.5094 -0.092,-2.9015 0.8281,-4.1546 0.3775,-0.5135 0.8001,-0.9917 1.1555,-1.5199 0.1211,-0.1794 0.2088,-0.545 0.1146,-0.662 -0.1272,-0.1556 -0.4646,-0.2376 -0.6868,-0.1998 -0.5254,0.088 -1.0371,0.2669 -1.5554,0.4061 -1.7088,0.4638 -3.2571,0.1409 -4.649,-0.9493 -0.4223,-0.3311 -0.8291,-0.6823 -1.2695,-0.9893 -0.1799,-0.1257 -0.427,-0.1512 -0.8164,-0.2788 z"
       id="path4576" />
    <path
       style="fill:#ff0000;fill-rule:evenodd;stroke:none"
       d="m 1072.1256,-77.6377 c -0.3506,-0.047 -0.5879,-0.1344 -0.8054,-0.097 -0.4094,0.07 -0.8066,0.2162 -1.2117,0.3216 -1.2502,0.3255 -2.3938,0.1054 -3.4209,-0.6858 -0.3452,-0.2657 -0.6657,-0.5673 -1.0337,-0.794 -0.1672,-0.1026 -0.4814,-0.1492 -0.623,-0.056 -0.1431,0.095 -0.2368,0.3965 -0.2139,0.5922 0.04,0.361 0.1817,0.7107 0.2827,1.0652 0.3968,1.3728 0.1702,2.6199 -0.7407,3.7334 -0.2329,0.2849 -0.4939,0.5569 -0.6711,0.875 -0.1055,0.1885 -0.1741,0.5245 -0.076,0.6683 0.1013,0.146 0.434,0.2095 0.6521,0.184 0.3615,-0.043 0.7119,-0.1801 1.0651,-0.283 1.3404,-0.3872 2.5533,-0.1356 3.6438,0.7297 0.3013,0.2394 0.5774,0.5218 0.908,0.7101 0.1829,0.1044 0.5027,0.1375 0.6707,0.043 0.1347,-0.075 0.2043,-0.4016 0.176,-0.5984 -0.059,-0.4116 -0.2056,-0.8088 -0.3123,-1.2156 -0.3176,-1.2093 -0.1374,-2.329 0.6272,-3.3336 0.2732,-0.3599 0.5781,-0.6973 0.8257,-1.0741 0.1228,-0.1877 0.1489,-0.4376 0.2583,-0.7812 z"
       id="path4578" />
    <path
       style="fill:#ff0000;fill-rule:evenodd;stroke:none"
       d="m 1059.9725,-63.6637 c -0.067,0.045 -0.1333,0.088 -0.2006,0.1326 0,0.2723 -0.055,0.5574 0,0.8131 0.2356,1.0119 0.5384,2.0082 0.7586,3.0228 0.4375,2.0096 0.061,3.8793 -1.1196,5.5633 -0.596,0.8496 -1.2547,1.6557 -1.8865,2.4806 -0.1948,0.2547 -0.4412,0.4977 -0.1914,0.846 0.2275,0.3146 0.5193,0.2065 0.821,0.128 1.0034,-0.2664 2.0054,-0.5535 3.0205,-0.7693 1.9905,-0.4224 3.8496,-0.058 5.5196,1.1122 0.8781,0.6135 1.696,1.3154 2.5678,1.9378 0.1985,0.1426 0.5511,0.2437 0.7581,0.1648 0.3369,-0.1281 0.2612,-0.4803 0.1728,-0.79 -0.2307,-0.8067 -0.4506,-1.6156 -0.6584,-2.4279 -0.6038,-2.3525 -0.2571,-4.5316 1.218,-6.4953 0.554,-0.7371 1.1206,-1.4629 1.6936,-2.1859 0.1983,-0.2498 0.3982,-0.5007 0.1987,-0.8096 -0.2155,-0.337 -0.5466,-0.237 -0.8652,-0.1474 -0.7417,0.212 -1.4849,0.4176 -2.23,0.6171 -2.518,0.6721 -4.8235,0.2589 -6.8921,-1.36 -0.6587,-0.5162 -1.3068,-1.0494 -1.9824,-1.5473 -0.199,-0.147 -0.4717,-0.1967 -0.7107,-0.2907 z"
       id="path4580" />
    <path
       style="fill:#ff0000;fill-rule:evenodd;stroke:none"
       d="m 1103.8878,-46.7244 c 0.02,0 0.042,-0.01 0.061,-0.01 -0.1475,-0.9627 -0.217,-1.9422 -0.4619,-2.88 -0.2449,-0.9321 -0.5789,-1.8642 -1.0352,-2.7074 -0.4089,-0.7568 -1.0129,-0.8598 -1.6919,-0.5482 -0.7373,0.3423 -1.01,0.8181 -0.7763,1.6668 0.5566,2.0257 1.792,3.6507 3.1999,5.1589 0.1031,0.1085 0.3731,0.2059 0.4619,0.1503 0.1309,-0.086 0.1809,-0.3089 0.2339,-0.4841 0.034,-0.1059 0.01,-0.231 0.01,-0.3479 z"
       id="path4582" />
    <path
       style="fill:#ff0000;fill-rule:evenodd;stroke:none"
       d="m 1097.1234,-49.1814 c -0.075,-0.3394 -0.1865,-0.9489 -0.3423,-1.5471 -0.1362,-0.5287 -0.551,-0.7848 -1.0517,-0.9071 -1.5388,-0.384 -2.5684,0.3672 -2.6323,1.9978 -0.036,0.8738 0.022,1.7587 0.1223,2.6295 0.2004,1.7336 0.6206,3.417 1.3413,5.0115 0.094,0.2114 0.3227,0.3645 0.4868,0.5426 0.1838,-0.1837 0.3701,-0.3645 0.5454,-0.5565 0.05,-0.056 0.081,-0.1335 0.1086,-0.2087 0.8208,-2.1509 1.2662,-4.3826 1.4219,-6.9648 z"
       id="path4584" />
    <path
       style="fill:#ff0000;fill-rule:evenodd;stroke:none"
       d="m 1103.8322,-86.2926 c -0.064,-0.2476 -0.1475,-0.576 -0.231,-0.9044 -0.3005,0.1865 -0.6677,0.3145 -0.8904,0.5676 -1.1882,1.358 -2.2094,2.83 -2.791,4.5635 -0.3032,0.9016 -0.047,1.5499 0.729,1.906 0.718,0.3312 1.4248,0.083 1.8533,-0.7262 0.8764,-1.6556 1.0686,-3.4865 1.333,-5.4065 z"
       id="path4586" />
    <path
       style="fill:#ff0000;fill-rule:evenodd;stroke:none"
       d="m 1074.2924,-75.0621 c -0.034,0.086 -0.07,0.1725 -0.1031,0.2615 0.729,0.6011 1.408,1.2828 2.2012,1.7809 1.0352,0.6455 2.1231,1.2411 3.261,1.6751 0.9016,0.345 1.5388,-0.061 1.7866,-0.8292 0.2476,-0.7764 -0.042,-1.4108 -0.8681,-1.8143 -1.7532,-0.857 -3.6397,-1.1297 -5.5625,-1.216 -0.2337,-0.011 -0.4729,0.092 -0.7124,0.1447 z"
       id="path4588" />
    <path
       style="fill:#ff0000;fill-rule:evenodd;stroke:none"
       d="m 1085.3419,-54.6576 c -0.1335,-0.3812 -0.1892,-0.6761 -0.331,-0.9182 -0.7124,-1.202 -1.9256,-1.4775 -3.0247,-0.5871 -0.7041,0.5704 -1.3691,1.2439 -1.8699,1.9951 -0.9821,1.4692 -1.8476,3.0163 -2.727,4.5522 -0.114,0.2005 -0.1306,0.6011 -0.01,0.7514 0.1111,0.1307 0.5176,0.1252 0.7373,0.036 0.6677,-0.2671 1.3245,-0.5704 1.9534,-0.9182 1.7002,-0.9377 3.2944,-2.0284 4.5579,-3.5227 0.3339,-0.3951 0.4897,-0.9406 0.715,-1.3886 z"
       id="path4590" />
    <path
       style="fill:#ff0000;fill-rule:evenodd;stroke:none"
       d="m 1074.234,-57.8101 c 0.3394,0.056 0.5064,0.1168 0.6677,0.1029 1.0074,-0.092 2.0342,-0.1057 3.0108,-0.3256 0.9934,-0.2253 1.9756,-0.5898 2.8967,-1.0267 0.7542,-0.3562 0.9348,-1.1326 0.6121,-1.8421 -0.2866,-0.6289 -1.024,-0.9294 -1.7891,-0.6845 -1.7031,0.5398 -3.136,1.5443 -4.4773,2.6851 -0.3227,0.2756 -0.5564,0.654 -0.9209,1.0935 z"
       id="path4592" />
    <path
       style="fill:#ff0000;fill-rule:evenodd;stroke:none"
       d="m 1090.2255,-81.3952 c -0.067,-0.3034 -0.084,-0.6261 -0.2061,-0.9044 -0.2754,-0.6233 -0.5398,-1.266 -0.9238,-1.8226 -0.6734,-0.9766 -1.4275,-1.9005 -2.1704,-2.8271 -0.1001,-0.1281 -0.3367,-0.2227 -0.4925,-0.2031 -0.094,0.014 -0.164,0.2755 -0.2226,0.4341 -0.034,0.089 -0.036,0.1948 -0.028,0.2894 0.1753,1.9756 0.4953,3.9178 1.4248,5.7042 0.3144,0.6066 0.9069,0.8348 1.5971,0.6679 0.6707,-0.1614 0.9739,-0.5788 1.0213,-1.3412 z"
       id="path4594" />
    <path
       style="fill:#ff0000;fill-rule:evenodd;stroke:none"
       d="m 1110.0485,-61.8617 c -0.7625,0.1337 -1.1883,0.4593 -1.3745,1.1409 -0.1866,0.6874 0.03,1.2411 0.665,1.5834 1.7974,0.9711 3.7703,1.2381 5.7681,1.3606 0.2199,0.014 0.4509,-0.1642 0.6762,-0.2532 -0.1057,-0.1976 -0.1587,-0.4647 -0.3227,-0.5843 -1.0965,-0.8097 -2.187,-1.6361 -3.3418,-2.3597 -0.6289,-0.3951 -1.3775,-0.5982 -2.073,-0.8877 z"
       id="path4596" />
    <path
       style="fill:#ff0000;fill-rule:evenodd;stroke:none"
       d="m 1093.0162,-84.0666 c 0.056,0.4397 0.073,0.8905 0.1727,1.3218 0.217,0.9516 0.9543,1.5332 1.8698,1.5249 0.9822,-0.01 1.6419,-0.526 1.8865,-1.511 0.078,-0.32 0.156,-0.6623 0.1252,-0.9823 -0.1418,-1.4135 -0.2502,-2.8355 -0.5175,-4.2267 -0.1975,-1.0239 -0.5982,-2.0145 -0.9515,-3.0051 -0.081,-0.2255 -0.3452,-0.3841 -0.5261,-0.5705 -0.1723,0.1892 -0.4089,0.3506 -0.509,0.5705 -0.9824,2.1815 -1.4109,4.4883 -1.5444,6.8757 z"
       id="path4598" />
    <path
       style="fill:#ff0000;fill-rule:evenodd;stroke:none"
       d="m 1081.9279,-66.6281 c -0.1253,7.4044 5.7793,13.4509 13.4035,13.3145 7.3015,-0.1307 12.7024,-5.9436 12.9055,-12.7887 0.2254,-7.5992 -5.8488,-13.4787 -12.989,-13.5733 -7.446,-0.097 -13.3786,5.9713 -13.323,13.0475 z"
       id="path4600" />
    <path
       style="fill:#ff0000;fill-rule:evenodd;stroke:none"
       d="m 1077.3949,-64.5384 c 0.3897,0 0.7847,0.033 1.1687,-0.01 0.9461,-0.1001 1.6333,-0.7401 1.7224,-1.5639 0.1309,-1.2076 -0.2558,-1.8838 -1.3161,-2.2232 -0.3284,-0.1058 -0.6873,-0.1947 -1.0269,-0.1808 -0.9514,0.044 -1.9199,0.047 -2.8437,0.2475 -1.5164,0.3284 -3.0079,0.7875 -4.4993,1.23 -0.2256,0.067 -0.3897,0.345 -0.5845,0.5259 0.2061,0.1892 0.3814,0.448 0.6233,0.5509 2.1538,0.9294 4.4187,1.3579 6.7534,1.4192 z"
       id="path4602" />
    <path
       style="fill:#ff0000;fill-rule:evenodd;stroke:none"
       d="m 1085.3058,-78.2844 c -0.1169,-0.3255 -0.1475,-0.7318 -0.3645,-0.9628 -0.793,-0.8514 -1.5584,-1.7696 -2.4988,-2.4292 -1.3328,-0.9377 -2.802,-1.6889 -4.2351,-2.4792 -0.217,-0.1196 -0.5564,-0.017 -0.8374,-0.017 0.017,0.256 -0.025,0.5343 0.058,0.7652 0.6149,1.7113 1.5971,3.2194 2.6962,4.6497 0.6624,0.8625 1.3245,1.7502 2.3597,2.2372 1.2409,0.5843 2.7548,-0.3645 2.8215,-1.7642 z"
       id="path4604" />
    <path
       style="fill:#ff0000;fill-rule:evenodd;stroke:none"
       d="m 1106.943,-56.6666 c -1.238,0.014 -2.532,1.2744 -1.8447,2.7826 0.164,0.3618 0.4228,0.7263 0.7317,0.9739 1.2634,1.0045 2.5266,2.0146 3.8596,2.9189 0.7485,0.5093 1.6221,0.8349 2.4597,1.1994 0.178,0.078 0.5232,0.05 0.6345,-0.072 0.1028,-0.1113 0.044,-0.4369 -0.031,-0.6344 -0.8682,-2.2957 -2.2205,-4.2908 -3.8846,-6.0744 -0.5424,-0.5788 -1.163,-1.1241 -1.9255,-1.0936 z"
       id="path4606" />
    <path
       style="fill:#ff0000;fill-rule:evenodd;stroke:none"
       d="m 1112.4581,-64.4744 c 2.5601,-0.1308 4.7723,-0.5398 6.8814,-1.4275 0.2866,-0.1197 0.5146,-0.3756 0.7707,-0.5705 -0.2531,-0.2197 -0.4702,-0.5287 -0.7651,-0.6455 -2.3596,-0.9573 -4.8223,-1.4079 -7.3655,-1.3885 -0.3589,0 -0.729,0.1308 -1.0742,0.2588 -0.7817,0.2894 -1.0518,0.8125 -1.0349,1.8894 0.014,0.8292 0.3589,1.4079 1.0852,1.6195 0.5703,0.164 1.177,0.2142 1.5024,0.2671 z"
       id="path4608" />
    <path
       style="fill:#ff0000;fill-rule:evenodd;stroke:none"
       d="m 1086.3883,-47.0444 c 0,0.1948 -0.031,0.3951 0.01,0.5844 0.044,0.2281 0.1445,0.4451 0.2197,0.665 0.2339,-0.1224 0.5455,-0.1837 0.6846,-0.3756 0.7651,-1.0297 1.561,-2.0508 2.2009,-3.1583 0.3953,-0.6873 0.5845,-1.5109 0.7654,-2.2956 0.097,-0.4201 -0.1113,-0.8348 -0.5344,-1.0852 -0.8486,-0.5064 -1.6028,-0.3451 -2.0591,0.5509 -0.8152,1.6 -1.1826,3.328 -1.2883,5.1144 z"
       id="path4610" />
    <path
       style="fill:#ff0000;fill-rule:evenodd;stroke:none"
       d="m 1104.9342,-78.1397 c 0,0.5732 0.4172,1.2717 1.0796,1.6167 0.626,0.3255 1.2605,0.2894 1.8308,-0.1169 0.4592,-0.3255 0.9434,-0.6594 1.2857,-1.0935 0.8708,-1.0991 1.7168,-2.2233 2.4765,-3.4004 0.4702,-0.729 0.7847,-1.5637 1.1297,-2.3679 0.078,-0.1837 0.072,-0.5649 -0.036,-0.6344 -0.1753,-0.1141 -0.4927,-0.1113 -0.7041,-0.033 -0.4924,0.1781 -0.9682,0.4062 -1.4331,0.6539 -1.7668,0.9349 -3.4253,2.0313 -4.8193,3.481 -0.4646,0.4814 -0.832,1.0379 -0.8069,1.8977 z"
       id="path4612" />
    <path
       style="fill:#ff0000;fill-rule:evenodd;stroke:none"
       d="m 1114.6119,-75.332 c 0,-0.017 -0.01,-0.036 -0.01,-0.053 -0.6149,0.097 -1.2495,0.1309 -1.8449,0.3034 -1.1909,0.3478 -2.3792,0.7318 -3.534,1.1854 -0.601,0.2364 -0.7929,0.8682 -0.612,1.4803 0.2922,0.985 1.0378,1.3356 2.0842,0.9544 1.7168,-0.6261 3.1636,-1.6918 4.5327,-2.8661 0.2171,-0.1864 0.3115,-0.512 0.4646,-0.7736 -0.2837,-0.078 -0.5647,-0.1585 -0.8486,-0.2281 -0.072,-0.019 -0.1558,0 -0.2337,0 z"
       id="path4614" />
    <path
       style="fill:#ff0000;fill-rule:evenodd;stroke:none"
       d="m 1128.4193,-111.839 c 0.5518,0.031 1.0259,0.4029 1.1868,0.9314 0.08,0.3028 0.1128,0.6158 0.097,0.9285 h -2.5039 l 0.035,0.2644 c 0.067,0.4579 0.4333,0.8143 0.893,0.8687 0.5015,0.057 1.0081,-0.045 1.4492,-0.2893 v 0.5151 c -0.5554,0.2526 -1.1779,0.3191 -1.7741,0.1897 -0.6697,-0.1692 -1.1455,-0.7638 -1.1638,-1.4543 -0.071,-0.5331 0.086,-1.0716 0.4323,-1.4832 0.3506,-0.3599 0.8499,-0.5343 1.3484,-0.471 z m -0.3735,0.4705 -0.1936,0.048 c -0.3804,0.1463 -0.6326,0.5112 -0.6345,0.9187 h 1.9411 c 0.028,-0.3851 -0.1845,-0.7478 -0.5337,-0.9126 -0.1855,-0.067 -0.385,-0.084 -0.5793,-0.05 z"
       id="path4616" />
    <path
       style="fill:#ff0000;fill-rule:evenodd;stroke:none"
       d="m 1122.0009,-111.8399 c 0.4292,-0.01 0.8313,0.2114 1.0559,0.5771 0.1443,0.2844 0.2131,0.6012 0.1997,0.9199 v 1.8912 h -0.5445 v -0.503 l -0.099,0.1409 c -0.2571,0.3082 -0.6462,0.4748 -1.0469,0.4482 -0.3688,0.027 -0.7253,-0.1406 -0.9406,-0.4411 -0.2432,-0.4018 -0.2271,-0.9081 0.041,-1.2935 0.1645,-0.1887 0.3855,-0.3192 0.6303,-0.3723 0.2132,-0.05 0.4314,-0.074 0.6504,-0.071 h 0.7644 c 0.043,-0.3623 -0.1906,-0.7006 -0.5444,-0.7896 -0.5,-0.1097 -1.0227,-0.031 -1.468,0.2214 v -0.5039 c 0.4114,-0.1718 0.8562,-0.2485 1.3013,-0.2243 z m 0.1694,1.7224 -0.3047,0.01 c -0.2117,0 -0.4209,0.047 -0.6101,0.1411 -0.2437,0.1769 -0.3298,0.5001 -0.2068,0.7749 0.1216,0.2497 0.386,0.3972 0.6624,0.3699 0.4333,0.01 0.8183,-0.2766 0.9323,-0.6948 0.052,-0.1957 0.076,-0.3981 0.069,-0.6006 z"
       id="path4618" />
    <path
       style="fill:#ff0000;fill-rule:evenodd;stroke:none"
       d="m 1111.3322,-111.839 c 0.5517,0.031 1.0258,0.4029 1.1867,0.9314 0.08,0.3028 0.1128,0.6158 0.097,0.9285 h -2.5036 l 0.035,0.2644 c 0.067,0.458 0.4334,0.8145 0.8931,0.8687 0.5015,0.057 1.0078,-0.045 1.449,-0.2893 v 0.5151 c -0.5554,0.2526 -1.1777,0.3191 -1.7739,0.1897 -0.67,-0.1689 -1.1458,-0.7637 -1.1639,-1.4543 -0.071,-0.533 0.086,-1.0717 0.4322,-1.4832 0.3508,-0.3599 0.8498,-0.5342 1.3484,-0.471 z m -0.3736,0.4705 -0.1936,0.048 c -0.3803,0.1464 -0.6323,0.5112 -0.6345,0.9187 h 1.9414 c 0.027,-0.3851 -0.1848,-0.7476 -0.5339,-0.9126 -0.1856,-0.067 -0.385,-0.084 -0.5794,-0.05 z"
       id="path4620" />
    <path
       style="fill:#ff0000;fill-rule:evenodd;stroke:none"
       d="m 1108.66,-108.4517 h -0.5446 v -0.4971 l -0.091,0.1382 c -0.4039,0.4834 -1.1016,0.5935 -1.6346,0.2578 -0.2929,-0.203 -0.5046,-0.5032 -0.5974,-0.8474 -0.1665,-0.565 -0.1247,-1.1711 0.1179,-1.7078 0.2845,-0.6172 1.0022,-0.9055 1.6346,-0.657 0.2436,0.094 0.446,0.2721 0.5708,0.5017 v -1.7934 h 0.5446 z m -1.6779,-2.917 -0.1812,0.064 c -0.2475,0.1419 -0.4219,0.3833 -0.4787,0.6629 -0.1102,0.4277 -0.083,0.8794 0.077,1.291 0.1558,0.3942 0.5808,0.6117 0.9917,0.5076 0.3406,-0.098 0.5969,-0.3788 0.6624,-0.7271 0.1108,-0.4276 0.084,-0.8795 -0.078,-1.2908 -0.157,-0.3943 -0.5823,-0.6115 -0.9936,-0.5075 z"
       id="path4622" />
    <path
       style="fill:#ff0000;fill-rule:evenodd;stroke:none"
       d="m 1071.5619,-112.9432 0.2078,0.02 c 0.3967,0.048 0.7783,0.1825 1.1176,0.3938 v 0.6365 c -0.6399,-0.574 -1.5542,-0.7255 -2.3449,-0.3887 -0.3843,0.2069 -0.6482,0.5834 -0.7115,1.0152 -0.1294,0.5711 -0.069,1.169 0.1717,1.7028 0.2461,0.4308 0.7036,0.6975 1.1997,0.6995 0.4153,0.05 0.8362,-0.027 1.2077,-0.2183 v -1.1865 h -0.9763 v -0.4914 h 1.5681 v 1.8977 c -0.8183,0.5569 -1.8642,0.6551 -2.7719,0.2605 -0.5855,-0.3075 -0.9793,-0.8865 -1.0503,-1.544 -0.115,-0.6373 -0.012,-1.2947 0.2925,-1.8662 0.3527,-0.5609 0.9621,-0.9089 1.6245,-0.928 0.1548,-0.012 0.3103,-0.012 0.4653,0 z"
       id="path4624" />
    <path
       style="fill:#ff0000;fill-rule:evenodd;stroke:none"
       d="m 1098.1647,-109.7804 c -0.018,0.2491 0.047,0.4971 0.1833,0.7061 0.135,0.1624 0.3399,0.25 0.5506,0.2353 0.4807,0.022 0.894,-0.3389 0.9367,-0.8183 l 0.016,-0.23 v -1.8789 h 0.5444 v 3.3145 h -0.5444 v -0.5096 l -0.1028,0.1414 c -0.2942,0.3686 -0.7737,0.5366 -1.2336,0.4321 -0.4051,-0.065 -0.7295,-0.3702 -0.8206,-0.7702 -0.052,-0.1962 -0.077,-0.3986 -0.074,-0.6016 v -2.0066 h 0.5445 z"
       id="path4626" />
    <path
       style="fill:#ff0000;fill-rule:evenodd;stroke:none"
       d="m 1095.4989,-111.839 0.1541,0.02 c 0.4895,0.082 0.8899,0.4358 1.0327,0.9111 0.08,0.3028 0.1128,0.6158 0.097,0.9285 h -2.5037 l 0.035,0.2644 c 0.067,0.458 0.4333,0.8145 0.8931,0.8687 0.5014,0.057 1.0078,-0.045 1.4489,-0.2893 v 0.5151 c -0.5554,0.2526 -1.1777,0.3191 -1.7739,0.1897 -0.6699,-0.1689 -1.1457,-0.7637 -1.1638,-1.4543 -0.071,-0.533 0.086,-1.0717 0.4321,-1.4832 0.3509,-0.3599 0.8499,-0.5342 1.3484,-0.471 z m -0.3735,0.4705 c -0.3968,0.053 -0.7156,0.3534 -0.7928,0.7461 l -0.035,0.2209 h 1.9415 c 0.027,-0.3851 -0.1849,-0.7476 -0.534,-0.9126 -0.1855,-0.067 -0.385,-0.084 -0.5793,-0.05 z"
       id="path4628" />
    <path
       style="fill:#ff0000;fill-rule:evenodd;stroke:none"
       d="m 1089.1959,-111.8399 0.1629,0.018 c 0.5866,0.056 1.0439,0.536 1.0708,1.1247 0.015,0.1177 0.023,0.2361 0.022,0.3547 v 1.8912 h -0.5447 v -0.503 l -0.099,0.1409 c -0.257,0.3082 -0.6462,0.4748 -1.0468,0.4482 -0.3689,0.027 -0.7254,-0.1405 -0.9407,-0.4411 -0.2432,-0.4018 -0.2271,-0.9081 0.041,-1.2935 0.1645,-0.1888 0.3855,-0.3193 0.6304,-0.3723 0.2131,-0.05 0.4314,-0.074 0.6504,-0.071 h 0.7641 c 0.043,-0.3623 -0.1904,-0.7006 -0.5442,-0.7896 -0.5,-0.1099 -1.0227,-0.031 -1.468,0.2214 v -0.5039 c 0.4111,-0.1718 0.856,-0.2486 1.301,-0.2243 z m 0.1697,1.7224 c -0.3125,-0.024 -0.6265,0.028 -0.9148,0.1506 -0.2078,0.147 -0.3039,0.4055 -0.2429,0.6526 0.075,0.3171 0.3745,0.5284 0.6982,0.4922 0.4336,0.01 0.8186,-0.2765 0.9327,-0.6948 0.052,-0.1958 0.075,-0.3981 0.068,-0.6006 z"
       id="path4630" />
    <path
       style="fill:#ff0000;fill-rule:evenodd;stroke:none"
       d="m 1135.5148,-111.839 c 0.5517,0.031 1.0259,0.4029 1.187,0.9314 0.08,0.3028 0.1125,0.6158 0.097,0.9285 h -2.5037 l 0.035,0.2644 c 0.067,0.458 0.4333,0.8145 0.893,0.8687 0.5015,0.057 1.0078,-0.045 1.449,-0.2893 v 0.5151 c -0.5554,0.2526 -1.1777,0.3191 -1.7739,0.1897 -0.6699,-0.1692 -1.1458,-0.7637 -1.1638,-1.4543 -0.071,-0.533 0.086,-1.0716 0.4321,-1.4832 0.3508,-0.3597 0.8498,-0.5342 1.3484,-0.471 z m -0.3736,0.4705 -0.1936,0.048 c -0.3803,0.1464 -0.6323,0.5113 -0.6345,0.9187 h 1.9414 c 0.027,-0.3851 -0.1848,-0.7476 -0.5339,-0.9126 -0.1856,-0.067 -0.385,-0.084 -0.5794,-0.05 z"
       id="path4632" />
    <path
       style="fill:#ff0000;fill-rule:evenodd;stroke:none"
       d="m 1083.1903,-111.839 0.1541,0.02 c 0.4895,0.082 0.8899,0.4358 1.0327,0.9111 0.08,0.3028 0.1128,0.6158 0.097,0.9285 h -2.5039 l 0.035,0.2644 c 0.067,0.4579 0.4333,0.8142 0.893,0.8687 0.5015,0.057 1.0081,-0.045 1.4492,-0.2893 v 0.5151 c -0.5554,0.2526 -1.1779,0.3191 -1.7741,0.1897 -0.67,-0.1692 -1.1455,-0.7638 -1.1636,-1.4543 -0.071,-0.533 0.086,-1.0717 0.4321,-1.4832 0.3506,-0.3599 0.8499,-0.5343 1.3484,-0.471 z m -0.3735,0.4705 c -0.3967,0.053 -0.7156,0.3534 -0.7927,0.7461 l -0.035,0.2209 h 1.9411 c 0.028,-0.3851 -0.1846,-0.7478 -0.5337,-0.9126 -0.1855,-0.067 -0.385,-0.084 -0.5793,-0.05 z"
       id="path4634" />
    <path
       style="fill:#ff0000;fill-rule:evenodd;stroke:none"
       d="m 1139.0385,-111.8346 c 0.2624,0.016 0.5207,0.072 0.7661,0.1661 v 0.5151 l -0.2346,-0.1035 c -0.4007,-0.154 -0.8396,-0.1762 -1.2537,-0.063 -0.2241,0.062 -0.3599,0.2904 -0.3074,0.5171 0.051,0.1622 0.1868,0.2827 0.354,0.313 0.2713,0.078 0.5449,0.1483 0.8203,0.2102 l 0.2271,0.081 c 0.4321,0.1498 0.6733,0.6108 0.5495,1.0513 -0.069,0.2849 -0.2712,0.5192 -0.5424,0.6303 -0.5337,0.1919 -1.1153,0.2041 -1.6563,0.035 l -0.3115,-0.09 v -0.5625 l 0.2998,0.1372 c 0.3823,0.1656 0.8049,0.2155 1.2153,0.1433 0.2066,-0.019 0.3824,-0.1593 0.4453,-0.357 0.061,-0.2048 -0.038,-0.4235 -0.2331,-0.5117 -0.3189,-0.1209 -0.648,-0.2127 -0.9834,-0.2741 l -0.2002,-0.075 c -0.3301,-0.1219 -0.5415,-0.4461 -0.52,-0.7972 -0.015,-0.4432 0.2964,-0.8315 0.7324,-0.9126 0.2729,-0.062 0.5542,-0.079 0.8328,-0.053 z"
       id="path4636" />
    <path
       style="fill:#ff0000;fill-rule:evenodd;stroke:none"
       d="m 1075.6212,-111.839 0.1541,0.02 c 0.4895,0.082 0.8899,0.4358 1.0327,0.9111 0.08,0.3028 0.1128,0.6158 0.097,0.9285 h -2.5039 l 0.035,0.2644 c 0.067,0.4579 0.4333,0.8142 0.893,0.8687 0.5015,0.057 1.0081,-0.045 1.4492,-0.2893 v 0.5151 c -0.5554,0.2526 -1.1779,0.3191 -1.7741,0.1897 -0.6699,-0.1692 -1.1455,-0.7638 -1.1636,-1.4543 -0.071,-0.533 0.086,-1.0717 0.4321,-1.4832 0.3506,-0.3599 0.8499,-0.5343 1.3484,-0.471 z m -0.3735,0.4705 c -0.3967,0.053 -0.7156,0.3534 -0.7927,0.7461 l -0.035,0.2209 h 1.9411 c 0.028,-0.3851 -0.1845,-0.7478 -0.5337,-0.9126 -0.1855,-0.067 -0.385,-0.084 -0.5793,-0.05 z"
       id="path4638" />
    <path
       style="fill:#ff0000;fill-rule:evenodd;stroke:none"
       d="m 1126.0787,-111.8438 c 0.072,0 0.1443,0.014 0.2156,0.028 v 0.5585 c -0.4477,-0.2404 -1.0048,-0.079 -1.2548,0.3636 -0.098,0.2186 -0.146,0.4566 -0.1392,0.6963 v 1.7461 h -0.5474 v -3.3145 h 0.5474 v 0.5151 l 0.093,-0.1411 c 0.2603,-0.3254 0.6687,-0.4956 1.083,-0.4516 z"
       id="path4640" />
    <path
       style="fill:#ff0000;fill-rule:evenodd;stroke:none"
       d="m 1103.2189,-111.8438 0.065,0.01 c 0.05,0.01 0.1006,0.013 0.1504,0.022 v 0.5585 c -0.4478,-0.2404 -1.0049,-0.079 -1.2549,0.3636 -0.098,0.2187 -0.1455,0.4566 -0.1389,0.6963 v 1.7461 h -0.5474 v -3.3145 h 0.5474 v 0.5151 l 0.092,-0.1411 c 0.2603,-0.3254 0.6685,-0.4957 1.0828,-0.4516 z"
       id="path4642" />
    <path
       style="fill:#ff0000;fill-rule:evenodd;stroke:none"
       d="m 1132.8246,-108.4517 h -0.5444 v -4.605 h 0.5444 z"
       id="path4644" />
    <path
       style="fill:#ff0000;fill-rule:evenodd;stroke:none"
       d="m 1131.141,-108.4517 h -0.5447 v -4.605 h 0.5447 z"
       id="path4646" />
    <path
       style="fill:#ff0000;fill-rule:evenodd;stroke:none"
       d="m 1079.6649,-111.8236 0.2334,0.066 c 0.2954,0.1269 0.512,0.3878 0.5825,0.7014 0.052,0.1968 0.077,0.3998 0.073,0.6033 v 2.001 h -0.5447 v -1.983 c 0.018,-0.2485 -0.046,-0.496 -0.1836,-0.7041 -0.1357,-0.1611 -0.3401,-0.2479 -0.5503,-0.2334 -0.4802,-0.023 -0.893,0.3382 -0.9348,0.8172 l -0.016,0.2302 v 1.8731 h -0.5473 v -3.3145 h 0.5473 v 0.5151 l 0.1023,-0.1401 c 0.2964,-0.368 0.7766,-0.5358 1.2378,-0.4324 z"
       id="path4648" />
    <path
       style="fill:#ff0000;fill-rule:evenodd;stroke:none"
       d="m 1092.1107,-111.7662 h 1.1214 v 0.4233 h -1.1214 v 1.7994 c -0.022,0.181 0.017,0.3643 0.1109,0.5207 0.1306,0.094 0.292,0.1351 0.4516,0.1155 h 0.5589 v 0.4556 c -0.2832,0.01 -0.5669,0 -0.8496,-0.015 -0.2129,0 -0.418,-0.082 -0.5794,-0.2207 -0.134,-0.1611 -0.2126,-0.3608 -0.2246,-0.5701 l -0.015,-0.2863 v -1.7994 h -0.3997 v -0.4233 h 0.3997 v -0.9412 h 0.5473 z"
       id="path4650" />
    <path
       style="fill:#ff0000;fill-rule:evenodd;stroke:none"
       d="m 1087.0695,-111.8438 0.065,0.01 c 0.05,0.01 0.1008,0.013 0.1506,0.022 v 0.5585 c -0.448,-0.2404 -1.0052,-0.079 -1.2552,0.3636 -0.098,0.2187 -0.1455,0.4566 -0.1389,0.6963 v 1.7461 h -0.5473 v -3.3145 h 0.5473 v 0.5151 l 0.093,-0.1411 c 0.2602,-0.3254 0.6687,-0.4956 1.083,-0.4516 z"
       id="path4652" />
    <path
       style="fill:#ff0000;fill-rule:evenodd;stroke:none"
       d="m 1117.4772,-109.8636 1.1335,-3.0066 h 0.8911 v 4.4185 h -0.5835 v -3.8797 l -1.1391,3.0303 h -0.6004 l -1.1391,-3.0303 v 3.8797 h -0.5806 v -4.4185 h 0.8911 z"
       id="path4654" />
    <path
       style="fill:#ff0000;fill-rule:evenodd;stroke:none"
       d="m 1083.0304,-112.1866 h -0.4526 l 0.8283,-1.1126 h 0.5891 z"
       id="path4656" />
    <path
       style="fill:#ff0000;fill-rule:evenodd;stroke:none"
       d="m 1075.4613,-112.1866 h -0.4526 l 0.8283,-1.1126 h 0.5892 z"
       id="path4658" />
    <path
       style="fill:#ff0000;fill-rule:evenodd;stroke:none"
       d="m 1044.5167,-104.1499 c 0.8418,-0.7223 1.6206,-1.4037 2.4143,-2.0659 2.5645,-2.1355 5.2447,-4.1055 8.2329,-5.62 1.2793,-0.6474 2.6014,-1.1909 4.0284,-1.4023 0.4946,-0.074 1.008,-0.091 1.5066,-0.046 1.142,0.1025 1.8603,0.7743 2.1245,1.8965 0.2976,1.2562 0.135,2.4962 -0.1385,3.7271 -0.5439,2.4538 -1.5317,4.7452 -2.6752,6.9698 -2.9239,5.6854 -6.6294,10.8404 -10.7303,15.7238 -3.938,4.6885 -8.2016,9.0583 -12.9795,12.9022 -2.6574,2.1379 -5.4311,4.1008 -8.5822,5.4674 -1.1692,0.5082 -2.3794,0.8953 -3.667,0.9318 -0.9139,0.026 -1.8108,-0.1363 -2.313,-0.9782 -0.2998,-0.5014 -0.4658,-1.117 -0.5469,-1.7023 -0.1736,-1.2464 0.09,-2.4698 0.4087,-3.672 0.7908,-2.9774 2.1179,-5.7297 3.6331,-8.3937 0.7907,-1.3921 1.6574,-2.737 2.4921,-4.1032 0.059,-0.094 0.1304,-0.1807 0.2366,-0.328 0.069,0.186 0.1218,0.3116 0.166,0.4409 0.1511,0.4507 0.2303,0.9431 0.4602,1.3458 0.4409,0.769 0.3203,1.4534 -0.013,2.2284 -0.5127,1.1946 -0.8684,2.4587 -0.8794,3.7707 -0.01,0.6207 0.069,1.2733 0.2532,1.8646 0.3609,1.1505 1.2356,1.7305 2.4177,1.8572 1.0596,0.1131 2.0638,-0.1473 3.0391,-0.5307 2.7373,-1.0733 5.0842,-2.7728 7.2939,-4.6574 5.6236,-4.7912 10.2686,-10.3815 13.6727,-16.9623 0.7702,-1.4898 1.4043,-3.0388 1.788,-4.6778 0.2364,-1.0007 0.3802,-2.0124 0.1834,-3.0415 -0.2993,-1.5595 -1.3828,-2.4644 -2.9688,-2.4803 -1.1211,-0.011 -2.167,0.3159 -3.1682,0.7725 -0.8132,0.3698 -1.5842,0.8278 -2.3867,1.222 -0.1858,0.092 -0.4331,0.14 -0.6301,0.1044 -0.8616,-0.1555 -1.7158,-0.3531 -2.6758,-0.5556 z"
       id="path4660" />
    <path
       style="fill:#ff0000;fill-rule:evenodd;stroke:none"
       d="m 1030.5372,-83.8485 c -1.7321,-4.5615 -1.2299,-9.3879 2.4412,-13.5763 3.6165,-4.1286 8.2654,-5.4371 13.5925,-4.1114 2.5266,0.628 4.6367,2.01 6.3848,3.9405 0.2332,0.256 0.2544,0.4504 0.1064,0.7586 -1.9465,4.0134 -4.5039,7.6114 -7.4272,10.9607 -2.6406,3.03 -5.5273,5.7968 -8.835,8.103 -0.7339,0.5127 -0.729,0.5234 -1.4741,0 -2.0212,-1.415 -3.5134,-3.2647 -4.7912,-6.0765 z"
       id="path4662" />
    <path
       style="fill:#ff0000;fill-rule:evenodd;stroke:none"
       d="m 1056.1552,-90.7883 c 1.5683,7.931 -5.1468,15.7291 -13.2505,15.41 2.2837,-2.4705 4.6635,-4.9062 6.8794,-7.4859 2.2212,-2.5821 4.2754,-5.307 6.3711,-7.9241 z"
       id="path4664" />
  </g>
</svg>
