<?xml version="1.0" encoding="UTF-8" standalone="no"?>
<!-- Created with Inkscape (http://www.inkscape.org/) -->

<svg
   width="2176.6892mm"
   height="310.18909mm"
   viewBox="0 0 2176.6892 310.18909"
   version="1.1"
   id="svg6992"
   inkscape:version="1.2.1 (9c6d41e410, 2022-07-14)"
   sodipodi:docname="pochoires_3.svg"
   xmlns:inkscape="http://www.inkscape.org/namespaces/inkscape"
   xmlns:sodipodi="http://sodipodi.sourceforge.net/DTD/sodipodi-0.dtd"
   xmlns="http://www.w3.org/2000/svg"
   xmlns:svg="http://www.w3.org/2000/svg">
  <sodipodi:namedview
     id="namedview6994"
     pagecolor="#ffffff"
     bordercolor="#000000"
     borderopacity="0.25"
     inkscape:showpageshadow="2"
     inkscape:pageopacity="0.0"
     inkscape:pagecheckerboard="0"
     inkscape:deskcolor="#d1d1d1"
     inkscape:document-units="mm"
     showgrid="false"
     inkscape:zoom="0.71624579"
     inkscape:cx="3627.2464"
     inkscape:cy="702.97097"
     inkscape:window-width="1920"
     inkscape:window-height="991"
     inkscape:window-x="-9"
     inkscape:window-y="-9"
     inkscape:window-maximized="1"
     inkscape:current-layer="layer1" />
  <defs
     id="defs6989" />
  <g
     inkscape:label="Calque 1"
     inkscape:groupmode="layer"
     id="layer1"
     transform="translate(897.36316,37.25495)">
    <rect
       style="fill:none;stroke:#000000;stroke-width:0.05mm"
       x="-897.26868"
       y="-37.160461"
       width="310.00012"
       height="310.00012"
       id="rect1410" />
    <rect
       style="fill:none;stroke:#000000;stroke-width:0.05mm"
       x="-582.26868"
       y="-37.160461"
       width="310.00012"
       height="310.00012"
       id="rect1412" />
    <rect
       style="fill:none;stroke:#000000;stroke-width:0.05mm"
       x="-267.26865"
       y="-37.160461"
       width="310.00012"
       height="310.00012"
       id="rect1414" />
    <rect
       style="fill:none;stroke:#000000;stroke-width:0.05mm"
       x="47.731339"
       y="-37.160461"
       width="310.00012"
       height="310.00012"
       id="rect1416" />
    <rect
       style="fill:none;stroke:#000000;stroke-width:0.05mm"
       x="362.73135"
       y="-37.160461"
       width="310.00012"
       height="310.00012"
       id="rect1418" />
    <rect
       style="fill:none;stroke:#000000;stroke-width:0.05mm"
       x="677.73132"
       y="-37.160461"
       width="310.00012"
       height="310.00012"
       id="rect1420" />
    <path
       style="fill:none;stroke:#000000;stroke-width:0.37525mm"
       d="m -9.3710231,154.73722 c 0,23.98726 0.03002,47.94795 0,71.93468 -0.03002,14.74755 -6.1424669,20.96904 -20.8100889,21.10143 -7.704483,0.0796 -15.409041,0.0796 -23.113599,0 -14.164562,-0.1591 -20.121656,-6.03642 -20.148148,-20.09546 -0.05254,-39.15801 0,-78.31603 -0.03002,-117.47404 0,-20.492628 -8.869484,-29.282559 -29.414801,-29.309127 -8.12821,0 -16.28269,0.132088 -24.41091,-0.03002 -4.55381,-0.106571 -6.53956,1.615151 -5.87761,6.248513 0.63567,4.580226 1.05903,9.160453 1.58858,13.767244 0.60865,5.48083 -1.00612,10.11419 -5.79821,13.0527 -5.05702,3.07089 -10.40509,2.72687 -14.77367,-1.05903 -19.77748,-17.129489 -39.4757,-34.365697 -58.9884,-51.840114 -5.56001,-4.97694 -5.53344,-13.211201 0.0525,-18.241653 19.48629,-17.447849 39.23742,-34.6570389 58.96199,-51.8401117 4.23619,-3.7062693 9.37254,-4.0241813 14.16463,-1.4296273 5.10986,2.7534343 7.14859,7.5191843 6.46008,13.3439649 -0.5291,4.3681352 -0.97955,8.7371711 -1.61492,13.0788131 -0.76784,5.16284 1.16492,7.0162 6.51306,6.936947 18.69195,-0.264927 37.410473,-0.132088 56.102576,-0.07955 35.133682,0.07955 60.788924,25.390766 61.1331033,60.65616 0.238659,23.749041 0.052535,47.524131 0.052535,71.273181 z"
       id="path1422" />
    <path
       style="fill:none;stroke:#000000;stroke-width:0.398383mm"
       d="m 191.08591,47.124889 c -12.3678,14.953466 -24.70732,29.906931 -38.19896,46.237606 h 179.83599 c 0,10.427915 0,20.153555 0,29.850995 0,12.16112 -6.10897,18.24188 -18.3265,18.24188 -50.45393,0 -100.90826,0 -151.33399,0 -2.69848,0 -5.39705,0 -10.23143,0 13.63219,16.49943 25.85888,31.2847 38.05841,46.06941 -0.19681,0.64618 -0.42149,1.29307 -0.6183,1.93933 -5.64946,0 -11.43996,-0.75932 -16.94928,0.14103 -20.63114,3.37294 -35.69695,-4.13171 -49.07672,-20.04122 C 110.47247,153.17723 94.17,138.92604 78.991369,123.69195 c -1.939408,-1.93941 -3.766472,-3.99156 -6.268078,-6.63371 14.869326,-14.70058 29.288879,-28.923645 43.651939,-43.20209 8.29155,-8.236091 16.44302,-16.584047 24.81918,-24.707316 1.74293,-1.686514 4.18812,-3.654128 6.35262,-3.682333 14.19486,-0.337032 28.38917,-0.168915 42.61224,-0.168915 0.30835,0.618291 0.61829,1.236661 0.89915,1.85527 z"
       id="path1424" />
    <path
       style="fill:none;stroke:#000000;stroke-width:0.447685mm"
       d="m 876.07393,247.32505 c -2.21108,-2.5587 -4.13786,-4.61134 -5.87515,-6.82245 -14.68779,-18.47847 -29.5651,-36.79899 -43.84227,-55.59281 -2.87441,-3.78992 -4.4853,-9.31767 -4.7696,-14.15088 -0.6949,-11.49753 -0.22107,-23.02632 -0.22107,-33.51298 11.4028,10.32872 23.18461,20.97324 35.69295,32.31292 0.3791,-2.08487 0.75811,-3.25324 0.75811,-4.42214 0.0636,-32.53426 0.31589,-65.06851 0,-97.602676 -0.18955,-21.415907 -15.76174,-39.325456 -36.04038,-42.57932 -21.98432,-3.505732 -42.642,8.654826 -49.3068,29.881004 -1.92678,6.096664 -2.08472,12.919025 -2.11629,19.394431 -0.15795,53.002501 -0.0636,106.004911 -0.12634,159.006881 0,16.77287 1.83203,14.24596 -14.81416,14.46667 -4.73799,0.0627 -9.47599,-0.28383 -14.15083,0.0949 -5.4329,0.41008 -7.58079,-1.51595 -7.35967,-7.10709 0.3474,-7.86511 0.0947,-15.73022 0.0947,-23.59524 0,-48.54857 0.50535,-97.09715 -0.15794,-145.614649 -0.60017,-44.379372 31.01809,-74.6390278 64.46838,-81.998701 45.20053,-9.918192 94.00192,25.932691 95.4865,72.238989 1.04236,32.754963 0.37909,65.573941 0.44222,98.392301 0,2.7795 0,5.52774 0,8.78107 12.12928,-11.46593 23.40574,-22.11053 36.57736,-34.52403 0,7.012 -0.66329,12.3501 0.12633,17.4675 2.90601,19.29925 -3.44292,34.71359 -16.67772,48.92785 -12.82419,13.77151 -23.75317,29.31209 -35.535,44.09465 -0.47383,0.5999 -1.13714,1.07381 -2.71646,2.52691 z"
       id="path1426" />
    <path
       style="fill:none;stroke:#000000;stroke-width:0.337798mm"
       d="m -837.45369,226.01666 c -9.3189,0 -18.61396,-0.1189 -27.93289,0.0473 -5.10037,0.0953 -7.24539,-1.95456 -6.86404,-7.10234 0.28604,-3.93223 0.23835,-7.93696 0,-11.86914 -0.28598,-4.64762 1.78751,-6.45863 6.26822,-6.4112 11.29708,0.0959 22.59418,-0.16687 33.86743,0.0959 5.10036,0.11891 7.05473,-1.47786 6.91172,-6.7692 -0.30983,-11.27326 0.0715,-22.57004 -0.14295,-33.86722 -0.11918,-5.6719 2.21651,-7.74598 7.79353,-7.6264 11.08261,0.23849 22.18903,-0.0716 33.27163,0.11891 4.67138,0.0953 6.26823,-1.76365 6.19674,-6.31561 -0.19066,-11.67815 0.0715,-23.38109 -0.11918,-35.05931 -0.0953,-5.07602 1.83517,-7.12585 6.98319,-7.03059 11.48777,0.21484 22.97553,-0.0953 34.4633,0.14323 4.71902,0.0959 6.24436,-1.76365 6.17287,-6.291626 -0.19066,-11.297181 0.0953,-22.570446 -0.11918,-33.867627 -0.0953,-5.29093 1.85901,-7.531207 7.31692,-7.412437 10.48673,0.238485 20.99732,0.07161 31.48408,0.07161 5.79951,0 8.69925,-3.003159 8.69925,-9.009072 0,-10.486466 0.14295,-20.997727 -0.048,-31.48426 -0.0953,-4.790246 1.64451,-6.7926453 6.57803,-6.7448131 19.20984,0.1432264 38.41963,0.1432264 57.62946,0 4.67143,-0.027024 7.1024,1.4061181 6.76875,6.4586981 -0.2622,4.147011 -0.2145,8.317938 0,12.464949 0.2145,4.409277 -1.81136,6.005913 -6.00605,5.981929 -11.29713,-0.09526 -22.59421,0.166872 -33.86748,-0.09526 -5.24335,-0.118905 -6.91172,1.835324 -6.76868,6.983163 0.28598,11.273265 -0.048,22.569973 0.14295,33.867155 0.0715,4.838145 -1.83521,6.840544 -6.64952,6.769201 -11.48779,-0.143226 -22.97553,0.143227 -34.46332,-0.11958 -4.93355,-0.118905 -6.67339,1.739727 -6.57803,6.578211 0.2145,11.082341 0.0715,22.189009 0.048,33.271419 0,7.69814 -0.50054,8.19876 -8.00806,8.22268 -10.48673,0.0203 -21.02117,0.35739 -31.48412,-0.11958 -6.22055,-0.28646 -7.8174,2.00233 -7.57903,7.86515 0.40515,10.86838 -0.048,21.78372 0.16687,32.67594 0.11917,5.36221 -2.02586,7.53121 -7.34073,7.43636 -11.08258,-0.16688 -22.189,0.16687 -33.27163,-0.11958 -5.33871,-0.14323 -7.45987,1.57312 -7.31689,7.12625 0.30983,11.48811 -0.048,22.97533 0.14303,34.4635 0.0953,4.88591 -1.90671,6.79265 -6.67341,6.7209 -9.89092,-0.14323 -19.80564,-0.0473 -29.72042,-0.0473 z"
       id="path1428" />
    <path
       style="fill:none;stroke:#000000;stroke-width:0.52759mm"
       d="m -414.91023,54.328867 c 0,-8.971352 -0.52126,-17.979423 0.0739,-26.913421 2.38228,-35.698006 -12.95402,-40.946893 -41.17038,-39.345763 -15.11345,0.855751 -25.16351,10.8325831 -25.61048,26.168886 -0.18572,7.110119 -0.81882,14.330927 0.0739,21.329619 4.42964,34.543956 -3.23824,65.254552 -27.21098,91.274022 -0.81882,0.89374 -1.63775,1.97329 -2.01065,3.08935 -1.48896,4.65314 -3.87124,9.34362 -3.94595,14.03411 -0.37248,26.28031 -0.40941,52.56063 -0.0739,78.84094 0.18676,14.48044 10.1254,24.08417 24.64257,24.86605 4.61578,0.26063 9.2688,0.14984 13.92194,0.0739 17.6445,-0.26063 27.50917,-9.90202 27.80673,-27.65785 0.26063,-14.21961 0.67004,-28.47657 -0.14878,-42.65872 -0.78189,-13.54977 1.8606,-25.57313 10.01271,-36.51788 19.17093,-25.72191 29.96616,-53.863453 23.60058,-86.583424 z"
       id="path1430" />
    <path
       style="fill:none;stroke:#000000;stroke-width:0.52759mm"
       d="m -339.60562,118.28048 c 0,-33.687996 0.0739,-67.338636 0,-101.027262 -0.0422,-19.6171679 -9.45505,-29.034755 -28.81138,-29.146182 -2.45698,0 -4.95069,0 -7.40768,0 -20.65989,0.07386 -30.26361,9.4175871 -30.37567,29.853997 -0.11185,22.557849 -0.0422,45.115698 -0.0422,67.674075 0,44.482592 -0.11185,88.966442 0.0739,133.449032 0.0739,18.79856 10.0507,28.43974 28.7373,28.6626 2.7918,0 5.54634,0 8.33824,0 20.32435,-0.11185 29.48184,-9.15685 29.51909,-29.36978 0.0739,-33.35308 0,-66.7434 0,-100.09648 z"
       id="path1432" />
    <path
       style="fill:none;stroke:#000000;stroke-width:0.333296mm"
       d="m 433.63902,166.72113 c 3.38636,-3.19785 5.94954,-6.0434 8.93608,-8.37187 3.64493,-2.84516 7.05475,-3.05713 8.81842,2.25768 0.30597,0.94063 0.96416,1.78727 1.12881,2.75156 2.79836,15.63787 5.76143,31.22902 8.20703,46.91415 1.24633,7.97192 -1.74021,10.18194 -9.57101,9.12413 -13.54517,-1.81087 -27.1374,-3.22185 -40.70604,-4.8208 -1.19933,-0.14132 -2.53971,0 -3.5744,-0.44662 -3.31577,-1.48177 -6.53741,-3.17472 -9.80618,-4.79767 1.69321,-2.79789 2.82195,-6.32537 5.22055,-8.23029 5.31462,-4.20974 5.17356,-7.92513 1.34039,-13.05149 -15.07367,-20.10645 -19.40059,-43.64591 -19.40059,-67.86684 0,-14.7681 2.42213,-29.630122 9.12419,-43.293146 1.03469,-2.116499 0.89364,-5.056041 2.32801,-6.72539 2.79842,-3.245041 5.87902,-6.96043 9.6416,-8.53619 9.00654,-3.786248 15.9673,1.552096 22.08143,7.313192 5.57331,5.243954 4.63269,11.64058 2.56325,18.507088 -3.22165,10.699884 -6.9607,21.540616 -7.92479,32.546066 -1.41098,16.2966 4.20933,31.48779 11.64038,46.70258 z"
       id="path1434" />
    <path
       style="fill:none;stroke:#000000;stroke-width:0.333296mm"
       d="m 487.48264,36.215513 c 2.09297,2.657173 4.18587,4.679682 5.43227,7.125279 1.10521,2.163627 2.3986,5.409135 1.52843,7.102082 -0.87004,1.669282 -4.30326,2.727965 -6.65493,2.77476 -14.88549,0.329297 -29.77111,0.376625 -44.65667,0.399955 -11.61691,0.02666 -11.61691,-0.02666 -10.34699,-12.110461 1.64615,-15.543949 3.22171,-31.111429 5.05591,-46.6557775 0.16465,-1.4577722 1.8578,-3.7154561 3.03353,-3.8330431 2.13997,-0.2353073 4.96185,0.1879792 6.53741,1.504967 3.52741,2.9395418 6.20832,6.89050522 9.73566,9.830047 1.52857,1.269793 4.63262,2.0457073 6.44336,1.4105775 19.49471,-6.8193131 38.89536,-11.8048954 60.15368,-9.5472783 18.48349,1.9517177 34.99167,7.7132143 51.00603,16.5785674 21.54062,11.92255 36.23806,30.053679 48.01949,51.005964 2.96308,5.243954 0.37663,13.757013 -5.45559,18.248316 -10.67636,8.230691 -24.48016,5.479128 -30.92352,-6.372629 -12.18119,-22.410856 -31.74649,-35.391622 -55.82676,-40.400402 -11.8285,-2.445596 -24.64468,-0.352627 -37.01405,0 -1.92825,0.04666 -3.78598,1.787336 -6.09059,2.939542 z"
       id="path1436" />
    <path
       style="fill:none;stroke:#000000;stroke-width:0.333296mm"
       d="m 592.50484,152.82333 c -3.88011,0 -6.49049,0.25864 -9.07713,-0.0467 -5.12644,-0.61126 -7.59563,-4.98518 -4.75015,-9.17132 9.57095,-14.10937 19.25954,-28.19555 29.39482,-41.90537 4.51517,-6.113855 7.31346,-5.502323 12.27538,0.72952 9.38276,11.8049 18.97737,23.44508 28.12502,35.43835 1.8342,2.3984 3.3393,6.46655 2.53972,9.00614 -0.58793,1.85813 -5.10303,2.75163 -7.99545,3.50388 -2.09297,0.54127 -4.53856,-0.3293 -6.58447,0.25864 -1.7872,0.51727 -4.16221,1.85766 -4.67968,3.38622 -5.22042,15.28518 -11.28755,30.17087 -21.30531,43.01078 -9.61807,12.32211 -20.92916,22.76322 -34.66251,30.52356 -19.07136,10.74675 -39.08341,18.31871 -61.32949,17.00173 -11.73443,-0.70546 -23.46887,-2.37481 -35.03866,-4.44451 -6.96069,-1.2462 -11.35814,-12.86312 -7.8308,-20.34116 5.90255,-12.58081 7.76021,-17.30762 26.40835,-14.13297 24.95038,4.25653 48.13721,-0.21131 68.19626,-17.58999 9.80612,-8.48906 17.19017,-18.3659 23.51594,-29.34775 0.8701,-1.50497 1.5285,-3.15112 2.82189,-5.87909 z"
       id="path1438" />
    <rect
       style="fill:none;stroke:#000000;stroke-width:0.05mm"
       x="1119.2314"
       y="53.296936"
       width="160"
       height="121.08533"
       id="rect2518" />
    <path
       style="fill:#ff0000;fill-rule:evenodd;stroke:none"
       d="m 1221.4909,61.8474 c 0.5518,0.031 1.0259,0.4028 1.1868,0.9314 0.08,0.3027 0.1128,0.6157 0.097,0.9285 h -2.5039 l 0.035,0.2644 c 0.067,0.458 0.4333,0.8142 0.893,0.8686 0.5015,0.057 1.0081,-0.044 1.4492,-0.2893 v 0.5152 c -0.5554,0.2526 -1.1779,0.3191 -1.7741,0.1897 -0.6697,-0.1692 -1.1455,-0.7637 -1.1638,-1.4544 -0.071,-0.5329 0.086,-1.0715 0.4323,-1.4831 0.3506,-0.3599 0.8499,-0.5342 1.3484,-0.471 z m -0.3735,0.4705 -0.1936,0.048 c -0.3804,0.1463 -0.6326,0.511 -0.6345,0.9187 h 1.9411 c 0.028,-0.385 -0.1845,-0.7478 -0.5337,-0.9126 -0.1855,-0.067 -0.385,-0.084 -0.5793,-0.05 z"
       id="path4666" />
    <path
       style="fill:#ff0000;fill-rule:evenodd;stroke:none"
       d="m 1215.0725,61.8464 c 0.4292,-0.01 0.8313,0.2115 1.0559,0.5772 0.1443,0.2844 0.2131,0.6013 0.1997,0.9199 v 1.8911 h -0.5445 v -0.5029 l -0.099,0.1409 c -0.2571,0.3083 -0.6462,0.4748 -1.0469,0.4482 -0.3688,0.027 -0.7253,-0.1406 -0.9406,-0.4412 -0.2432,-0.4018 -0.2271,-0.9082 0.041,-1.2934 0.1645,-0.1887 0.3855,-0.3194 0.6304,-0.3723 0.2131,-0.05 0.4313,-0.074 0.6503,-0.071 h 0.7644 c 0.043,-0.3623 -0.1906,-0.7004 -0.5444,-0.7895 -0.5,-0.1099 -1.0227,-0.031 -1.468,0.2214 v -0.5039 c 0.4114,-0.1719 0.8562,-0.2485 1.3013,-0.2244 z m 0.1694,1.7224 -0.3047,0.01 c -0.2117,0 -0.4209,0.047 -0.6101,0.1411 -0.2436,0.177 -0.3298,0.5 -0.2068,0.7749 0.1216,0.2497 0.386,0.3972 0.6624,0.3699 0.4333,0.01 0.8183,-0.2767 0.9323,-0.6949 0.052,-0.1958 0.076,-0.3979 0.069,-0.6006 z"
       id="path4668" />
    <path
       style="fill:#ff0000;fill-rule:evenodd;stroke:none"
       d="m 1204.4038,61.8474 c 0.5517,0.031 1.0258,0.4028 1.1867,0.9314 0.08,0.3027 0.1128,0.6157 0.097,0.9285 h -2.5036 l 0.035,0.2644 c 0.067,0.458 0.4334,0.8144 0.8931,0.8686 0.5015,0.057 1.0078,-0.044 1.449,-0.2893 v 0.5152 c -0.5554,0.2524 -1.1777,0.3191 -1.7739,0.1897 -0.67,-0.169 -1.1458,-0.7637 -1.1639,-1.4544 -0.071,-0.5329 0.086,-1.0715 0.4322,-1.4831 0.3508,-0.3599 0.8498,-0.5342 1.3484,-0.471 z m -0.3736,0.4705 -0.1936,0.048 c -0.3803,0.1465 -0.6323,0.5112 -0.6345,0.9187 h 1.9414 c 0.027,-0.3852 -0.1848,-0.7478 -0.5339,-0.9126 -0.1856,-0.067 -0.385,-0.084 -0.5794,-0.05 z"
       id="path4670" />
    <path
       style="fill:#ff0000;fill-rule:evenodd;stroke:none"
       d="m 1201.7316,65.2346 h -0.5446 v -0.4971 l -0.091,0.1382 c -0.4039,0.4834 -1.1016,0.5935 -1.6346,0.2578 -0.2929,-0.2031 -0.5046,-0.5031 -0.5974,-0.8474 -0.1665,-0.5649 -0.1247,-1.1711 0.1179,-1.7077 0.2845,-0.6172 1.0022,-0.9055 1.6346,-0.657 0.2436,0.094 0.446,0.2722 0.5708,0.5017 v -1.7935 h 0.5446 z m -1.6779,-2.917 -0.1812,0.064 c -0.2475,0.1418 -0.4219,0.3833 -0.4787,0.6628 -0.1102,0.4278 -0.083,0.8794 0.077,1.291 0.1558,0.3943 0.5808,0.6119 0.9917,0.5076 0.3406,-0.098 0.5969,-0.3786 0.6624,-0.727 0.1108,-0.4278 0.084,-0.8794 -0.078,-1.2908 -0.157,-0.3943 -0.5823,-0.6116 -0.9936,-0.5076 z"
       id="path4672" />
    <path
       style="fill:#ff0000;fill-rule:evenodd;stroke:none"
       d="m 1164.6335,60.7432 0.2078,0.02 c 0.3967,0.048 0.7783,0.1826 1.1176,0.3938 v 0.6365 c -0.6399,-0.574 -1.5542,-0.7256 -2.3449,-0.3887 -0.3843,0.2068 -0.6482,0.5835 -0.7115,1.0151 -0.1294,0.5711 -0.069,1.169 0.1717,1.7029 0.2461,0.4309 0.7036,0.6975 1.1997,0.6995 0.4153,0.05 0.8362,-0.027 1.2077,-0.2183 v -1.1865 h -0.9763 V 62.926 h 1.5681 v 1.8977 c -0.8183,0.5569 -1.8642,0.6553 -2.7719,0.2605 -0.5855,-0.3076 -0.9793,-0.8864 -1.0503,-1.5439 -0.115,-0.6372 -0.012,-1.2947 0.2925,-1.8662 0.3527,-0.5608 0.9621,-0.909 1.6245,-0.928 0.1548,-0.012 0.3103,-0.013 0.4653,0 z"
       id="path4674" />
    <path
       style="fill:#ff0000;fill-rule:evenodd;stroke:none"
       d="m 1191.2363,63.906 c -0.018,0.249 0.047,0.4971 0.1833,0.7061 0.135,0.1623 0.3399,0.25 0.5506,0.2353 0.4807,0.022 0.894,-0.3389 0.9367,-0.8183 l 0.016,-0.23 v -1.8789 h 0.5444 v 3.3144 h -0.5444 v -0.5095 l -0.1028,0.1414 c -0.2942,0.3686 -0.7737,0.5366 -1.2336,0.4321 -0.405,-0.066 -0.7295,-0.3704 -0.8206,-0.7703 -0.052,-0.196 -0.077,-0.3987 -0.074,-0.6015 v -2.0066 h 0.5445 z"
       id="path4676" />
    <path
       style="fill:#ff0000;fill-rule:evenodd;stroke:none"
       d="m 1188.5705,61.8474 0.1541,0.02 c 0.4895,0.082 0.8899,0.4358 1.0327,0.9111 0.08,0.3027 0.1128,0.6157 0.097,0.9285 h -2.5037 l 0.035,0.2644 c 0.067,0.458 0.4333,0.8144 0.8931,0.8686 0.5014,0.057 1.0078,-0.044 1.4489,-0.2893 v 0.5152 c -0.5554,0.2524 -1.1777,0.3191 -1.7739,0.1897 -0.6699,-0.169 -1.1457,-0.7637 -1.1638,-1.4544 -0.071,-0.5329 0.086,-1.0715 0.4321,-1.4831 0.3509,-0.3599 0.8499,-0.5342 1.3484,-0.471 z m -0.3735,0.4705 c -0.3968,0.053 -0.7156,0.3532 -0.7927,0.7461 l -0.035,0.2209 h 1.9414 c 0.027,-0.3852 -0.1849,-0.7478 -0.534,-0.9126 -0.1855,-0.067 -0.385,-0.084 -0.5793,-0.05 z"
       id="path4678" />
    <path
       style="fill:#ff0000;fill-rule:evenodd;stroke:none"
       d="m 1182.2675,61.8464 0.1629,0.018 c 0.5866,0.056 1.0439,0.5361 1.0708,1.1248 0.015,0.1176 0.023,0.2361 0.022,0.3547 v 1.8911 h -0.5447 v -0.5029 l -0.099,0.1409 c -0.257,0.3083 -0.6462,0.4748 -1.0468,0.4482 -0.3689,0.027 -0.7254,-0.1406 -0.9407,-0.4412 -0.2432,-0.4018 -0.2271,-0.9082 0.042,-1.2934 0.1645,-0.1887 0.3855,-0.3194 0.6304,-0.3723 0.2131,-0.05 0.4314,-0.074 0.6504,-0.071 h 0.7641 c 0.043,-0.3623 -0.1904,-0.7007 -0.5442,-0.7895 -0.5,-0.1099 -1.0227,-0.031 -1.468,0.2214 v -0.5039 c 0.4111,-0.1719 0.856,-0.2485 1.301,-0.2244 z m 0.1697,1.7224 c -0.3125,-0.024 -0.6265,0.028 -0.9148,0.1507 -0.2077,0.147 -0.3039,0.4055 -0.2429,0.6526 0.075,0.3171 0.3745,0.5285 0.6982,0.4922 0.4336,0.01 0.8186,-0.2767 0.9327,-0.6949 0.052,-0.1958 0.075,-0.3982 0.068,-0.6006 z"
       id="path4680" />
    <path
       style="fill:#ff0000;fill-rule:evenodd;stroke:none"
       d="m 1228.5864,61.8474 c 0.5517,0.031 1.0259,0.4028 1.187,0.9314 0.08,0.3027 0.1125,0.6157 0.097,0.9285 h -2.5037 l 0.035,0.2644 c 0.067,0.458 0.4333,0.8144 0.893,0.8686 0.5015,0.057 1.0078,-0.044 1.449,-0.2893 v 0.5152 c -0.5554,0.2524 -1.1777,0.3191 -1.7739,0.1897 -0.6699,-0.1692 -1.1458,-0.7637 -1.1638,-1.4544 -0.071,-0.5329 0.086,-1.0715 0.4321,-1.4831 0.3508,-0.3599 0.8498,-0.5342 1.3484,-0.471 z m -0.3736,0.4705 -0.1936,0.048 c -0.3803,0.1465 -0.6323,0.5112 -0.6345,0.9187 h 1.9414 c 0.027,-0.3852 -0.1848,-0.7478 -0.5339,-0.9126 -0.1856,-0.067 -0.385,-0.084 -0.5794,-0.05 z"
       id="path4682" />
    <path
       style="fill:#ff0000;fill-rule:evenodd;stroke:none"
       d="m 1176.2619,61.8474 0.1541,0.02 c 0.4895,0.082 0.8899,0.4358 1.0327,0.9111 0.08,0.3027 0.1128,0.6157 0.097,0.9285 h -2.5039 l 0.035,0.2644 c 0.067,0.458 0.4333,0.8142 0.893,0.8686 0.5015,0.057 1.0081,-0.044 1.4492,-0.2893 v 0.5152 c -0.5554,0.2526 -1.1779,0.3191 -1.7741,0.1897 -0.6699,-0.1692 -1.1455,-0.7637 -1.1636,-1.4544 -0.071,-0.5329 0.086,-1.0715 0.4321,-1.4831 0.3506,-0.3599 0.8499,-0.5342 1.3484,-0.471 z m -0.3735,0.4705 c -0.3967,0.053 -0.7156,0.3532 -0.7927,0.7461 l -0.035,0.2209 h 1.9411 c 0.028,-0.385 -0.1846,-0.7478 -0.5337,-0.9126 -0.1855,-0.067 -0.385,-0.084 -0.5793,-0.05 z"
       id="path4684" />
    <path
       style="fill:#ff0000;fill-rule:evenodd;stroke:none"
       d="m 1232.1101,61.8518 c 0.2624,0.016 0.5207,0.072 0.7661,0.166 v 0.5152 l -0.2346,-0.1036 c -0.4007,-0.1538 -0.8396,-0.176 -1.2537,-0.063 -0.2241,0.062 -0.3599,0.2905 -0.3074,0.5171 0.051,0.1621 0.1868,0.2827 0.354,0.3129 0.2713,0.078 0.5449,0.1482 0.8203,0.2103 l 0.2271,0.081 c 0.4321,0.15 0.6733,0.6109 0.5495,1.0513 -0.069,0.2849 -0.2712,0.5193 -0.5424,0.6304 -0.5337,0.1919 -1.1153,0.2041 -1.6563,0.035 l -0.3115,-0.09 v -0.5625 l 0.2998,0.1372 c 0.3823,0.1658 0.8049,0.2156 1.2153,0.1433 0.2066,-0.018 0.3824,-0.1594 0.4453,-0.3569 0.061,-0.2048 -0.038,-0.4236 -0.2331,-0.5117 -0.3189,-0.1211 -0.648,-0.2129 -0.9834,-0.2742 l -0.2002,-0.075 c -0.3301,-0.1218 -0.5415,-0.446 -0.52,-0.7971 -0.015,-0.4431 0.2964,-0.8315 0.7324,-0.9126 0.2729,-0.062 0.5542,-0.079 0.8328,-0.052 z"
       id="path4686" />
    <path
       style="fill:#ff0000;fill-rule:evenodd;stroke:none"
       d="m 1168.6928,61.8474 0.1541,0.02 c 0.4895,0.082 0.8899,0.4358 1.0327,0.9111 0.08,0.3027 0.1128,0.6157 0.097,0.9285 h -2.5039 l 0.035,0.2644 c 0.067,0.458 0.4333,0.8142 0.893,0.8686 0.5015,0.057 1.0081,-0.044 1.4493,-0.2893 v 0.5152 c -0.5555,0.2526 -1.178,0.3191 -1.7742,0.1897 -0.6699,-0.1692 -1.1455,-0.7637 -1.1636,-1.4544 -0.071,-0.5329 0.086,-1.0715 0.4321,-1.4831 0.3506,-0.3599 0.8499,-0.5342 1.3484,-0.471 z m -0.3735,0.4705 c -0.3967,0.053 -0.7156,0.3532 -0.7927,0.7461 l -0.035,0.2209 h 1.9411 c 0.028,-0.385 -0.1845,-0.7478 -0.5337,-0.9126 -0.1855,-0.067 -0.385,-0.084 -0.5793,-0.05 z"
       id="path4688" />
    <path
       style="fill:#ff0000;fill-rule:evenodd;stroke:none"
       d="m 1219.1503,61.8425 c 0.072,0 0.1443,0.014 0.2156,0.028 v 0.5586 c -0.4478,-0.2405 -1.0049,-0.079 -1.2549,0.3635 -0.098,0.2188 -0.146,0.4566 -0.1392,0.6963 v 1.7461 h -0.5474 v -3.3144 h 0.5474 v 0.5151 l 0.093,-0.1411 c 0.2603,-0.3254 0.6687,-0.4956 1.083,-0.4517 z"
       id="path4690" />
    <path
       style="fill:#ff0000;fill-rule:evenodd;stroke:none"
       d="m 1196.2905,61.8425 0.065,0.01 c 0.05,0.01 0.1006,0.013 0.1504,0.022 v 0.5586 c -0.4478,-0.2405 -1.0049,-0.079 -1.2549,0.3635 -0.098,0.2188 -0.1455,0.4566 -0.1389,0.6963 v 1.7461 h -0.5474 v -3.3144 h 0.5474 v 0.5151 l 0.092,-0.1411 c 0.2603,-0.3254 0.6685,-0.4956 1.0828,-0.4517 z"
       id="path4692" />
    <path
       style="fill:#ff0000;fill-rule:evenodd;stroke:none"
       d="m 1225.8962,65.2346 h -0.5444 v -4.605 h 0.5444 z"
       id="path4694" />
    <path
       style="fill:#ff0000;fill-rule:evenodd;stroke:none"
       d="m 1224.2126,65.2346 h -0.5447 v -4.605 h 0.5447 z"
       id="path4696" />
    <path
       style="fill:#ff0000;fill-rule:evenodd;stroke:none"
       d="m 1172.7365,61.8628 0.2334,0.066 c 0.2954,0.1269 0.512,0.3877 0.5825,0.7014 0.052,0.1967 0.077,0.3999 0.073,0.6032 v 2.001 h -0.5447 v -1.9829 c 0.018,-0.2485 -0.046,-0.4961 -0.1836,-0.7041 -0.1357,-0.1611 -0.3401,-0.2478 -0.5503,-0.2334 -0.4802,-0.023 -0.893,0.3381 -0.9348,0.8171 l -0.016,0.2303 v 1.873 h -0.5473 V 61.92 h 0.5473 v 0.5151 l 0.1023,-0.1401 c 0.2964,-0.368 0.7766,-0.5359 1.2378,-0.4324 z"
       id="path4698" />
    <path
       style="fill:#ff0000;fill-rule:evenodd;stroke:none"
       d="m 1185.1823,61.9202 h 1.1214 v 0.4233 h -1.1214 v 1.7993 c -0.022,0.1812 0.017,0.3643 0.1109,0.5208 0.1306,0.094 0.292,0.1352 0.4516,0.1155 h 0.5589 v 0.4555 c -0.2832,0.01 -0.5669,0 -0.8496,-0.015 -0.2129,0 -0.418,-0.082 -0.5794,-0.2207 -0.134,-0.1612 -0.2126,-0.3609 -0.2246,-0.5701 l -0.015,-0.2864 v -1.7993 h -0.3997 v -0.4233 h 0.3997 v -0.9412 h 0.5473 z"
       id="path4700" />
    <path
       style="fill:#ff0000;fill-rule:evenodd;stroke:none"
       d="m 1180.1411,61.8425 0.065,0.01 c 0.05,0.01 0.1008,0.013 0.1506,0.022 v 0.5586 c -0.448,-0.2405 -1.0052,-0.079 -1.2552,0.3635 -0.098,0.2188 -0.1455,0.4566 -0.1389,0.6963 v 1.7461 h -0.5473 v -3.3144 h 0.5473 v 0.5151 l 0.093,-0.1411 c 0.2602,-0.3254 0.6687,-0.4956 1.083,-0.4517 z"
       id="path4702" />
    <path
       style="fill:#ff0000;fill-rule:evenodd;stroke:none"
       d="m 1210.5488,63.8228 1.1335,-3.0066 h 0.8911 v 4.4184 h -0.5835 V 61.355 l -1.1391,3.0303 h -0.6004 l -1.1391,-3.0303 v 3.8796 h -0.5806 v -4.4184 h 0.8911 z"
       id="path4704" />
    <path
       style="fill:#ff0000;fill-rule:evenodd;stroke:none"
       d="m 1176.102,61.4998 h -0.4526 l 0.8283,-1.1126 h 0.5891 z"
       id="path4706" />
    <path
       style="fill:#ff0000;fill-rule:evenodd;stroke:none"
       d="m 1168.5329,61.4998 h -0.4526 l 0.8283,-1.1126 h 0.5892 z"
       id="path4708" />
    <path
       style="fill:#ff0000;fill-rule:evenodd;stroke:none"
       d="m 1178.103,76.2422 h -0.8167 v -0.7459 l -0.1369,0.2076 c -0.3455,0.4497 -0.8907,0.6994 -1.4568,0.6674 -0.7398,0 -1.4121,-0.4321 -1.7144,-1.1074 -0.4734,-1.0271 -0.4306,-2.2165 0.115,-3.207 0.4343,-0.7229 1.2964,-1.0708 2.1109,-0.8518 0.4628,0.1025 0.8581,0.4021 1.0822,0.8198 v -2.6904 h 0.8167 z m -2.3677,-4.3997 c -0.52,0.065 -0.9497,0.438 -1.0869,0.9439 -0.2427,0.7417 -0.1931,1.5473 0.1392,2.2534 0.3022,0.5508 0.9643,0.7959 1.5524,0.5749 0.4412,-0.1867 0.7608,-0.5803 0.8531,-1.0505 0.1875,-0.6948 0.1194,-1.4338 -0.1924,-2.0825 -0.2456,-0.4573 -0.7515,-0.7129 -1.2654,-0.6392 z"
       id="path4710" />
    <path
       style="fill:#ff0000;fill-rule:evenodd;stroke:none"
       d="m 1204.9118,71.1621 c 0.9749,0.064 1.7781,0.7913 1.9378,1.7551 0.1596,0.7207 0.1069,1.4722 -0.1521,2.1636 -0.3377,0.8211 -1.1585,1.3391 -2.045,1.2905 -1.0739,0.052 -2.0183,-0.7087 -2.196,-1.7692 -0.1587,-0.721 -0.1062,-1.4722 0.1516,-2.1641 0.3372,-0.8208 1.1587,-1.3377 2.0444,-1.2866 z m -0.4189,0.689 -0.1514,0.024 c -0.4587,0.1174 -0.8225,0.4656 -0.96,0.9187 -0.2497,0.7356 -0.1989,1.5393 0.1416,2.2376 0.3155,0.5524 0.9849,0.7958 1.5813,0.5747 0.4451,-0.1858 0.7701,-0.5787 0.8689,-1.0508 0.1912,-0.6875 0.1211,-1.4212 -0.1965,-2.0601 -0.2524,-0.4607 -0.7639,-0.7173 -1.2839,-0.644 z"
       id="path4712" />
    <path
       style="fill:#ff0000;fill-rule:evenodd;stroke:none"
       d="m 1188.3742,71.1614 0.231,0.03 c 0.8157,0.1462 1.457,0.7797 1.613,1.5935 0.078,0.3833 0.1057,0.7753 0.082,1.1657 h -3.7556 l 0.019,0.2049 c 0.032,0.5171 0.3054,0.9895 0.7385,1.2739 0.3826,0.2065 0.8189,0.2908 1.2508,0.2414 0.5454,-0.038 1.0764,-0.1926 1.5564,-0.4545 v 0.7727 c -0.7544,0.3317 -1.5857,0.4489 -2.4024,0.3388 -1.1245,-0.1548 -1.9729,-1.1008 -2.0044,-2.2356 -0.069,-0.6338 0.057,-1.2739 0.3599,-1.8347 0.4292,-0.7246 1.2258,-1.1511 2.0669,-1.1064 z m -0.5603,0.7058 c -0.595,0.08 -1.0735,0.53 -1.1892,1.1191 l -0.053,0.3311 2.9119,-0.01 c 0.014,-0.3909 -0.1199,-0.7725 -0.375,-1.0689 -0.2495,-0.2683 -0.604,-0.4145 -0.9702,-0.3999 z"
       id="path4714" />
    <path
       style="fill:#ff0000;fill-rule:evenodd;stroke:none"
       d="m 1194.1569,71.1707 0.3636,0.058 c 0.2402,0.052 0.4741,0.1296 0.6975,0.2321 v 0.7642 l -0.347,-0.1675 c -0.5532,-0.2519 -1.1816,-0.2834 -1.7573,-0.089 -0.4795,0.2107 -0.8203,0.6492 -0.9062,1.166 -0.1375,0.5916 -0.072,1.2124 0.1853,1.7625 0.2842,0.5149 0.8408,0.8193 1.4275,0.7807 0.4912,0 0.9731,-0.1352 1.3977,-0.3821 v 0.7557 c -0.7813,0.3715 -1.6765,0.4231 -2.4951,0.1433 -0.7701,-0.3218 -1.305,-1.0362 -1.3968,-1.8658 -0.1291,-0.7177 -0.011,-1.4582 0.3345,-2.1005 0.3982,-0.6394 1.0881,-1.0393 1.8411,-1.0667 0.2182,-0.017 0.4375,-0.014 0.6552,0.01 z"
       id="path4716" />
    <path
       style="fill:#ff0000;fill-rule:evenodd;stroke:none"
       d="m 1197.4453,71.2705 h 1.6819 v 0.635 h -1.6819 v 2.699 c -0.016,0.2263 0.016,0.4538 0.093,0.6672 0.062,0.1294 0.1836,0.2202 0.3252,0.2439 0.1394,0.032 0.2822,0.046 0.425,0.043 h 0.8382 v 0.6834 c -0.4249,0.022 -0.8506,0.015 -1.2745,-0.022 -0.3181,-0.012 -0.6237,-0.1282 -0.8691,-0.331 -0.2056,-0.2388 -0.3242,-0.5401 -0.3369,-0.855 -0.016,-0.1426 -0.023,-0.2862 -0.023,-0.4297 v -2.699 h -0.5993 v -0.635 h 0.5993 v -1.4119 h 0.8211 z"
       id="path4718" />
    <path
       style="fill:#ff0000;fill-rule:evenodd;stroke:none"
       d="m 1225.5361,71.2705 h 1.6816 v 0.635 h -1.6816 v 2.699 c -0.016,0.2266 0.016,0.4538 0.093,0.6672 0.062,0.1294 0.1836,0.2202 0.3252,0.2439 0.1394,0.032 0.2822,0.046 0.425,0.043 h 0.8379 v 0.6834 c -0.4248,0.022 -0.8506,0.015 -1.2744,-0.022 -0.3181,-0.012 -0.6235,-0.1282 -0.8689,-0.331 -0.2055,-0.2388 -0.3242,-0.5401 -0.3369,-0.855 -0.016,-0.1426 -0.023,-0.2862 -0.023,-0.4297 v -2.699 h -0.5993 v -0.635 h 0.5993 v -1.4119 h 0.8211 z"
       id="path4720" />
    <path
       style="fill:#ff0000;fill-rule:evenodd;stroke:none"
       d="m 1223.019,76.2422 h -0.8167 v -4.9717 h 0.8167 z"
       id="path4722" />
    <path
       style="fill:#ff0000;fill-rule:evenodd;stroke:none"
       d="m 1217.7277,73.4141 2.4375,-2.1436 h 1.0428 l -2.6365,2.3254 2.7488,2.6463 h -1.0655 l -2.5271,-2.4275 v 2.4275 h -0.8208 v -6.9077 h 0.8208 z"
       id="path4724" />
    <path
       style="fill:#ff0000;fill-rule:evenodd;stroke:none"
       d="m 1210.8928,71.1597 c 0.685,0.024 1.2683,0.5075 1.4184,1.1762 0.078,0.2952 0.1145,0.5996 0.1099,0.9048 v 3.0015 h -0.8169 v -2.9744 c 0.027,-0.3728 -0.07,-0.7441 -0.2754,-1.0561 -0.2034,-0.242 -0.5102,-0.3721 -0.8254,-0.3501 -0.6013,-0.034 -1.1494,0.3447 -1.3306,0.9192 -0.066,0.2107 -0.099,0.4309 -0.096,0.6518 v 2.8096 h -0.821 v -4.9717 h 0.821 v 0.773 l 0.1534,-0.2105 c 0.3977,-0.5 1.0285,-0.7554 1.6621,-0.6733 z"
       id="path4726" />
    <path
       style="fill:#ff0000;fill-rule:evenodd;stroke:none"
       d="m 1201.0178,76.2422 h -0.8169 v -4.9717 h 0.8169 z"
       id="path4728" />
    <path
       style="fill:#ff0000;fill-rule:evenodd;stroke:none"
       d="m 1184.8632,71.1541 0.098,0.01 c 0.076,0.01 0.1511,0.019 0.2258,0.033 v 0.8381 c -0.5747,-0.3012 -1.279,-0.1804 -1.7202,0.2955 -0.2698,0.3752 -0.4009,0.8327 -0.3708,1.2939 v 2.6194 h -0.8208 v -4.9717 h 0.8208 v 0.773 l 0.1389,-0.2122 c 0.2995,-0.3945 0.757,-0.6382 1.2517,-0.6663 0.1238,-0.013 0.2483,-0.017 0.3725,-0.011 z"
       id="path4730" />
    <path
       style="fill:#ff0000;fill-rule:evenodd;stroke:none"
       d="m 1180.6015,76.2422 h -0.8166 v -4.9717 h 0.8166 z"
       id="path4732" />
    <path
       style="fill:#ff0000;fill-rule:evenodd;stroke:none"
       d="m 1201.0178,70.3701 h -0.8169 v -1.0356 h 0.8169 z"
       id="path4734" />
    <path
       style="fill:#ff0000;fill-rule:evenodd;stroke:none"
       d="m 1180.6015,70.3701 h -0.8166 v -1.0356 h 0.8166 z"
       id="path4736" />
    <path
       style="fill:#ff0000;fill-rule:evenodd;stroke:none"
       d="m 1223.019,70.3701 h -0.8167 v -1.0356 h 0.8167 z"
       id="path4738" />
    <path
       style="fill:#ff0000;fill-rule:evenodd;stroke:none"
       d="m 1157.4296,120.4172 c -0.5246,-0.6069 -0.9816,-1.0937 -1.3938,-1.6184 -3.4841,-4.3835 -7.0131,-8.7292 -10.4001,-13.1875 -0.6816,-0.8991 -1.064,-2.2102 -1.1314,-3.3567 -0.1647,-2.7275 -0.052,-5.4624 -0.052,-7.9499 2.705,2.4502 5.4997,4.9753 8.467,7.6653 0.09,-0.4947 0.1797,-0.772 0.1797,-1.0493 0.015,-7.7176 0.075,-15.4351 0,-23.1529 -0.045,-5.0801 -3.7388,-9.3286 -8.5493,-10.1003 -5.2149,-0.8318 -10.1153,2.053 -11.6963,7.0881 -0.457,1.4463 -0.4946,3.0647 -0.502,4.6006 -0.038,12.5732 -0.015,25.1462 -0.03,37.7192 0,3.9786 0.4346,3.3794 -3.5142,3.4317 -1.124,0.015 -2.2478,-0.067 -3.3567,0.022 -1.2888,0.098 -1.7983,-0.3596 -1.7458,-1.686 0.082,-1.8657 0.022,-3.7314 0.022,-5.5972 0,-11.5163 0.1198,-23.0327 -0.038,-34.542 -0.1424,-10.5273 7.3581,-17.7055 15.2929,-19.4511 10.7224,-2.3531 22.2989,6.1513 22.6509,17.1362 0.2473,7.7698 0.09,15.5552 0.105,23.3401 0,0.6594 0,1.3113 0,2.083 2.8772,-2.72 5.5522,-5.2449 8.6767,-8.1897 0,1.6633 -0.1574,2.9297 0.03,4.1436 0.6892,4.5781 -0.8169,8.2346 -3.9563,11.6064 -3.0423,3.2668 -5.6348,6.9534 -8.4295,10.46 -0.1125,0.1423 -0.2697,0.2548 -0.6445,0.5996 z"
       id="path4740" />
    <path
       style="fill:#ff0000;fill-rule:evenodd;stroke:none"
       d="m 1196.8364,108.2571 c 0.5852,-0.5445 1.0288,-1.0296 1.5444,-1.4253 0.6292,-0.4834 1.2146,-0.5154 1.5103,0.3989 0.051,0.1619 0.1631,0.3081 0.1902,0.4736 0.4599,2.6873 0.9482,5.3667 1.3476,8.0616 0.2034,1.3698 -0.312,1.7451 -1.6545,1.5534 -2.3221,-0.3283 -4.6529,-0.5881 -6.9793,-0.8801 -0.2055,-0.026 -0.4358,0 -0.6128,-0.081 -0.5671,-0.2585 -1.1176,-0.5532 -1.6765,-0.8359 0.2942,-0.4781 0.4924,-1.0818 0.9065,-1.4058 0.9175,-0.7156 0.8982,-1.3533 0.2471,-2.238 -2.5608,-3.47 -3.2727,-7.5152 -3.2415,-11.6719 0.019,-2.5342 0.4541,-5.0815 1.6221,-7.4175 0.1802,-0.3618 0.1599,-0.8667 0.4082,-1.1511 0.4844,-0.5535 1.0178,-1.1868 1.6655,-1.4524 1.5506,-0.6382 2.7383,0.2871 3.7801,1.2837 0.9497,0.907 0.78,2.0034 0.4157,3.1792 -0.5666,1.832 -1.2224,3.6875 -1.4021,5.5749 -0.2632,2.795 0.6817,5.409 1.937,8.0298 z"
       id="path4742" />
    <path
       style="fill:#ff0000;fill-rule:evenodd;stroke:none"
       d="m 1206.2458,85.9309 c 0.3557,0.4585 0.7124,0.8084 0.9231,1.2297 0.1868,0.3728 0.4045,0.9314 0.2529,1.2207 -0.1513,0.2854 -0.7419,0.4627 -1.1455,0.4676 -2.5549,0.037 -5.1096,0.026 -7.664,0.011 -1.9937,-0.011 -1.9937,-0.019 -1.7601,-2.0918 0.3028,-2.6653 0.5933,-5.3347 0.9283,-8 0.03,-0.25 0.3235,-0.6352 0.5256,-0.6538 0.3674,-0.038 0.8511,0.039 1.1199,0.2666 0.6015,0.5093 1.0564,1.1907 1.6579,1.6997 0.2608,0.22 0.7923,0.3572 1.104,0.2505 3.3543,-1.145 6.69,-1.9753 10.3352,-1.5605 3.1695,0.3591 5.9949,1.3691 8.7317,2.9113 3.6812,2.074 6.18,5.2044 8.1746,8.8155 0.5015,0.9038 0.047,2.3613 -0.96,3.1245 -1.843,1.3987 -4.2082,0.9084 -5.2985,-1.1338 -2.0613,-3.8616 -5.4021,-6.1148 -9.5281,-7.0056 -2.0266,-0.4351 -4.2288,-0.092 -6.3518,-0.048 -0.3311,0.01 -0.6521,0.3018 -1.0491,0.4966 z"
       id="path4744" />
    <path
       style="fill:#ff0000;fill-rule:evenodd;stroke:none"
       d="m 1224.1171,106.0779 c -0.6657,0 -1.114,0.036 -1.5576,-0.02 -0.8789,-0.1116 -1.2969,-0.8655 -0.8032,-1.5801 1.6606,-2.4089 3.3418,-4.8137 5.0989,-7.153 0.7827,-1.0435 1.2622,-0.9349 2.1054,0.1411 1.595,2.0378 3.2264,4.0478 4.7806,6.1179 0.3117,0.414 0.5647,1.114 0.4243,1.5488 -0.1033,0.3181 -0.8794,0.4656 -1.3767,0.5911 -0.3599,0.09 -0.7783,-0.062 -1.1304,0.036 -0.3074,0.086 -0.7166,0.3135 -0.8074,0.5752 -0.9157,2.6162 -1.976,5.1631 -3.7119,7.3535 -1.6667,2.1021 -3.6213,3.8792 -5.988,5.1931 -3.2869,1.8196 -6.731,3.0931 -10.5469,2.8382 -2.0129,-0.1362 -4.0244,-0.438 -6.0073,-0.8081 -1.1929,-0.2232 -1.9324,-2.2224 -1.3174,-3.501 1.0293,-2.1514 1.3542,-2.9602 4.5503,-2.3911 4.2761,0.7627 8.261,0.026 11.7261,-2.9302 1.6938,-1.4441 2.9736,-3.1294 4.0734,-5.0058 0.1514,-0.2571 0.2664,-0.5389 0.492,-1.0054 z"
       id="path4746" />
    <path
       style="fill:#ff0000;fill-rule:evenodd;stroke:none"
       d="m 1217.5449,136.4158 c -2.9336,3.5473 -5.8609,7.0945 -9.0613,10.9682 h 42.6599 c 0,2.4739 0,4.7808 0,7.0813 0,2.8848 -1.4492,4.3274 -4.3474,4.3274 -11.9685,0 -23.937,0 -35.8987,0 -0.6401,0 -1.2803,0 -2.4272,0 3.2339,3.9136 6.1342,7.4209 9.0283,10.9282 -0.047,0.1534 -0.1001,0.3067 -0.147,0.46 -1.3398,0 -2.7136,-0.1802 -4.0205,0.034 -4.894,0.8 -8.4678,-0.9803 -11.6416,-4.7542 -3.2671,-3.8872 -7.1343,-7.2676 -10.7349,-10.8813 -0.4602,-0.4602 -0.8935,-0.9471 -1.487,-1.5738 3.5271,-3.4873 6.9477,-6.8613 10.3547,-10.248 1.9671,-1.9539 3.9009,-3.9341 5.8877,-5.8611 0.4136,-0.4002 0.9934,-0.8669 1.5069,-0.8735 3.3671,-0.08 6.7343,-0.04 10.1083,-0.04 0.073,0.1468 0.1465,0.2932 0.2134,0.4402 z"
       id="path4748" />
    <path
       style="fill:#ff0000;fill-rule:evenodd;stroke:none"
       d="m 1271.8076,147.4045 c 0,5.6902 0.01,11.3741 0,17.064 -0.01,3.4985 -1.4571,4.9744 -4.9366,5.0059 -1.8276,0.019 -3.6552,0.019 -5.4829,0 -3.3601,-0.038 -4.7732,-1.4322 -4.7793,-4.7671 -0.013,-9.2891 0,-18.5777 -0.01,-27.8667 0,-4.8611 -2.104,-6.9463 -6.9778,-6.9527 -1.928,0 -3.8625,0.032 -5.7905,-0.01 -1.0803,-0.025 -1.5513,0.3831 -1.3943,1.4822 0.1506,1.0864 0.2512,2.1729 0.3769,3.2659 0.1443,1.3 -0.2387,2.3992 -1.3754,3.0962 -1.1997,0.7285 -2.4683,0.6467 -3.5047,-0.2512 -4.6914,-4.0635 -9.3642,-8.1519 -13.9929,-12.2974 -1.3188,-1.1804 -1.3125,-3.1338 0.013,-4.3272 4.6223,-4.1386 9.3076,-8.2211 13.9866,-12.2971 1.0049,-0.8791 2.2234,-0.9546 3.3601,-0.3391 1.2121,0.6531 1.6958,1.7837 1.5324,3.1653 -0.1257,1.0364 -0.2324,2.0725 -0.383,3.1025 -0.1821,1.2249 0.2761,1.6643 1.5449,1.6455 4.4341,-0.063 8.8743,-0.032 13.3084,-0.019 8.3342,0.019 14.4201,6.023 14.5017,14.3887 0.057,5.6336 0.012,11.2735 0.012,16.907 z"
       id="path4750" />
    <path
       style="fill:#ff0000;fill-rule:evenodd;stroke:none"
       d="m 1259.1709,71.0686 c 0.076,-1.4509 0.068,-2.9123 0.2399,-4.352 0.6875,-5.7537 -1.7485,-6.7325 -6.3256,-6.7124 -2.4517,0.01 -4.1617,1.539 -4.3638,4.0156 -0.09,1.1484 -0.2537,2.311 -0.1685,3.4507 0.4241,5.6245 -1.0761,10.5263 -5.1738,14.5317 -0.1399,0.1377 -0.2815,0.3054 -0.3513,0.4829 -0.28,0.7398 -0.7051,1.4783 -0.7568,2.2363 -0.2828,4.2474 -0.5113,8.4976 -0.6797,12.751 -0.092,2.3435 1.4338,3.981 3.7751,4.2305 0.7444,0.081 1.4978,0.1025 2.251,0.1299 2.8562,0.1071 4.5332,-1.3687 4.7317,-4.2381 0.1623,-2.2976 0.3493,-4.6001 0.3369,-6.9006 -0.012,-2.1983 0.5176,-4.1206 1.9287,-5.8218 3.3184,-3.9978 5.3027,-8.458 4.55,-13.8039 z"
       id="path4752" />
    <path
       style="fill:#ff0000;fill-rule:evenodd;stroke:none"
       d="m 1270.809,82.0496 c 0.2854,-5.4488 0.5823,-10.8907 0.8555,-16.3399 0.1599,-3.1733 -1.2834,-4.7761 -4.4131,-4.958 -0.3974,-0.021 -0.8008,-0.042 -1.1982,-0.063 -3.3421,-0.1629 -4.9744,1.2671 -5.1656,4.5715 -0.2089,3.6475 -0.3879,7.2964 -0.5791,10.9448 -0.3764,7.1948 -0.7709,14.3885 -1.1176,21.5845 -0.147,3.041 1.3847,4.6848 4.4052,4.8791 0.4517,0.024 0.897,0.047 1.3487,0.071 3.2881,0.1541 4.8457,-1.2314 5.0229,-4.5005 0.2945,-5.3935 0.5652,-10.7949 0.8474,-16.1892 z"
       id="path4754" />
    <path
       style="fill:#ff0000;fill-rule:evenodd;stroke:none"
       d="m 1134.8366,168.4939 c -2.2104,0 -4.4155,-0.028 -6.626,0.011 -1.2099,0.023 -1.7187,-0.4638 -1.6284,-1.6848 0.068,-0.9328 0.057,-1.8828 0,-2.8157 -0.068,-1.1025 0.4241,-1.5319 1.4871,-1.5207 2.6797,0.023 5.3596,-0.04 8.0337,0.023 1.2099,0.028 1.6736,-0.3506 1.6396,-1.6057 -0.073,-2.6741 0.017,-5.354 -0.034,-8.034 -0.028,-1.3454 0.5259,-1.8374 1.8489,-1.809 2.6289,0.057 5.2634,-0.017 7.8925,0.028 1.108,0.022 1.4869,-0.4185 1.47,-1.4981 -0.045,-2.7705 0.017,-5.5464 -0.028,-8.3169 -0.023,-1.2041 0.4353,-1.6901 1.6565,-1.6674 2.7251,0.051 5.4502,-0.023 8.1753,0.034 1.1194,0.023 1.4812,-0.4183 1.4641,-1.4922 -0.045,-2.6802 0.023,-5.3543 -0.028,-8.0342 -0.023,-1.2549 0.4409,-1.7866 1.7356,-1.7583 2.4876,0.057 4.981,0.017 7.4685,0.017 1.3758,0 2.0637,-0.7124 2.0637,-2.1372 0,-2.4873 0.034,-4.981 -0.011,-7.4685 -0.023,-1.1365 0.3901,-1.6114 1.5605,-1.5999 4.5569,0.034 9.1138,0.034 13.6707,0 1.1081,-0.01 1.6848,0.3335 1.6054,1.532 -0.062,0.9836 -0.051,1.9731 0,2.9568 0.051,1.0459 -0.4296,1.4248 -1.4245,1.4189 -2.68,-0.022 -5.3599,0.04 -8.034,-0.022 -1.2439,-0.028 -1.6396,0.4355 -1.6057,1.6567 0.068,2.6741 -0.011,5.3538 0.034,8.0337 0.017,1.1477 -0.4353,1.6225 -1.5774,1.6057 -2.7251,-0.034 -5.4502,0.034 -8.1753,-0.028 -1.1702,-0.028 -1.583,0.4126 -1.5603,1.5603 0.051,2.6289 0.017,5.2637 0.011,7.8926 0,1.8261 -0.1186,1.9448 -1.8996,1.9506 -2.4876,0.01 -4.9866,0.084 -7.4686,-0.028 -1.4755,-0.068 -1.8542,0.4749 -1.7978,1.8657 0.096,2.5782 -0.011,5.1675 0.039,7.751 0.028,1.272 -0.4804,1.7866 -1.7412,1.7642 -2.6291,-0.04 -5.2636,0.039 -7.8925,-0.028 -1.2664,-0.034 -1.7696,0.373 -1.7359,1.6904 0.073,2.7251 -0.011,5.4502 0.034,8.1753 0.023,1.1592 -0.4522,1.6113 -1.5831,1.5942 -2.3461,-0.034 -4.6982,-0.011 -7.05,-0.011 z"
       id="path4756" />
  </g>
</svg>
