<?xml version="1.0" encoding="UTF-8" standalone="no"?>
<!-- Created with Inkscape (http://www.inkscape.org/) -->

<svg
   width="210mm"
   height="297mm"
   viewBox="0 0 210 297"
   version="1.1"
   id="svg7552"
   inkscape:version="1.2.1 (9c6d41e410, 2022-07-14)"
   sodipodi:docname="pochoires_4.svg"
   xmlns:inkscape="http://www.inkscape.org/namespaces/inkscape"
   xmlns:sodipodi="http://sodipodi.sourceforge.net/DTD/sodipodi-0.dtd"
   xmlns="http://www.w3.org/2000/svg"
   xmlns:svg="http://www.w3.org/2000/svg">
  <sodipodi:namedview
     id="namedview7554"
     pagecolor="#ffffff"
     bordercolor="#000000"
     borderopacity="0.25"
     inkscape:showpageshadow="2"
     inkscape:pageopacity="0.0"
     inkscape:pagecheckerboard="0"
     inkscape:deskcolor="#d1d1d1"
     inkscape:document-units="mm"
     showgrid="false"
     inkscape:zoom="0.71624579"
     inkscape:cx="235.95252"
     inkscape:cy="561.95793"
     inkscape:window-width="1920"
     inkscape:window-height="991"
     inkscape:window-x="-9"
     inkscape:window-y="-9"
     inkscape:window-maximized="1"
     inkscape:current-layer="layer1" />
  <defs
     id="defs7549" />
  <g
     inkscape:label="Calque 1"
     inkscape:groupmode="layer"
     id="layer1">
    <rect
       style="fill:none;stroke:#000000;stroke-width:0.05mm"
       x="-966.60071"
       y="-80.75"
       width="310"
       height="310"
       id="rect118" />
    <rect
       style="fill:none;stroke:#000000;stroke-width:0.05mm"
       x="-651.60071"
       y="-80.75"
       width="310"
       height="310"
       id="rect120" />
    <rect
       style="fill:none;stroke:#000000;stroke-width:0.05mm"
       x="-336.60071"
       y="-80.75"
       width="310"
       height="310"
       id="rect122" />
    <rect
       style="fill:none;stroke:#000000;stroke-width:0.05mm"
       x="-21.6007"
       y="-80.75"
       width="310"
       height="310"
       id="rect124" />
    <rect
       style="fill:none;stroke:#000000;stroke-width:0.05mm"
       x="293.39929"
       y="-80.75"
       width="310"
       height="310"
       id="rect126" />
    <rect
       style="fill:none;stroke:#000000;stroke-width:0.05mm"
       x="608.39929"
       y="-80.75"
       width="310"
       height="310"
       id="rect128" />
    <path
       style="fill:none;stroke:#000000;stroke-width:0.63954mm"
       d="m 262.81157,201.07894 c -14.71667,-20.81101 -36.42715,-29.95463 -59.55741,-37.38634 -24.73672,-7.93193 -49.29536,-16.41803 -73.83398,-25.00185 -5.03489,-1.76646 -9.55337,-4.91439 -14.38195,-7.47314 31.41521,9.81937 62.4616,19.50508 93.40821,29.17076 10.03372,-27.69272 -4.87127,-65.755772 -31.3232,-83.294259 -0.32913,4.792455 -0.65696,9.077257 -1.14019,16.21754 C 170.06149,71.43189 156.50078,59.405751 138.87743,51.170771 124.02908,44.235734 108.87044,37.889656 94.033853,30.997557 58.374322,14.405658 34.271133,-10.717699 30.689768,-50.976116 30.564313,-52.281149 29.685683,-53.572397 29.00074,-55.19148 7.987972,-31.576325 -0.39946842,17.090991 11.803884,45.576348 9.4351834,45.230539 7.511589,44.952663 3.9645844,44.455768 7.0642097,85.025484 13.037037,124.51612 43.076307,154.99813 c 9.884924,10.04029 25.694194,14.46201 40.575192,19.63531 l -12.709879,3.34445 c -0.927092,1.95107 -1.866109,3.85911 -2.749009,5.79868 4.295553,0.80736 8.966179,0.91612 12.93486,2.59407 34.626139,14.74173 69.354419,19.26006 104.443759,1.67569 3.86611,-1.93934 8.15751,-4.22274 10.65565,-7.50988 8.75788,-11.62416 18.06105,-7.61304 26.86871,-1.11836 7.65926,5.5972 15.06449,11.81497 21.32094,18.84248 5.55269,6.19768 10.75868,7.04247 18.42728,2.76372 z"
       id="path1326" />
    <path
       style="fill:none;stroke:#f6c4e1;stroke-width:0.312472mm"
       d="m -152.92667,-17.176848 c -1.10207,17.99419564 -7.58226,36.826359 -15.01024,55.349811 -0.50697,1.256946 -3.72502,1.896448 -5.70874,1.98466 -5.0475,0.220532 -10.22723,-0.771808 -15.09841,0.0882 -3.9895,0.70565 -5.79689,-0.132331 -7.03124,-3.682631 -5.9512,-17.288546 -11.682,-34.5770861 -14.10655,-52.85796 -2.33639,-17.663443 7.69247,-36.142763 24.1795,-42.581863 2.24823,-0.882068 5.48834,-0.815909 7.73657,0.110265 16.68541,6.813985 25.1273,20.331688 25.01709,41.589537 z"
       id="path1330" />
    <path
       style="fill:none;stroke:#f6c4e1;stroke-width:0.312472mm"
       d="m -87.595708,102.87269 c -20.189982,-0.7718 -38.859132,-7.718105 -57.440092,-14.862842 -1.38863,-0.529262 -2.35844,-3.682631 -2.49069,-5.667292 -0.33064,-5.226279 0.28653,-10.518675 -0.17632,-15.72287 -0.30858,-3.550337 0.52896,-5.711379 3.94543,-6.637578 17.23644,-4.630858 34.31859,-10.033544 51.77544,-13.650015 18.3826,-3.814956 36.390497,6.615512 43.553981,23.815853 0.903695,2.205179 0.705322,5.512938 -0.264477,7.740152 -7.405937,16.803415 -20.388364,25.249222 -38.90321,24.962562 z"
       id="path1332" />
    <path
       style="fill:none;stroke:#000000;stroke-width:0.312472mm"
       d="m -152.92667,-23.427548 c 0.11022,-21.257849 -8.33168,-34.775552 -25.01706,-41.589543 -2.24823,-0.926161 -5.48834,-0.992321 -7.73657,-0.110265 -16.50908,6.4391 -26.51592,24.918439 -24.17953,42.581857 2.42458,18.2808737 8.15536,35.56942 14.10655,52.85796 1.2123,3.550338 3.04174,4.388293 7.03124,3.682644 4.89323,-0.860028 10.07296,0.110265 15.09841,-0.0882 1.98374,-0.0882 5.20181,-0.727709 5.70876,-1.984661 7.40594,-18.523445 13.90816,-37.3335495 15.01025,-55.349798 z"
       id="path1334" />
    <path
       style="fill:none;stroke:#000000;stroke-width:0.312472mm"
       d="m -76.035707,-8.476487 c 1.102081,-23.176344 -14.900039,-26.043079 -34.340633,-21.720939 -9.10312,2.028748 -16.9499,7.60784 -21.86515,15.590557 -9.34558,15.23773911 -17.89768,30.960603 -26.78041,46.462966 -1.52085,2.668251 -0.90369,4.45444 1.54291,6.5273 4.27606,3.616491 8.33168,7.5858 11.90242,11.88588 2.09392,2.535938 3.85724,3.021088 6.48019,1.58773 14.21675,-7.806312 29.05067,-14.752615 42.473923,-23.749713 11.902408,-7.960676 20.763074,-19.0968005 20.56472,-36.6058529 z"
       id="path1336" />
    <path
       style="fill:none;stroke:#000000;stroke-width:0.312472mm"
       d="m -280.75509,46.023368 c -17.91973,-0.617462 -31.0344,6.836031 -39.18976,22.933791 -2.09393,4.101615 -2.29229,7.674012 -0.0882,11.841773 7.93495,14.995186 22.94519,23.485078 39.85101,21.897348 19.30832,-1.80823 37.44849,-8.181173 55.5225,-14.598232 1.45474,-0.529262 2.79927,-3.373907 2.93153,-5.226274 0.37469,-5.557007 0.33064,-11.158152 0,-16.715184 -0.11021,-1.940548 -1.16821,-4.983702 -2.53479,-5.490886 -18.36054,-6.681665 -36.61092,-13.980774 -56.47028,-14.664389 z"
       id="path1338" />
    <path
       style="fill:none;stroke:#f6c4e1;stroke-width:0.312472mm"
       d="m -209.94802,172.75457 c 0.85963,-25.58 8.24352,-43.61829 14.76781,-61.833 0.48491,-1.38925 3.30623,-2.60211 5.11362,-2.71237 5.77487,-0.3308 11.59381,-0.3308 17.36868,0.0219 1.76333,0.11026 4.47441,1.41129 4.95934,2.80056 6.56836,18.43522 13.26895,36.91457 14.67963,56.62881 1.25634,17.70753 -7.80271,32.50426 -23.84891,39.60488 -2.18209,0.97026 -5.53241,0.99232 -7.71452,0.0444 -17.56706,-7.5858 -25.81057,-21.10349 -25.32565,-34.55505 z"
       id="path1340" />
    <path
       style="fill:none;stroke:#000000;stroke-width:0.312472mm"
       d="m -81.347708,102.85063 c 18.514858,0.28667 31.497285,-8.159117 38.903235,-24.962532 0.969811,-2.227239 1.190246,-5.534998 0.264477,-7.740152 -7.163484,-17.200353 -25.193411,-27.630809 -43.553969,-23.815878 -17.456855,3.61649 -34.539005,8.99711 -51.775445,13.650015 -3.41644,0.926174 -4.254,3.087241 -3.94542,6.637578 0.46285,5.20422 -0.15433,10.496616 0.17632,15.72287 0.13227,1.984661 1.10206,5.138048 2.49068,5.667292 18.58097,7.144743 37.27214,14.091037 57.440097,14.862847 z"
       id="path1342" />
    <path
       style="fill:none;stroke:#000000;stroke-width:0.312472mm"
       d="m -209.94799,179.00557 c -0.50697,13.45156 7.75859,26.96925 25.32566,34.55505 2.20414,0.94821 5.53241,0.90412 7.71453,-0.0444 16.0462,-7.10067 25.10525,-21.89734 23.84888,-39.60487 -1.41065,-19.71425 -8.08922,-38.19357 -14.67965,-56.62881 -0.50696,-1.38925 -3.21804,-2.69031 -4.95931,-2.80055 -5.7749,-0.35286 -11.59384,-0.37486 -17.36869,-0.0219 -1.80741,0.11026 -4.60666,1.34515 -5.11364,2.71236 -6.54631,18.21472 -13.90816,36.25303 -14.76778,61.83298 z"
       id="path1344" />
    <path
       style="fill:none;stroke:#f6c4e1;stroke-width:0.312472mm"
       d="m -82.283732,-2.225787 c 0.198373,17.487006 -8.662306,28.62313 -20.564718,36.605847 -13.44529,8.99711 -28.25717,15.921342 -42.47393,23.749706 -2.62292,1.433383 -4.38625,0.948227 -6.48019,-1.587723 -3.57072,-4.300081 -7.62636,-8.26939 -11.9024,-11.885874 -2.44662,-2.072867 -3.06379,-3.859049 -1.54291,-6.527306 8.88271,-15.524404 17.43481,-31.2472679 26.78042,-46.46296 4.91525,-7.982724 12.76202,-13.561809 21.86514,-15.590564 19.418537,-4.344192 35.420669,-1.455417 34.340637,21.7209396 z"
       id="path1346" />
    <path
       style="fill:none;stroke:#f6c4e1;stroke-width:0.312472mm"
       d="m -259.34296,173.74691 c -17.45685,-1.60976 -19.39652,-3.61648 -21.46842,-22.20607 -1.6311,-14.7526 6.34796,-25.62409 16.77357,-34.66529 13.86408,-12.04023 30.6597,-19.140883 47.08062,-26.792842 1.30044,-0.595396 4.09972,0.551265 5.4222,1.764142 4.14378,3.792891 7.67045,8.24734 11.90239,11.92997 2.31437,2.02876 3.41644,3.63852 1.82947,6.4391 -8.97089,15.70083 -17.19239,31.93086 -27.17716,46.94808 -7.5382,11.31255 -19.26429,17.20034 -34.34065,16.58291 z"
       id="path1348" />
    <path
       style="fill:none;stroke:#f6c4e1;stroke-width:0.312472mm"
       d="m -259.07847,-25.512403 c 14.70166,0.198466 24.0693,5.865751 32.0483,14.179259 13.82,14.3997645 21.53454,32.526279 29.62376,50.322009 0.59512,1.279011 -1.03595,4.145715 -2.35844,5.623192 -3.5046,3.903149 -7.71452,7.188868 -11.02075,11.224324 -2.09392,2.535938 -3.79113,3.814949 -6.8108,2.094895 -15.40699,-8.732473 -31.45319,-16.494685 -46.02262,-26.440004 -16.64132,-11.37867 -21.20389,-28.6892825 -14.76779,-47.433234 0.74939,-2.161066 2.60088,-4.807277 4.5626,-5.534985 5.59852,-2.050808 11.5277,-3.219547 14.7678,-4.057515 z"
       id="path1350" />
    <path
       style="fill:none;stroke:#f6c4e1;stroke-width:0.312472mm"
       d="m -274.50752,46.023368 c 19.85936,0.683596 38.10975,7.960671 56.47028,14.664389 1.36659,0.507197 2.42458,3.550344 2.53479,5.490886 0.3527,5.557014 0.39675,11.158158 0,16.715191 -0.13227,1.852342 -1.47678,4.719058 -2.93153,5.226273 -18.074,6.439088 -36.2362,12.812033 -55.52251,14.598233 -16.88378,1.56567 -31.91605,-6.902168 -39.85099,-21.897348 -2.20416,-4.189821 -2.00579,-7.740159 0.0882,-11.841774 8.1774,-16.119806 21.29209,-23.55124 39.18975,-22.933791 z"
       id="path1352" />
    <path
       style="fill:none;stroke:#f6c4e1;stroke-width:0.312472mm"
       d="m -105.97832,173.48231 c -13.55552,0.79385 -23.12153,-6.08629 -31.40912,-15.0393 -13.00449,-14.09105 -20.36634,-31.60011 -28.30127,-48.71225 -0.59512,-1.27898 0.52895,-4.0575 1.71922,-5.35854 3.76909,-4.16779 8.22148,-7.740159 11.85831,-12.01818 2.20415,-2.60211 3.96748,-3.285706 6.92103,-1.653882 13.5996,7.519639 27.59593,14.377712 40.82083,22.536852 12.607727,7.78425 22.085569,18.78805 22.173728,34.55505 0.08816,19.4937 -2.402517,24.27892 -22.548428,25.69025 -0.55101,0.0444 -1.10208,0 -1.23433,0 z"
       id="path1354" />
    <path
       style="fill:none;stroke:#000000;stroke-width:0.312472mm"
       d="m -99.730296,179.71122 c 0.132269,0 0.683291,0.0444 1.234319,0 20.145918,-1.4113 22.636607,-6.19653 22.548448,-25.69023 -0.0661,-15.74493 -9.543958,-26.77079 -22.17375,-34.55504 -13.202841,-8.15914 -27.199201,-15.03927 -40.820821,-22.536845 -2.9756,-1.631824 -4.71688,-0.970287 -6.92101,1.653876 -3.61481,4.278019 -8.08924,7.850389 -11.85833,12.018179 -1.19022,1.30105 -2.31437,4.07956 -1.71923,5.35857 7.93494,17.09005 15.29679,34.6212 28.30127,48.71224 8.26557,8.95298 17.8536,15.83311 31.409129,15.03928 z"
       id="path1356" />
    <path
       style="fill:none;stroke:#000000;stroke-width:0.312472mm"
       d="m -265.59056,179.99791 c 15.07636,0.6174 26.80246,-5.27036 34.34063,-16.58291 10.00684,-15.01722 18.20628,-31.24727 27.17715,-46.94811 1.587,-2.77851 0.4849,-4.41034 -1.82944,-6.43909 -4.23197,-3.68263 -7.75859,-8.13708 -11.90239,-11.929975 -1.32249,-1.212839 -4.12179,-2.359532 -5.42222,-1.764136 -16.4209,7.651951 -33.21654,14.752601 -47.08061,26.792841 -10.4256,9.06325 -18.40466,19.91268 -16.77357,34.66529 2.04983,18.58961 3.98951,20.59628 21.46842,22.20605 z"
       id="path1358" />
    <path
       style="fill:none;stroke:#000000;stroke-width:0.312472mm"
       d="m -265.32605,-31.78515 c -3.24009,0.837968 -9.16926,2.006708 -14.76779,4.057515 -1.96169,0.70565 -3.81315,3.373907 -4.56259,5.534973 -6.43613,18.7219172 -1.87356,36.054564 14.76778,47.433234 14.56942,9.967372 30.61562,17.707531 46.02261,26.440004 3.01969,1.720029 4.71689,0.441062 6.81082,-2.094895 3.30623,-4.035468 7.53817,-7.321175 11.02075,-11.224324 1.32248,-1.477464 2.95355,-4.344181 2.35843,-5.623192 -8.11126,-17.79573 -15.80373,-35.9001851 -29.62375,-50.322009 -7.97901,-8.313508 -17.34664,-13.9808 -32.04831,-14.179259 z"
       id="path1360" />
    <path
       style="fill:none;stroke:#000000;stroke-width:0.263464mm"
       d="m -840.61367,116.39127 c -0.24165,2.45374 -0.2788,4.94469 -0.78073,7.34264 -3.19729,15.46594 -9.05277,29.90953 -18.57029,42.47562 -4.94464,6.52469 -11.15333,12.34304 -17.64084,17.36193 -6.22729,4.81455 -13.68143,4.2941 -20.54072,0.42787 -9.1829,-5.1863 -16.46974,-12.49174 -22.17652,-21.26569 -5.83689,-8.97839 -5.96702,-17.52928 1.05959,-25.63402 5.78113,-6.65485 12.58467,-12.8078 19.94586,-17.64084 13.64421,-8.92264 28.51532,-15.50308 45.20812,-16.15374 10.18669,-0.40889 13.38397,3.0114 13.49551,13.10514 z"
       id="path1364" />
    <path
       style="fill:none;stroke:#000000;stroke-width:0.263464mm"
       d="m -699.0408,150.42754 c -1.09674,3.3088 -1.37557,7.28684 -3.45753,9.79629 -6.24586,7.54709 -12.62184,15.20574 -20.0388,21.54453 -8.53229,7.3054 -17.58508,6.71049 -26.74938,-0.0743 -8.60665,-6.37605 -14.81534,-14.79685 -19.96445,-24.05409 -7.10096,-12.77048 -12.7148,-26.06158 -14.07177,-40.82111 -0.87368,-9.55469 2.67679,-13.90449 12.21288,-13.49554 5.94843,0.2603 12.0084,1.1525 17.7152,2.8441 16.93446,5.01899 32.49335,12.73339 44.89212,25.68983 4.8331,5.05619 8.90408,10.74434 9.46174,18.55168 z"
       id="path1366" />
    <path
       style="fill:none;stroke:#000000;stroke-width:0.263464mm"
       d="m -840.79956,28.912039 c 0.1673,14.555088 -3.60626,17.826735 -15.07557,16.655636 -12.21291,-1.245501 -23.31044,-5.706796 -34.12918,-11.097593 -11.30204,-5.632393 -21.67464,-12.547437 -29.33324,-22.827078 -6.78493,-9.108542 -7.15675,-18.0312628 0,-26.768009 5.42794,-6.617603 11.71099,-12.751907 18.42158,-18.08696 8.3464,-6.654793 17.8639,-6.80354 26.00585,0.07435 6.72915,5.688185 12.91926,12.454534 17.82671,19.75999 9.10853,13.56988895 15.0012,28.645477 16.26528,42.289664 z"
       id="path1368" />
    <path
       style="fill:none;stroke:#000000;stroke-width:0.263464mm"
       d="m -779.17742,-36.390657 c 0,0 0.18584,0.03688 0.27879,0.05575 -0.61343,4.740156 -0.87367,9.536108 -1.89604,14.183319 -3.56906,16.3024204 -9.57327,31.619695 -20.18753,44.724833 -7.65862,9.443142 -14.05318,9.666244 -21.35861,0.148594 -14.79676,-19.3138863 -23.03163,-41.081448 -21.73041,-65.767483 0.63201,-11.859674 6.87789,-19.759948 18.60745,-21.470116 8.88549,-1.282665 18.23569,-1.30124 27.13975,-0.07435 11.35781,1.561463 16.84153,8.160534 18.62605,19.443958 0.46475,2.881241 0.3718,5.855469 0.5205,8.773932 z"
       id="path1370" />
    <path
       style="fill:none;stroke:#000000;stroke-width:0.263464mm"
       d="m -811.54069,213.96429 c -3.08575,0 -6.17149,0.0743 -9.25726,0 -13.88588,-0.42787 -22.60407,-8.64379 -23.29186,-22.47393 -1.22687,-24.51879 7.19389,-46.08187 21.5817,-65.3771 7.39838,-9.9265 14.05318,-9.9451 21.47015,0 14.49933,19.42538 22.93866,41.13716 21.52592,65.84174 -0.76216,13.30969 -9.38739,21.47008 -22.77138,21.99063 -3.08576,0.11171 -6.17151,0 -9.25727,0.0369 z"
       id="path1372" />
    <path
       style="fill:none;stroke:#000000;stroke-width:0.263464mm"
       d="m -698.76199,-2.9679382 c -1.3384,4.2754467 -1.59864,8.0118455 -3.4947,10.5213434 -4.29402,5.7439448 -8.71819,11.7667398 -14.29485,16.1165888 -15.48453,12.026989 -32.99525,19.871482 -52.73664,22.046328 -10.65142,1.171151 -15.07558,-3.271595 -13.99741,-13.885836 0.0374,-0.316157 0.1115,-0.613398 0.1301,-0.910849 1.39416,-14.592289 7.02659,-27.7346288 14.09037,-40.3378833 5.01899,-8.9598587 10.94885,-17.1946897 19.44395,-23.2732337 9.88928,-7.100986 18.70041,-7.286876 27.92049,0.501899 6.09714,5.149084 11.78534,10.930256 16.8787,17.083171 2.88128,3.494712 4.18249,8.2906276 6.04138,12.157125 z"
       id="path1374" />
    <path
       style="fill:none;stroke:#000000;stroke-width:0.263464mm"
       d="m -671.62221,74.045853 c -0.1301,0 -0.26025,0.02108 -0.40895,0.03689 0,2.936995 0.0929,5.874096 0,8.792543 -0.5019,14.090337 -9.25725,23.124574 -23.27326,23.719424 -24.01683,1.0038 -45.20813,-7.082335 -64.1874,-21.154124 -10.26104,-7.602844 -10.39117,-14.648091 -0.24165,-22.213734 19.33243,-14.406388 40.9513,-22.659831 65.5072,-21.247082 11.69241,0.669199 18.8863,6.822146 21.35862,18.310087 0.96662,4.479895 0.87368,9.164291 1.26404,13.774338 z"
       id="path1376" />
    <path
       style="fill:none;stroke:#000000;stroke-width:0.263464mm"
       d="m -811.20607,111.37232 c -21.30286,0.42734 -36.93609,-14.425039 -37.41943,-35.560571 -0.52045,-22.920028 14.09037,-38.460368 36.52715,-38.850717 21.17273,-0.353042 36.73162,14.666639 37.17774,35.876521 0.46475,22.752728 -13.96024,38.088567 -36.28546,38.534767 z"
       id="path1378" />
    <path
       style="fill:none;stroke:#000000;stroke-width:0.263464mm"
       d="m -951.57065,74.064453 h -0.0184 c 0,-2.472296 -0.0374,-4.944646 0,-7.398395 0.26025,-15.930688 8.71816,-24.239932 24.76036,-24.890531 17.04598,-0.6878 32.66066,4.256899 47.45737,11.915439 6.89648,3.569099 13.40261,8.234894 19.25807,13.346841 5.50234,4.795894 5.05618,8.959842 0.2045,14.424989 -0.91086,1.040947 -1.87746,2.081948 -2.97422,2.899847 -19.74138,14.740988 -41.56472,23.459127 -66.58538,22.120727 -13.56988,-0.72495 -21.63743,-9.48034 -22.08358,-23.180328 -0.0929,-3.085695 0,-6.171495 0,-9.257242 z"
       id="path1380" />
    <path
       style="fill:none;stroke:#000000;stroke-width:0.326613mm"
       d="m -564.34049,157.18037 c -1.2214,-17.85936 7.32801,-28.98978 23.02122,-35.44216 7.58159,-3.11099 15.34752,-5.78415 23.1595,-8.27291 5.78418,-1.84355 6.9364,-0.85264 7.81212,5.13888 0.96788,6.61373 2.07392,13.18137 2.85746,19.81815 1.49785,12.49002 3.41056,24.98003 4.03275,37.51616 0.57615,11.77566 -4.63195,21.61557 -15.32446,26.84662 -10.39307,5.06973 -21.52344,8.71076 -32.46946,12.60525 -1.17529,0.4148 -4.53972,-1.52093 -4.72406,-2.71921 -2.99576,-18.45849 -5.64589,-36.96309 -8.36507,-55.44466 z"
       id="path1384" />
    <path
       style="fill:none;stroke:#000000;stroke-width:0.326613mm"
       d="m -571.87609,-28.48778 c 1.12916,-10.393006 8.01944,-23.574348 15.64715,-36.410043 0.52977,-0.875688 4.14798,-0.944818 5.5076,-0.09217 4.51673,2.834448 8.73382,6.175876 12.95097,9.47122 10.99202,8.572494 22.19162,16.914536 32.74591,25.970952 6.89021,5.899354 10.94606,13.711369 10.20862,23.2978121 -1.17526,15.1631812 -8.71071,27.9066929 -15.87757,40.7193289 -0.43766,0.783498 -3.75624,1.060034 -4.74711,0.299569 C -530.69588,23.29281 -546.0434,11.885869 -560.8379,-0.18935473 -567.93551,-5.9965119 -572.5674,-13.808554 -571.87616,-28.510826 Z"
       id="path1386" />
    <path
       style="fill:none;stroke:#000000;stroke-width:0.326613mm"
       d="m -420.75131,173.0118 c -1.65923,14.4488 -8.66469,27.58407 -15.96971,40.60409 -1.8666,3.3184 -4.14799,1.54398 -6.19894,0.0229 -7.97334,-5.92241 -16.03882,-11.72956 -23.87392,-17.85934 -7.65069,-5.99155 -15.41661,-11.96002 -22.46821,-18.61982 -8.22682,-7.74289 -11.68347,-17.69804 -8.20374,-28.73629 2.90361,-9.24076 6.63676,-18.29719 10.92295,-26.9849 5.25413,-10.6465 4.19409,-11.26869 14.67922,-3.18012 0.89876,0.69134 1.88967,1.29047 2.78839,2.00487 12.99702,10.32385 26.17829,20.44032 38.89881,31.10986 6.22197,5.23106 9.12558,12.60526 9.44817,21.61558 z"
       id="path1388" />
    <path
       style="fill:none;stroke:#000000;stroke-width:0.326613mm"
       d="m -532.03237,74.312936 c 0.0261,-19.472455 16.01583,-35.511297 35.4191,-35.534343 19.61071,0 35.44216,15.992764 35.55734,36.018265 0.13829,19.518552 -15.80833,35.580462 -35.28084,35.557412 -19.44944,-0.0229 -35.74179,-16.476703 -35.6956,-36.06438 z"
       id="path1390" />
    <path
       style="fill:none;stroke:#000000;stroke-width:0.326613mm"
       d="m -593.83726,150.98143 c -2.81141,-0.43786 -5.85328,-0.34562 -8.41112,-1.42873 -10.34689,-4.35537 -20.53249,-9.12558 -30.83333,-13.59614 -4.53972,-1.95877 -4.26327,-4.30926 -1.61314,-7.85812 8.2729,-10.99214 15.99278,-22.42211 24.54219,-33.183839 5.06974,-6.383256 10.87691,-12.328701 17.09888,-17.582805 5.92247,-5.000634 13.66534,-7.143754 21.03953,-4.424515 11.75263,4.35539 23.09039,9.886018 34.56651,15.024893 2.85747,1.267459 3.38749,3.295357 1.3365,5.945445 -2.81142,3.617952 -5.34632,7.466351 -8.15774,11.084321 -9.24078,11.91391 -18.2511,24.03522 -27.92968,35.60349 -5.41543,6.47545 -12.67439,10.41605 -21.66166,10.39298 z"
       id="path1392" />
    <path
       style="fill:none;stroke:#000000;stroke-width:0.326613mm"
       d="m -415.86598,142.77762 c -16.59192,0.3918 -27.4919,-7.4894 -33.46039,-22.39907 -3.31835,-8.31901 -5.66887,-17.00671 -8.80293,-25.417897 -1.56703,-4.171018 -0.13822,-5.415425 3.82535,-5.968465 17.21414,-2.419669 34.33602,-5.369326 51.59627,-7.443322 17.7902,-2.120075 28.89755,4.28624 36.15652,20.809014 3.8254,8.71075 6.40636,17.97457 9.58646,26.96187 1.15224,3.24926 -0.53002,4.72409 -3.3645,5.25411 -3.57187,0.66827 -7.16678,1.08308 -10.76168,1.6131 -14.90966,2.1892 -29.84241,4.40147 -44.75208,6.59066 z"
       id="path1394" />
    <path
       style="fill:none;stroke:#000000;stroke-width:0.326613mm"
       d="m -399.781,-1.6641735 c 1.52093,0 3.08796,-0.2073989 4.58586,0.022863 13.50396,2.23530982 25.04918,9.148599 36.5944,15.8775415 0.8987,0.506968 1.06003,4.217123 0.18434,5.507588 -5.11583,7.627669 -10.39299,15.140129 -16.06191,22.376053 -7.1898,9.148599 -14.31053,18.412401 -22.35299,26.800535 -6.36022,6.659805 -15.25534,10.070384 -24.19652,7.005478 -12.02913,-4.124946 -23.48215,-9.93209 -35.16566,-15.070991 -3.45661,-1.52093 -2.97274,-3.779279 -1.01394,-6.383263 3.6871,-4.885411 7.14375,-9.932116 10.89998,-14.771409 8.31901,-10.715614 16.45367,-21.592542 25.2566,-31.8933384 5.36935,-6.2680596 12.55915,-9.9781947 21.2469,-9.4712203 z"
       id="path1396" />
    <path
       style="fill:none;stroke:#000000;stroke-width:0.326613mm"
       d="m -577.42975,6.0556396 c 15.80837,-0.3687455 26.61618,6.9132954 32.60769,21.0394624 3.7793,8.941187 6.56765,18.320238 9.77074,27.514935 1.06006,3.087931 -0.13848,4.608861 -3.36443,5.069731 -17.95154,2.534886 -35.85696,5.668922 -53.87767,7.581591 -12.90479,1.359609 -25.0261,-2.120068 -31.24807,-14.610096 -5.41543,-10.853875 -8.98726,-22.652576 -13.02001,-34.151694 -0.3227,-0.944824 1.70524,-3.687082 3.08792,-4.10188 3.43361,-1.036982 7.12068,-1.221342 10.71564,-1.751375 15.11706,-2.212257 30.211,-4.4014758 45.32819,-6.6137202 z"
       id="path1398" />
    <path
       style="fill:none;stroke:#000000;stroke-width:0.326613mm"
       d="m -428.65553,-7.1487355 c -0.0922,13.9418334 -4.97758,25.2105005 -17.72108,31.3633245 -9.58647,4.631927 -19.91033,7.719846 -29.91159,11.499118 -3.45665,1.313531 -5.30013,0.506968 -5.87624,-3.456651 -1.52093,-10.392993 -3.52578,-20.716841 -4.95451,-31.109834 -1.19828,-8.7107554 -2.32754,-17.467609 -2.65009,-26.224449 -0.55302,-14.679233 5.96845,-25.556161 19.61071,-31.363331 8.7799,-3.733175 17.9285,-6.567636 26.82363,-9.955149 3.91759,-1.497878 5.76112,-0.207399 6.33724,3.710135 2.76531,18.527643 5.55364,37.03224 8.31895,55.5598823 z"
       id="path1400" />
    <path
       style="fill:none;stroke:#000000;stroke-width:0.265328mm"
       d="M 468.9645,81.837993 C 509.77478,94.02491 549.51814,91.497612 588.40018,74.068992 549.79885,55.760439 510.0182,54.038251 468.94582,65.513772 505.80612,44.865243 532.68841,15.717744 547.10318,-24.34379 527.27833,-18.1286 510.20541,-7.476762 494.87346,6.0580183 479.46658,19.63021 467.44815,35.954325 457.07708,53.776161 c 9.79074,-34.595151 10.05284,-68.965781 -1.12324,-103.167769 -1.85331,-5.653493 -4.28695,-11.119823 -7.28218,-16.530116 -17.55974,38.93835 -20.08693,78.606668 -7.93737,119.491991 -20.94809,-36.897875 -50.47007,-63.63047 -90.64394,-77.98888 15.06986,39.855534 41.91484,69.302747 78.90622,90.082189 -40.9975,-11.7002 -80.77827,-9.884352 -120.59644,8.030986 24.9168,12.580026 69.37757,23.531471 120.35303,8.162057 -36.95386,20.891831 -63.55544,50.769511 -78.85008,90.699981 19.71261,-6.64566 36.89777,-17.40984 52.49181,-30.98214 15.65018,-13.60965 27.91203,-29.93371 38.5264,-47.793015 -12.46774,40.641965 -9.75323,80.272815 7.30096,120.633905 7.37579,-12.99208 11.17602,-26.00257 13.0668,-39.21922 1.94697,-13.59093 2.90162,-27.5376 2.26515,-41.24092 -0.61773,-13.4599 -3.80023,-26.82625 -5.76578,-39.687154 19.9184,36.317444 49.38419,63.087614 89.20226,78.250974 -14.24612,-40.22986 -41.05359,-69.65834 -78.06375,-90.662517 z"
       id="path1402" />
    <path
       style="fill:none;stroke:#000000;stroke-width:0.05mm"
       d="m 754.0331,-65.4163 c -1.1438,0.027 -2.2852,0.121 -3.418,0.2813 l -1.3399,0.2148 -1.3281,0.2735 -1.3125,0.332 -1.2969,0.3828 c -0.8596,0.2769 -1.7092,0.5841 -2.5468,0.9219 -1.2696,0.5161 -2.5118,1.0966 -3.7227,1.7383 -2.0598,1.1008 -4.0397,2.3452 -5.9258,3.7226 -2.3385,1.7128 -4.5707,3.5664 -6.6836,5.5508 -1.5765,1.4872 -3.2481,2.8701 -5.0039,4.1406 -1.8539,1.3437 -3.834,2.5041 -5.91404,3.461 -2.60663,1.1877 -5.35608,2.0333 -8.17969,2.5156 -1.84527,0.3225 -3.71026,0.5201 -5.58203,0.5938 l -2.50781,0.094 c -1.99274,0.086 -3.98047,0.2634 -5.95703,0.5313 -1.9292,0.253 -3.84247,0.6153 -5.73047,1.0859 -0.92547,0.2303 -1.84405,0.4874 -2.75391,0.7734 -0.90008,0.2853 -1.79003,0.6018 -2.66796,0.9492 l -1.29688,0.5391 -1.27344,0.5859 -1.24218,0.6368 -1.21875,0.6836 -1.1875,0.7343 -1.15625,0.7852 -1.1211,0.8398 c -3.0874,2.4224 -5.69476,5.4007 -7.6875,8.7813 -1.11456,1.8835 -2.06518,3.8594 -2.83984,5.9062 -1.20917,3.1045 -2.04321,6.3423 -2.48438,9.6446 -0.46746,3.4918 -0.39294,7.0351 0.22266,10.5039 0.43207,2.3716 1.12219,4.6888 2.05859,6.9101 l 0.58985,1.3164 0.64843,1.293 0.69922,1.2695 0.76172,1.2422 0.8125,1.2188 0.86328,1.1953 0.91797,1.168 0.97266,1.1406 1.01953,1.1133 1.07031,1.0898 1.1211,1.0547 1.16796,1.0312 1.21485,1 1.26172,0.9727 c 4.08325,3.0145 8.27868,5.8732 12.57812,8.5703 l 3.2461,2.0117 c 3.26928,1.9887 6.56884,3.9262 9.89843,5.8125 l 13.42969,7.4375 13.42187,7.4102 c 1.6605,0.9307 3.3727,1.7657 5.1289,2.5 1.0554,0.4475 2.1195,0.8749 3.1914,1.2812 2.88,1.05253 5.7527,2.13126 8.6133,3.23441 -0.2714,1.45447 -0.5696,2.90424 -0.8945,4.34766 -1.855,-0.18848 -3.7137,-0.34479 -5.5742,-0.46875 l -1.3907,-0.13672 -1.375,-0.1875 c -0.9079,-0.14185 -1.8058,-0.34253 -2.6875,-0.60156 l -7.3203,-2.26563 -7.3047,-2.3164 -14.59763,-4.68361 c -4.86676,-1.5585 -9.73309,-3.0865 -14.61719,-4.5898 -4.87695,-1.4976 -9.77692,-2.9319 -14.69141,-4.3008 l -1.10937,-0.2774 -1.12891,-0.2265 -1.14453,-0.1797 c -1.56543,-0.2086 -3.14343,-0.3091 -4.72265,-0.3008 -2.01099,0.01 -4.01972,0.1362 -6.01563,0.3828 -2.53314,0.3003 -5.0484,0.736 -7.53516,1.3047 -1.79699,0.4242 -3.57037,0.9431 -5.3125,1.5547 -2.04803,0.7233 -4.0426,1.5899 -5.96875,2.5937 -1.45562,0.7637 -2.86315,1.6155 -4.21484,2.5508 -0.65417,0.4523 -1.29358,0.9254 -1.91797,1.418 -1.211,0.9606 -2.35809,1.9991 -3.43359,3.1094 -1.29926,1.34134 -2.48029,2.79227 -3.53125,4.33591 -0.8194,1.20947 -1.55145,2.47577 -2.19141,3.78907 -1.27295,2.61157 -2.15869,5.39471 -2.6289,8.26171 l -0.16016,1.08594 c -0.37134,2.99091 -0.32129,6.01904 0.14844,8.9961 0.307,1.97344 0.77832,3.91784 1.41015,5.8125 0.52906,1.60156 1.15735,3.1687 1.88282,4.6914 0.96875,2.03101 2.08093,3.99042 3.32812,5.86328 0.79706,1.19599 1.64142,2.35962 2.53125,3.48828 1.88611,2.36377 3.67151,4.80603 5.35156,7.32032 1.59693,2.38781 3.04749,4.87017 4.34375,7.43359 1.45459,2.8819 2.65064,5.88727 3.57422,8.98047 0.95294,3.22101 1.59119,6.52692 1.90625,9.87109 0.0866,0.88245 0.15174,1.76679 0.19531,2.65235 0.0933,1.8518 0.28925,3.69708 0.58594,5.52734 0.21851,1.32971 0.49744,2.64874 0.83594,3.95313 0.44159,1.69073 0.9975,3.34948 1.66406,4.96484 0.32996,0.79065 0.68701,1.5697 1.07031,2.33594 0.38752,0.75726 0.80072,1.50097 1.23829,2.23047 l 0.68359,1.07031 c 0.47009,0.70556 0.9679,1.39233 1.49219,2.05859 l 0.8125,0.98438 0.85547,0.94922 0.89843,0.91796 0.94532,0.88672 0.98828,0.85157 1.03515,0.8125 1.07813,0.78125 1.125,0.74218 1.17578,0.70313 c 0.60596,0.34399 1.22095,0.67193 1.84375,0.98437 1.53229,0.74958 3.11285,1.39612 4.73047,1.9375 0.96075,0.32074 1.93115,0.61121 2.91015,0.8711 l 1.44532,0.35156 1.4375,0.29297 1.42968,0.24219 1.42188,0.1875 1.41016,0.1289 1.39843,0.0781 1.38672,0.0234 1.3711,-0.0312 1.36328,-0.082 1.34765,-0.13672 1.33203,-0.1914 1.31641,-0.24219 1.29688,-0.29687 1.28515,-0.34766 1.26172,-0.39844 1.25,-0.44922 1.22656,-0.5039 1.20313,-0.55078 1.1875,-0.60547 1.16406,-0.65625 1.14063,-0.70313 1.11718,-0.7539 1.09375,-0.80469 1.06641,-0.85547 1.04297,-0.90234 1.01562,-0.95313 0.99219,-1.00391 0.96094,-1.04687 0.92969,-1.09766 c 1.08758,-1.38061 2.14611,-2.78271 3.17578,-4.20703 0.74633,-1.02698 1.48663,-2.06042 2.21875,-3.09765 l 2.17186,-3.13282 c 1.4341,-2.10162 2.84,-4.22101 4.2188,-6.35937 2.7561,-4.28986 5.4371,-8.63068 8.039,-13.01563 1.9571,-3.29602 3.8882,-6.59436 5.8047,-9.91406 l 7.6328,-13.26953 c 0.7613,-1.31995 1.4636,-2.67279 2.1055,-4.05469 0.859,-1.85773 1.6515,-3.7456 2.375,-5.66015 l 0.5469,-1.44532 c 0.7057,-1.93383 1.409,-3.88794 2.0976,-5.82812 l 1.0625,-2.91016 1.1133,-2.8789 4.0078,0.33203 0.039,1.32812 c 0.058,0.89643 0.1253,1.7926 0.2031,2.6875 0.058,0.66547 0.099,1.3324 0.1211,2 0.039,0.862 0.01,1.72583 -0.1016,2.58203 -0.055,0.41352 -0.1364,0.823 -0.2421,1.22657 l -0.1836,0.58984 c -1.4163,4.0271 -2.8819,8.03308 -4.3985,12.02344 l -2.2812,5.98828 c -1.5324,3.97882 -3.0452,7.9823 -4.5274,11.98047 -1.4884,3.99145 -2.9035,8.00781 -4.2461,12.05078 -0.6709,2.01648 -1.313,4.04315 -1.9257,6.07812 l -0.461,1.63672 -0.4062,1.66016 -0.3555,1.67969 c -0.3316,1.69744 -0.5974,3.40698 -0.7969,5.125 -0.2726,2.31549 -0.4642,4.63983 -0.5742,6.96875 -0.061,1.16973 -0.1094,2.34082 -0.1445,3.51171 -0.067,2.3302 -0.1195,4.65326 -0.1563,6.98438 -0.012,0.948 -1e-4,1.89636 0.035,2.84375 0.04,0.92346 0.1037,1.84546 0.1914,2.76562 0.092,0.89747 0.2077,1.79236 0.3476,2.6836 0.1414,0.87366 0.3111,1.74255 0.5079,2.60547 0.1968,0.84552 0.421,1.68451 0.6718,2.51562 l 0.3946,1.22656 0.4336,1.20313 c 0.3061,0.78943 0.6387,1.5683 0.996,2.33594 0.5407,1.14257 1.1431,2.255 1.8047,3.33203 0.4455,0.71759 0.917,1.41864 1.4141,2.10156 0.5034,0.6875 1.0325,1.35602 1.5859,2.00391 0.5619,0.65582 1.1485,1.29028 1.7578,1.90234 l 0.9415,0.91016 c 0.6517,0.60485 1.3242,1.18701 2.0156,1.74609 0.7131,0.56995 1.4457,1.11566 2.1953,1.63672 l 1.1641,0.77734 c 1.2187,0.77851 2.4725,1.50098 3.7578,2.16407 2.1742,1.11474 4.4519,2.01477 6.8007,2.6875 l 1.3438,0.34765 1.332,0.28906 1.3282,0.22657 1.3203,0.16797 1.3086,0.11328 1.3007,0.0508 1.293,-0.004 1.2813,-0.0586 1.2734,-0.11328 1.2617,-0.16797 1.25,-0.21875 1.2422,-0.27344 c 0.8228,-0.20044 1.6372,-0.4339 2.4414,-0.69922 l 1.2031,-0.42187 c 0.8012,-0.30109 1.5909,-0.63202 2.3672,-0.99219 1.1787,-0.55084 2.3275,-1.16357 3.4414,-1.83594 l 1.1172,-0.69922 c 1.1227,-0.7326 2.2088,-1.51983 3.2539,-2.35937 1.0755,-0.8606 2.1117,-1.76898 3.1055,-2.72266 1.8378,-1.77637 3.7984,-3.42078 5.8672,-4.92187 3.8346,-2.77839 8.0641,-4.96643 12.5469,-6.49219 2.986,-1.01154 6.0513,-1.7721 9.164,-2.27344 2.4498,-0.40137 4.9175,-0.68439 7.3945,-0.84765 1.8477,-0.12702 3.6873,-0.34998 5.5118,-0.66797 1.7606,-0.30713 3.5018,-0.7168 5.2148,-1.22657 0.8342,-0.2564 1.6613,-0.53515 2.4805,-0.83593 1.2064,-0.45392 2.3889,-0.96894 3.5429,-1.54297 0.7592,-0.38202 1.5044,-0.79138 2.2344,-1.22656 l 1.0742,-0.67579 1.0469,-0.71875 1.0156,-0.75781 0.9883,-0.80078 0.9571,-0.84375 0.9218,-0.89062 0.8946,-0.9336 0.8554,-0.97656 0.8242,-1.02344 0.7891,-1.0664 0.75,-1.11719 0.7149,-1.16406 0.6757,-1.20704 c 0.9088,-1.71289 1.682,-3.49438 2.3125,-5.32812 l 0.4766,-1.46484 0.4219,-1.46094 0.3672,-1.45313 0.3046,-1.44922 0.254,-1.4414 0.1953,-1.42969 0.1445,-1.42578 0.086,-1.41016 0.031,-1.39843 -0.024,-1.39063 -0.078,-1.37109 -0.1328,-1.35938 -0.1836,-1.34375 -0.2383,-1.32812 -0.2929,-1.3086 -0.3438,-1.28906 -0.3945,-1.26953 -0.4492,-1.25 -0.5039,-1.23047 -0.5508,-1.20312 -0.6055,-1.1836 -0.6562,-1.15625 -0.7071,-1.1289 -0.7539,-1.10547 -0.8086,-1.07422 -0.8554,-1.04688 -0.9063,-1.01953 -0.957,-0.98437 -1.0039,-0.95703 -1.0547,-0.92188 -1.1016,-0.88672 -1.1523,-0.85547 c -4.8333,-3.41906 -9.7735,-6.68512 -14.8125,-9.79297 -5.0583,-3.11645 -10.1748,-6.14099 -15.3438,-9.07031 l -15.5976,-8.71875 -15.5625,-8.72656 c -0.9773,-0.55609 -1.9755,-1.07446 -2.9922,-1.55469 -1.0191,-0.48297 -2.0481,-0.94555 -3.086,-1.38672 -2.1046,-0.87109 -4.2004,-1.76599 -6.2851,-2.68359 l 1.3359,-4.67969 c 2.1587,0.48572 4.374,0.9784 6.5352,1.45313 2.1836,0.48132 4.35,1.03643 6.4961,1.66406 l 15.0273,4.42969 15.0274,4.46875 c 10.0069,2.99365 20.0533,5.93554 30.0937,8.8125 0.6001,0.16613 1.2105,0.29254 1.8281,0.37109 1.0583,0.13446 2.1248,0.19452 3.1914,0.17969 1.7431,-0.0455 3.4842,-0.0988 5.2266,-0.16016 1.9407,-0.0236 3.879,-0.1394 5.8086,-0.34765 1.3905,-0.15217 2.7743,-0.35932 4.1484,-0.6211 1.3341,-0.25745 2.6559,-0.57489 3.961,-0.95312 1.2733,-0.37256 2.5278,-0.80726 3.7578,-1.30469 l 1.207,-0.51563 1.1797,-0.55859 c 0.7772,-0.38721 1.5405,-0.802 2.2891,-1.24219 0.7447,-0.44623 1.473,-0.91919 2.1836,-1.41797 l 1.0507,-0.77734 1.0235,-0.82422 0.9961,-0.86719 0.9687,-0.91406 0.9375,-0.96484 0.9102,-1.01172 0.8789,-1.0625 0.8476,-1.11328 0.8204,-1.16016 0.7851,-1.21484 c 0.3897,-0.62995 0.7631,-1.26953 1.1211,-1.91797 1.2072,-2.18286 2.2003,-4.47723 2.9649,-6.85156 0.4899,-1.53852 0.8608,-3.11225 1.1132,-4.70703 l 0.1797,-1.32422 0.1172,-1.3125 0.059,-1.30469 v -1.29688 l -0.055,-1.28515 c -0.056,-0.84827 -0.1467,-1.69391 -0.2695,-2.53516 l -0.2188,-1.25392 c -0.1623,-0.831 -0.3556,-1.6557 -0.5781,-2.4727 -0.232,-0.817 -0.4906,-1.6263 -0.7773,-2.4258 -0.2915,-0.8043 -0.6115,-1.598 -0.961,-2.3789 -0.7107,-1.5867 -1.5223,-3.1263 -2.4297,-4.6093 -1.1718,-1.9054 -2.47,-3.7299 -3.8867,-5.461 -0.5792,-0.7097 -1.1761,-1.405 -1.789,-2.0859 -1.5454,-1.7091 -3.013,-3.487 -4.3985,-5.3281 -1.523,-2.0256 -2.8949,-4.1603 -4.1054,-6.3868 -2.4156,-4.4598 -4.0013,-9.3213 -4.6797,-14.3476 -0.268,-1.9765 -0.4214,-3.9668 -0.461,-5.961 -0.038,-1.9455 -0.1856,-3.8873 -0.4414,-5.8164 -0.1255,-0.946 -0.2804,-1.8879 -0.4648,-2.8242 l -0.2969,-1.3867 c -0.2112,-0.9126 -0.4523,-1.818 -0.7226,-2.7148 l -0.4258,-1.3243 -0.4688,-1.3047 -0.5195,-1.2773 -0.5625,-1.2539 -0.6055,-1.2266 -0.6562,-1.1992 -0.7032,-1.168 -0.75,-1.1367 -0.8007,-1.1093 -0.8516,-1.0704 -0.8984,-1.039 c -2.2339,-2.4622 -4.8462,-4.552 -7.7383,-6.1914 -2.5088,-1.4171 -5.1742,-2.5369 -7.9414,-3.3399 -2.7724,-0.8341 -5.6233,-1.3808 -8.5078,-1.6289 l -1.5039,-0.094 -1.4922,-0.035 -1.4766,0.024 -1.457,0.082 -1.4453,0.1445 -1.4258,0.1992 -1.4063,0.2578 -1.3906,0.3125 -1.3711,0.3711 -1.3476,0.4297 -1.3282,0.4805 -1.3086,0.5352 -1.2851,0.5898 -1.2617,0.6445 -1.2383,0.6953 -1.211,0.75 -1.1914,0.8008 -1.1601,0.8516 -1.1367,0.9023 -1.1094,0.9532 c -0.7339,0.6594 -1.4453,1.3432 -2.1328,2.0507 l -1.0196,1.1016 -0.9921,1.1445 -0.9649,1.1953 -0.9297,1.2383 c -1.4798,2.0639 -2.9218,4.1562 -4.3242,6.2735 l -2.082,3.1953 -2.0352,3.2304 c -2.0101,3.2553 -3.9659,6.5433 -5.8672,9.8633 l -1.8945,3.3281 -7.4297,13.4336 -7.4414,13.418 c -0.6652,1.1998 -1.2817,2.426 -1.8476,3.6758 l -0.836,1.8867 -0.789,1.9063 c -1.0091,2.5703 -2.0411,5.1286 -3.0977,7.6796 -1.8557,-0.7336 -3.7072,-1.4555 -5.5703,-2.1718 l 0.055,-0.1094 2.1992,-6.2461 c 0.548,-1.5583 1.0674,-3.126 1.5586,-4.7031 l 4.5625,-15.2422 c 2.0549,-6.8745 4.053,-13.6148 6.0781,-20.5 1.9985,-6.8121 3.9883,-13.7024 5.9297,-20.5313 0.2236,-0.814 0.3971,-1.6412 0.5195,-2.4765 l 0.1602,-1.2735 0.1055,-1.2851 c 0.093,-1.7175 0.091,-3.439 -0.01,-5.1563 -0.1265,-2.5348 -0.372,-5.0622 -0.7343,-7.5742 -0.2825,-1.9352 -0.6591,-3.8555 -1.1289,-5.7539 -0.3454,-1.3849 -0.7535,-2.7535 -1.2227,-4.1016 l -0.4844,-1.3203 -0.5312,-1.2929 -0.5703,-1.2696 -0.6172,-1.2422 -0.6641,-1.2187 -0.7109,-1.1875 -0.7578,-1.1563 -0.8125,-1.1289 -0.8633,-1.0976 -0.9141,-1.0625 c -2.326,-2.5654 -5.0383,-4.752 -8.039,-6.4805 -2.8062,-1.638 -5.8044,-2.922 -8.9258,-3.8242 -3.031,-0.8702 -6.1753,-1.2831 -9.3281,-1.2188 z"
       id="path1408" />
    <rect
       style="fill:none;stroke:#000000;stroke-width:0.05mm"
       x="1017.8993"
       y="51.707336"
       width="160"
       height="121.08533"
       id="rect1746" />
    <path
       style="fill:#ff0000;fill-rule:evenodd;stroke:none"
       d="m 1144.1808,149.4895 c -0.044,0.4417 -0.05,0.8899 -0.1406,1.3215 -0.5755,2.784 -1.6294,5.3838 -3.3426,7.6458 -0.8901,1.1743 -2.0075,2.2217 -3.1753,3.125 -1.121,0.8667 -2.4626,0.7729 -3.6975,0.077 -1.6528,-0.9336 -2.9643,-2.2485 -3.9917,-3.8278 -1.0505,-1.6163 -1.0739,-3.1553 0.1907,-4.6143 1.0408,-1.1978 2.2654,-2.3052 3.5903,-3.1753 2.4561,-1.606 5.1329,-2.7905 8.1375,-2.9077 1.8335,-0.073 2.4092,0.5422 2.4292,2.3591 z"
       id="path4134" />
    <path
       style="fill:#ff0000;fill-rule:evenodd;stroke:none"
       d="m 1169.6639,155.616 c -0.1975,0.5957 -0.2475,1.3115 -0.6223,1.7634 -1.1242,1.3584 -2.2719,2.7368 -3.6071,3.8779 -1.5357,1.315 -3.1653,1.2078 -4.8147,-0.013 -1.5494,-1.1477 -2.6668,-2.6633 -3.5938,-4.3296 -1.2781,-2.2988 -2.2886,-4.6912 -2.533,-7.3479 -0.1572,-1.7197 0.482,-2.5029 2.1985,-2.4292 1.0706,0.047 2.1614,0.2075 3.1888,0.512 3.0481,0.9033 5.8486,2.292 8.0805,4.6242 0.8699,0.9099 1.6028,1.9339 1.7031,3.3391 z"
       id="path4136" />
    <path
       style="fill:#ff0000;fill-rule:evenodd;stroke:none"
       d="m 1144.1473,133.7432 c 0.03,2.6198 -0.6491,3.2089 -2.7136,2.998 -2.1982,-0.2241 -4.1958,-1.0271 -6.1433,-1.9975 -2.0342,-1.014 -3.9014,-2.2586 -5.2798,-4.1089 -1.2214,-1.6394 -1.2883,-3.2456 0,-4.8181 0.9768,-1.1912 2.1079,-2.2955 3.3157,-3.2559 1.5024,-1.1978 3.2156,-1.2246 4.6812,0.013 1.2111,1.0239 2.3254,2.242 3.2087,3.5569 1.6396,2.4426 2.7002,5.1563 2.9277,7.6121 z"
       id="path4138" />
    <path
       style="fill:#ff0000;fill-rule:evenodd;stroke:none"
       d="m 1155.2394,121.9888 c 0,0 0.033,0.01 0.05,0.01 -0.1103,0.8533 -0.1572,1.7165 -0.3413,2.553 -0.6423,2.9345 -1.7231,5.6916 -3.6338,8.0505 -1.3784,1.6997 -2.5295,1.7397 -3.8444,0.027 -2.6634,-3.4763 -4.1458,-7.3945 -3.9114,-11.8381 0.1137,-2.1346 1.238,-3.5567 3.3493,-3.8645 1.5994,-0.231 3.2825,-0.2342 4.8851,-0.014 2.0444,0.281 3.0314,1.469 3.3527,3.5 0.084,0.5186 0.067,1.054 0.094,1.5794 z"
       id="path4140" />
    <path
       style="fill:#ff0000;fill-rule:evenodd;stroke:none"
       d="m 1149.4139,167.0525 c -0.5554,0 -1.1108,0.013 -1.6662,0 -2.4995,-0.077 -4.0689,-1.5559 -4.1926,-4.0452 -0.2207,-4.4133 1.2949,-8.2947 3.8847,-11.7678 1.3318,-1.7869 2.5296,-1.7903 3.8645,0 2.6099,3.4966 4.1292,7.4045 3.8748,11.8513 -0.1372,2.3958 -1.6897,3.8648 -4.0989,3.9585 -0.5554,0.02 -1.1108,0 -1.6663,0.01 z"
       id="path4142" />
    <path
       style="fill:#ff0000;fill-rule:evenodd;stroke:none"
       d="m 1169.714,128.0049 c -0.241,0.7695 -0.2876,1.4421 -0.6289,1.8938 -0.773,1.0339 -1.5693,2.1179 -2.5733,2.9009 -2.7871,2.165 -5.9389,3.5769 -9.4924,3.9685 -1.9172,0.2107 -2.7136,-0.5889 -2.5195,-2.4995 0.01,-0.057 0.02,-0.1104 0.023,-0.1641 0.251,-2.6265 1.2647,-4.9922 2.5362,-7.2608 0.9035,-1.6127 1.9709,-3.0949 3.5,-4.1892 1.78,-1.278 3.3659,-1.3115 5.0256,0.09 1.0974,0.927 2.1213,1.9675 3.0381,3.0749 0.5188,0.6292 0.7529,1.4925 1.0876,2.1885 z"
       id="path4144" />
    <path
       style="fill:#ff0000;fill-rule:evenodd;stroke:none"
       d="m 1174.5993,141.8672 c -0.023,0 -0.047,0 -0.074,0.01 0,0.5286 0.017,1.0574 0,1.5825 -0.09,2.5364 -1.6662,4.1626 -4.1892,4.2696 -4.323,0.1806 -8.1374,-1.2747 -11.5537,-3.8076 -1.8469,-1.3687 -1.8704,-2.6368 -0.043,-3.9986 3.48,-2.5932 7.3714,-4.0788 11.7913,-3.8244 2.1047,0.1203 3.3997,1.228 3.8447,3.2959 0.1739,0.8064 0.1573,1.6494 0.2276,2.4792 z"
       id="path4146" />
    <path
       style="fill:#ff0000;fill-rule:evenodd;stroke:none"
       d="m 1149.4743,148.5859 c -3.8348,0.077 -6.6487,-2.5964 -6.7356,-6.4008 -0.094,-4.1255 2.5363,-6.9229 6.5749,-6.993 3.811,-0.064 6.6116,2.6399 6.6919,6.4578 0.084,4.0955 -2.5127,6.8557 -6.5312,6.936 z"
       id="path4148" />
    <path
       style="fill:#ff0000;fill-rule:evenodd;stroke:none"
       d="m 1124.2086,141.8706 v 0 c 0,-0.4451 -0.01,-0.8899 0,-1.3318 0.047,-2.8674 1.5693,-4.363 4.4568,-4.4802 3.0684,-0.1238 5.8789,0.7664 8.5425,2.1448 1.2412,0.6425 2.4123,1.4824 3.4663,2.4026 0.9905,0.863 0.9101,1.6125 0.037,2.5964 -0.164,0.1872 -0.3378,0.3747 -0.5354,0.522 -3.5534,2.6533 -7.4816,4.2226 -11.9853,3.9817 -2.4426,-0.1307 -3.8948,-1.7066 -3.9751,-4.1724 -0.017,-0.5554 0,-1.1111 0,-1.6665 z"
       id="path4150" />
    <path
       style="fill:#ff0000;fill-rule:evenodd;stroke:none"
       d="m 1127.2589,58.8979 c 0.5518,0.031 1.0259,0.4029 1.1868,0.9314 0.08,0.3028 0.1128,0.6158 0.097,0.9285 h -2.5039 l 0.035,0.2644 c 0.067,0.458 0.4333,0.8142 0.893,0.8687 0.5015,0.057 1.0081,-0.044 1.4492,-0.2893 v 0.5151 c -0.5554,0.2527 -1.1779,0.3191 -1.7741,0.1897 -0.6697,-0.1692 -1.1455,-0.7637 -1.1638,-1.4543 -0.071,-0.533 0.086,-1.0716 0.4323,-1.4832 0.3506,-0.3599 0.8499,-0.5342 1.3484,-0.471 z m -0.3735,0.4705 -0.1936,0.048 c -0.3804,0.1463 -0.6326,0.511 -0.6345,0.9187 h 1.9411 c 0.028,-0.385 -0.1845,-0.7478 -0.5337,-0.9126 -0.1855,-0.067 -0.385,-0.084 -0.5793,-0.051 z"
       id="path4152" />
    <path
       style="fill:#ff0000;fill-rule:evenodd;stroke:none"
       d="m 1120.8405,58.897 c 0.4292,-0.01 0.8313,0.2114 1.0559,0.5771 0.1443,0.2844 0.2131,0.6013 0.1997,0.9199 v 1.8912 h -0.5445 v -0.503 l -0.099,0.1409 c -0.2571,0.3083 -0.6462,0.4748 -1.0469,0.4482 -0.3688,0.027 -0.7253,-0.1406 -0.9406,-0.4411 -0.2432,-0.4019 -0.2271,-0.9082 0.041,-1.2935 0.1645,-0.1887 0.3855,-0.3193 0.6303,-0.3723 0.2132,-0.05 0.4314,-0.074 0.6504,-0.071 h 0.7644 c 0.043,-0.3623 -0.1906,-0.7005 -0.5444,-0.7896 -0.5,-0.1099 -1.0227,-0.031 -1.468,0.2214 v -0.5039 c 0.4114,-0.1718 0.8562,-0.2485 1.3013,-0.2243 z m 0.1694,1.7224 -0.3047,0.01 c -0.2117,0 -0.4209,0.047 -0.6101,0.1411 -0.2437,0.177 -0.3298,0.5 -0.2068,0.7749 0.1216,0.2498 0.386,0.3972 0.6624,0.3699 0.4333,0.01 0.8183,-0.2766 0.9323,-0.6948 0.052,-0.1958 0.076,-0.398 0.069,-0.6006 z"
       id="path4154" />
    <path
       style="fill:#ff0000;fill-rule:evenodd;stroke:none"
       d="m 1110.1718,58.8979 c 0.5517,0.031 1.0258,0.4029 1.1867,0.9314 0.08,0.3028 0.1128,0.6158 0.097,0.9285 h -2.5036 l 0.035,0.2644 c 0.067,0.458 0.4334,0.8145 0.8931,0.8687 0.5015,0.057 1.0078,-0.044 1.449,-0.2893 v 0.5151 c -0.5554,0.2524 -1.1777,0.3191 -1.7739,0.1897 -0.67,-0.1689 -1.1458,-0.7637 -1.1639,-1.4543 -0.071,-0.533 0.086,-1.0716 0.4322,-1.4832 0.3508,-0.3599 0.8498,-0.5342 1.3484,-0.471 z m -0.3736,0.4705 -0.1936,0.048 c -0.3803,0.1465 -0.6323,0.5113 -0.6345,0.9187 h 1.9414 c 0.027,-0.3852 -0.1848,-0.7478 -0.5339,-0.9126 -0.1856,-0.067 -0.385,-0.084 -0.5794,-0.051 z"
       id="path4156" />
    <path
       style="fill:#ff0000;fill-rule:evenodd;stroke:none"
       d="m 1107.4996,62.2852 h -0.5446 v -0.4971 l -0.091,0.1382 c -0.4039,0.4834 -1.1016,0.5935 -1.6346,0.2578 -0.2929,-0.2031 -0.5046,-0.5032 -0.5974,-0.8474 -0.1665,-0.565 -0.1247,-1.1712 0.1179,-1.7078 0.2845,-0.6172 1.0022,-0.9055 1.6346,-0.657 0.2436,0.094 0.446,0.2722 0.5708,0.5017 v -1.7934 h 0.5446 z m -1.6779,-2.917 -0.1812,0.064 c -0.2475,0.1419 -0.4219,0.3833 -0.4787,0.6629 -0.1102,0.4277 -0.083,0.8794 0.077,1.291 0.1558,0.3943 0.5808,0.6118 0.9917,0.5076 0.3406,-0.098 0.5969,-0.3787 0.6624,-0.7271 0.1108,-0.4277 0.084,-0.8794 -0.078,-1.2908 -0.157,-0.3943 -0.5823,-0.6115 -0.9936,-0.5075 z"
       id="path4158" />
    <path
       style="fill:#ff0000;fill-rule:evenodd;stroke:none"
       d="m 1070.4015,57.7937 0.2078,0.02 c 0.3967,0.048 0.7783,0.1826 1.1176,0.3938 v 0.6365 c -0.6399,-0.574 -1.5542,-0.7256 -2.3449,-0.3887 -0.3843,0.2068 -0.6482,0.5835 -0.7115,1.0152 -0.1294,0.571 -0.069,1.1689 0.1717,1.7028 0.2461,0.4309 0.7036,0.6975 1.1997,0.6995 0.4153,0.05 0.8362,-0.027 1.2077,-0.2183 V 60.468 h -0.9763 v -0.4914 h 1.5681 v 1.8977 c -0.8183,0.5569 -1.8642,0.6552 -2.7719,0.2605 -0.5855,-0.3077 -0.9793,-0.8865 -1.0503,-1.544 -0.115,-0.6372 -0.012,-1.2947 0.2925,-1.8662 0.3527,-0.5608 0.9621,-0.9089 1.6245,-0.928 0.1548,-0.012 0.3103,-0.013 0.4653,0 z"
       id="path4160" />
    <path
       style="fill:#ff0000;fill-rule:evenodd;stroke:none"
       d="m 1097.0043,60.9565 c -0.018,0.2491 0.047,0.4971 0.1833,0.7061 0.135,0.1624 0.3399,0.25 0.5506,0.2353 0.4807,0.022 0.894,-0.3388 0.9367,-0.8183 l 0.016,-0.23 v -1.8789 h 0.5444 v 3.3145 h -0.5444 v -0.5096 l -0.1028,0.1414 c -0.2942,0.3686 -0.7737,0.5366 -1.2336,0.4321 -0.4051,-0.066 -0.7295,-0.3703 -0.8206,-0.7702 -0.052,-0.1961 -0.077,-0.3987 -0.074,-0.6016 v -2.0066 h 0.5445 z"
       id="path4162" />
    <path
       style="fill:#ff0000;fill-rule:evenodd;stroke:none"
       d="m 1094.3385,58.8979 0.1541,0.02 c 0.4895,0.082 0.8899,0.4358 1.0327,0.9111 0.08,0.3028 0.1128,0.6158 0.097,0.9285 h -2.5037 l 0.035,0.2644 c 0.067,0.458 0.4333,0.8145 0.8931,0.8687 0.5014,0.057 1.0078,-0.044 1.4489,-0.2893 v 0.5151 c -0.5554,0.2524 -1.1777,0.3191 -1.7739,0.1897 -0.6699,-0.1689 -1.1457,-0.7637 -1.1638,-1.4543 -0.071,-0.533 0.086,-1.0716 0.4321,-1.4832 0.3509,-0.3599 0.8499,-0.5342 1.3484,-0.471 z m -0.3735,0.4705 c -0.3968,0.053 -0.7156,0.3533 -0.7928,0.7461 l -0.035,0.2209 h 1.9415 c 0.027,-0.3852 -0.1849,-0.7478 -0.534,-0.9126 -0.1855,-0.067 -0.385,-0.084 -0.5793,-0.051 z"
       id="path4164" />
    <path
       style="fill:#ff0000;fill-rule:evenodd;stroke:none"
       d="m 1088.0355,58.897 0.1629,0.018 c 0.5866,0.056 1.0439,0.5361 1.0708,1.1247 0.015,0.1177 0.023,0.2361 0.022,0.3547 v 1.8912 h -0.5447 v -0.503 l -0.099,0.1409 c -0.257,0.3083 -0.6462,0.4748 -1.0468,0.4482 -0.3689,0.027 -0.7254,-0.1406 -0.9407,-0.4411 -0.2432,-0.4019 -0.2271,-0.9082 0.041,-1.2935 0.1645,-0.1887 0.3855,-0.3193 0.6304,-0.3723 0.2131,-0.05 0.4314,-0.074 0.6504,-0.071 h 0.7641 c 0.043,-0.3623 -0.1904,-0.7007 -0.5442,-0.7896 -0.5,-0.1099 -1.0227,-0.031 -1.468,0.2214 v -0.5039 c 0.4111,-0.1718 0.856,-0.2485 1.301,-0.2243 z m 0.1697,1.7224 c -0.3125,-0.024 -0.6265,0.028 -0.9148,0.1506 -0.2078,0.147 -0.3039,0.4055 -0.2429,0.6526 0.075,0.3171 0.3745,0.5286 0.6982,0.4922 0.4336,0.01 0.8186,-0.2766 0.9327,-0.6948 0.052,-0.1958 0.075,-0.3982 0.068,-0.6006 z"
       id="path4166" />
    <path
       style="fill:#ff0000;fill-rule:evenodd;stroke:none"
       d="m 1134.3544,58.8979 c 0.5517,0.031 1.0259,0.4029 1.187,0.9314 0.08,0.3028 0.1125,0.6158 0.097,0.9285 h -2.5037 l 0.035,0.2644 c 0.067,0.458 0.4333,0.8145 0.893,0.8687 0.5015,0.057 1.0078,-0.044 1.449,-0.2893 v 0.5151 c -0.5554,0.2524 -1.1777,0.3191 -1.7739,0.1897 -0.6699,-0.1692 -1.1458,-0.7637 -1.1638,-1.4543 -0.071,-0.533 0.086,-1.0716 0.4321,-1.4832 0.3508,-0.3599 0.8498,-0.5342 1.3484,-0.471 z m -0.3736,0.4705 -0.1936,0.048 c -0.3803,0.1465 -0.6323,0.5113 -0.6345,0.9187 h 1.9414 c 0.027,-0.3852 -0.1848,-0.7478 -0.5339,-0.9126 -0.1856,-0.067 -0.385,-0.084 -0.5794,-0.051 z"
       id="path4168" />
    <path
       style="fill:#ff0000;fill-rule:evenodd;stroke:none"
       d="m 1082.0299,58.8979 0.1541,0.02 c 0.4895,0.082 0.8899,0.4358 1.0327,0.9111 0.08,0.3028 0.1128,0.6158 0.097,0.9285 h -2.5039 l 0.035,0.2644 c 0.067,0.458 0.4333,0.8142 0.893,0.8687 0.5015,0.057 1.0081,-0.044 1.4492,-0.2893 v 0.5151 c -0.5554,0.2527 -1.1779,0.3191 -1.7741,0.1897 -0.67,-0.1692 -1.1455,-0.7637 -1.1636,-1.4543 -0.071,-0.533 0.086,-1.0716 0.4321,-1.4832 0.3506,-0.3599 0.8499,-0.5342 1.3484,-0.471 z m -0.3735,0.4705 c -0.3967,0.053 -0.7156,0.3533 -0.7927,0.7461 l -0.035,0.2209 h 1.9411 c 0.028,-0.385 -0.1846,-0.7478 -0.5337,-0.9126 -0.1855,-0.067 -0.385,-0.084 -0.5793,-0.051 z"
       id="path4170" />
    <path
       style="fill:#ff0000;fill-rule:evenodd;stroke:none"
       d="m 1137.8781,58.9023 c 0.2624,0.016 0.5207,0.072 0.7661,0.1661 v 0.5151 l -0.2346,-0.1035 c -0.4007,-0.1538 -0.8396,-0.176 -1.2537,-0.064 -0.2241,0.062 -0.3599,0.2905 -0.3074,0.5171 0.051,0.1621 0.1868,0.2827 0.354,0.313 0.2713,0.078 0.5449,0.1482 0.8203,0.2102 l 0.2271,0.081 c 0.4321,0.1499 0.6733,0.6108 0.5495,1.0513 -0.069,0.2849 -0.2712,0.5192 -0.5424,0.6303 -0.5337,0.1919 -1.1153,0.2041 -1.6563,0.035 l -0.3115,-0.09 v -0.5625 l 0.2998,0.1372 c 0.3823,0.1657 0.8049,0.2155 1.2153,0.1433 0.2066,-0.018 0.3824,-0.1594 0.4453,-0.357 0.061,-0.2048 -0.038,-0.4235 -0.2331,-0.5117 -0.3189,-0.1211 -0.648,-0.2129 -0.9834,-0.2741 l -0.2002,-0.075 c -0.3301,-0.1219 -0.5415,-0.4461 -0.52,-0.7972 -0.015,-0.4431 0.2964,-0.8315 0.7324,-0.9126 0.2729,-0.062 0.5542,-0.079 0.8328,-0.052 z"
       id="path4172" />
    <path
       style="fill:#ff0000;fill-rule:evenodd;stroke:none"
       d="m 1074.4608,58.8979 0.1541,0.02 c 0.4895,0.082 0.8899,0.4358 1.0327,0.9111 0.08,0.3028 0.1128,0.6158 0.097,0.9285 h -2.5039 l 0.035,0.2644 c 0.067,0.458 0.4333,0.8142 0.893,0.8687 0.5015,0.057 1.0081,-0.044 1.4492,-0.2893 v 0.5151 c -0.5554,0.2527 -1.1779,0.3191 -1.7741,0.1897 -0.6699,-0.1692 -1.1455,-0.7637 -1.1636,-1.4543 -0.071,-0.533 0.086,-1.0716 0.4321,-1.4832 0.3506,-0.3599 0.8499,-0.5342 1.3484,-0.471 z m -0.3735,0.4705 c -0.3967,0.053 -0.7156,0.3533 -0.7927,0.7461 l -0.035,0.2209 h 1.9411 c 0.028,-0.385 -0.1845,-0.7478 -0.5337,-0.9126 -0.1855,-0.067 -0.385,-0.084 -0.5793,-0.051 z"
       id="path4174" />
    <path
       style="fill:#ff0000;fill-rule:evenodd;stroke:none"
       d="m 1124.9183,58.8931 c 0.072,0 0.1443,0.014 0.2156,0.028 v 0.5585 c -0.4477,-0.2404 -1.0048,-0.079 -1.2548,0.3636 -0.098,0.2187 -0.146,0.4565 -0.1392,0.6963 v 1.7461 h -0.5474 v -3.3145 h 0.5474 v 0.5151 l 0.093,-0.1411 c 0.2603,-0.3254 0.6687,-0.4956 1.083,-0.4516 z"
       id="path4176" />
    <path
       style="fill:#ff0000;fill-rule:evenodd;stroke:none"
       d="m 1102.0585,58.8931 0.065,0.01 c 0.05,0.01 0.1006,0.013 0.1504,0.022 v 0.5585 c -0.4478,-0.2404 -1.0049,-0.079 -1.2549,0.3636 -0.098,0.2187 -0.1455,0.4565 -0.1389,0.6963 v 1.7461 h -0.5474 v -3.3145 h 0.5474 v 0.5151 l 0.092,-0.1411 c 0.2603,-0.3254 0.6685,-0.4956 1.0828,-0.4516 z"
       id="path4178" />
    <path
       style="fill:#ff0000;fill-rule:evenodd;stroke:none"
       d="m 1131.6642,62.2852 h -0.5444 v -4.605 h 0.5444 z"
       id="path4180" />
    <path
       style="fill:#ff0000;fill-rule:evenodd;stroke:none"
       d="m 1129.9806,62.2852 h -0.5447 v -4.605 h 0.5447 z"
       id="path4182" />
    <path
       style="fill:#ff0000;fill-rule:evenodd;stroke:none"
       d="m 1078.5045,58.9133 0.2334,0.066 c 0.2954,0.1269 0.512,0.3877 0.5825,0.7014 0.052,0.1968 0.077,0.3999 0.073,0.6033 v 2.001 h -0.5447 v -1.983 c 0.018,-0.2485 -0.046,-0.496 -0.1836,-0.7041 -0.1357,-0.1611 -0.3401,-0.2478 -0.5503,-0.2334 -0.4802,-0.023 -0.893,0.3382 -0.9348,0.8172 l -0.016,0.2302 v 1.8731 h -0.5473 v -3.3145 h 0.5473 v 0.5151 l 0.1023,-0.1401 c 0.2964,-0.3679 0.7766,-0.5359 1.2378,-0.4324 z"
       id="path4184" />
    <path
       style="fill:#ff0000;fill-rule:evenodd;stroke:none"
       d="m 1090.9503,58.9707 h 1.1214 v 0.4233 h -1.1214 v 1.7994 c -0.022,0.1811 0.017,0.3642 0.1109,0.5207 0.1306,0.094 0.292,0.1353 0.4516,0.1155 h 0.5589 v 0.4556 c -0.2832,0.01 -0.5669,0 -0.8496,-0.015 -0.2129,0 -0.418,-0.082 -0.5794,-0.2207 -0.134,-0.1611 -0.2126,-0.3608 -0.2246,-0.5701 l -0.015,-0.2863 v -1.7994 h -0.3997 v -0.4233 h 0.3997 v -0.9412 h 0.5473 z"
       id="path4186" />
    <path
       style="fill:#ff0000;fill-rule:evenodd;stroke:none"
       d="m 1085.9091,58.8931 0.065,0.01 c 0.05,0.01 0.1008,0.013 0.1506,0.022 v 0.5585 c -0.448,-0.2404 -1.0052,-0.079 -1.2552,0.3636 -0.098,0.2187 -0.1455,0.4565 -0.1389,0.6963 v 1.7461 h -0.5473 v -3.3145 h 0.5473 v 0.5151 l 0.093,-0.1411 c 0.2602,-0.3254 0.6687,-0.4956 1.083,-0.4516 z"
       id="path4188" />
    <path
       style="fill:#ff0000;fill-rule:evenodd;stroke:none"
       d="m 1116.3168,60.8733 1.1335,-3.0066 h 0.8911 v 4.4185 h -0.5835 v -3.8797 l -1.1391,3.0303 h -0.6004 l -1.1391,-3.0303 v 3.8797 h -0.5806 v -4.4185 h 0.8911 z"
       id="path4190" />
    <path
       style="fill:#ff0000;fill-rule:evenodd;stroke:none"
       d="m 1081.87,58.5503 h -0.4526 l 0.8283,-1.1126 h 0.5891 z"
       id="path4192" />
    <path
       style="fill:#ff0000;fill-rule:evenodd;stroke:none"
       d="m 1074.3009,58.5503 h -0.4526 l 0.8283,-1.1126 h 0.5892 z"
       id="path4194" />
    <path
       style="fill:#ff0000;fill-rule:evenodd;stroke:none"
       d="m 1098.3292,102.5164 c 6.0567,4.6999 12.8914,6.861 20.5511,6.465 -5.2879,-5.5837 -11.8526,-8.4604 -19.4922,-9.206 7.5295,-1.0679 13.9372,-4.2114 18.9624,-9.9973 -3.7315,-0.2466 -7.2898,0.4306 -10.7434,1.7051 -3.4688,1.2756 -6.5476,3.2336 -9.4475,5.55 3.8935,-5.1694 6.1733,-10.9209 6.5222,-17.3882 0.057,-1.0693 0,-2.1452 -0.147,-3.248 -5.48,5.393 -8.4844,11.8862 -9.1047,19.5385 -1.1158,-7.5551 -4.3316,-13.9624 -10.1402,-18.9853 -0.064,7.6694 2.5266,14.3579 7.3836,20.2517 -6.1199,-4.6306 -12.9146,-6.9136 -20.763,-6.4968 3.3638,3.7322 10.1136,8.4624 19.6687,9.1987 -7.5612,1.1025 -13.9692,4.3867 -19.1335,10.0935 3.7407,0.167 7.3252,-0.5217 10.8252,-1.7854 3.5119,-1.2661 6.6316,-3.2082 9.5749,-5.5154 -4.7363,6.0103 -6.8586,12.8382 -6.6218,20.7217 2.0833,-1.7009 3.5674,-3.6372 4.7444,-5.7324 1.2107,-2.1546 2.2781,-4.4331 3.0627,-6.7744 0.772,-2.2991 1.1072,-4.7495 1.6138,-7.0359 0.9807,7.3909 4.1848,13.8005 9.8814,18.9355 0.2258,-7.6784 -2.3592,-14.3613 -7.2046,-20.2942 z"
       id="path4196" />
    <path
       style="fill:#ff0000;fill-rule:evenodd;stroke:none"
       d="m 1048.9013,60.957 c -0.2061,0 -0.4114,0.022 -0.6153,0.051 l -0.2412,0.039 -0.2393,0.049 -0.236,0.06 -0.2334,0.069 c -0.1548,0.05 -0.3079,0.1052 -0.4585,0.166 -0.2285,0.093 -0.4522,0.1973 -0.6702,0.313 -0.3706,0.198 -0.727,0.4221 -1.0666,0.6699 -0.4209,0.3084 -0.8228,0.6421 -1.2029,0.9993 -0.284,0.2676 -0.5847,0.5166 -0.9009,0.7451 -0.3337,0.242 -0.6899,0.451 -1.0645,0.6231 -0.4692,0.2138 -0.9641,0.3659 -1.4724,0.4529 -0.332,0.058 -0.6677,0.093 -1.0046,0.1069 l -0.4514,0.017 c -0.3587,0.015 -0.7166,0.047 -1.0723,0.095 -0.3474,0.046 -0.6916,0.1108 -1.0315,0.1956 -0.1667,0.041 -0.332,0.088 -0.4958,0.1391 -0.1619,0.052 -0.3221,0.1084 -0.4803,0.1709 l -0.2334,0.097 -0.2292,0.1055 -0.2236,0.1148 -0.2193,0.123 -0.2138,0.1321 -0.2081,0.1413 -0.2019,0.1514 c -0.5556,0.4358 -1.0249,0.9719 -1.3837,1.5806 -0.2005,0.3388 -0.3716,0.6945 -0.511,1.063 -0.2178,0.5588 -0.368,1.1416 -0.4473,1.736 -0.084,0.6285 -0.071,1.2664 0.04,1.8907 0.078,0.427 0.2022,0.844 0.3706,1.2439 l 0.1062,0.237 0.1167,0.2327 0.1258,0.2285 0.1372,0.2236 0.1462,0.2193 0.1555,0.2153 0.1651,0.2102 0.175,0.2053 0.1836,0.2002 0.1927,0.1963 0.2019,0.19 0.2102,0.1855 0.2187,0.1799 0.2271,0.1751 c 0.7348,0.5427 1.4902,1.0571 2.2639,1.5427 l 0.5845,0.3621 c 0.5883,0.3579 1.1823,0.7068 1.7817,1.0464 l 2.4172,1.3386 2.416,1.3337 c 0.2989,0.1677 0.607,0.3179 0.9231,0.4502 0.19,0.081 0.3816,0.1575 0.5745,0.2305 0.5186,0.1894 1.0356,0.3838 1.5505,0.5823 -0.049,0.2617 -0.1025,0.5227 -0.1611,0.7824 -0.334,-0.034 -0.6685,-0.062 -1.0034,-0.084 l -0.2503,-0.025 -0.2475,-0.034 c -0.1633,-0.026 -0.325,-0.062 -0.4837,-0.1084 l -1.3176,-0.4078 -1.3149,-0.4169 -2.6275,-0.8431 c -0.8762,-0.2805 -1.7519,-0.5556 -2.6311,-0.8261 -0.8779,-0.2696 -1.76,-0.5279 -2.6445,-0.7742 l -0.1997,-0.05 -0.2031,-0.041 -0.2061,-0.032 c -0.2817,-0.038 -0.5659,-0.056 -0.8501,-0.054 -0.362,0 -0.7236,0.025 -1.0827,0.069 -0.4561,0.054 -0.9087,0.1326 -1.3565,0.2349 -0.3235,0.076 -0.6426,0.1699 -0.9563,0.28 -0.3686,0.1301 -0.7275,0.2861 -1.0742,0.4668 -0.262,0.1374 -0.5154,0.2908 -0.7588,0.4592 -0.1177,0.081 -0.2327,0.1665 -0.3452,0.2551 -0.218,0.1729 -0.4243,0.3599 -0.6179,0.5599 -0.2339,0.2414 -0.4466,0.5024 -0.6358,0.7802 -0.1474,0.2178 -0.2793,0.4458 -0.3945,0.6822 -0.229,0.4699 -0.3884,0.9709 -0.4732,1.487 l -0.029,0.1956 c -0.067,0.5383 -0.058,1.0835 0.027,1.6191 0.055,0.3552 0.1399,0.7053 0.2537,1.0464 0.095,0.2883 0.2085,0.5703 0.3388,0.8445 0.1746,0.3655 0.3748,0.7182 0.5991,1.0554 0.1436,0.2151 0.2955,0.4246 0.4556,0.6279 0.3396,0.4253 0.6609,0.865 0.9634,1.3177 0.2873,0.4296 0.5486,0.8764 0.782,1.3378 0.2617,0.5188 0.477,1.0599 0.6433,1.6165 0.1714,0.5798 0.2864,1.1751 0.343,1.7769 0.016,0.1589 0.027,0.3181 0.035,0.4775 0.017,0.3333 0.052,0.6653 0.1054,0.9949 0.039,0.2392 0.09,0.4768 0.1507,0.7114 0.079,0.3044 0.1794,0.603 0.2993,0.8938 0.06,0.1423 0.1238,0.2825 0.1928,0.4204 0.07,0.1362 0.1441,0.2703 0.2227,0.4016 l 0.123,0.1926 c 0.085,0.127 0.1744,0.2505 0.2688,0.3706 l 0.1463,0.1771 0.1538,0.1709 0.1619,0.1652 0.1701,0.1597 0.1778,0.1533 0.1865,0.1463 0.1938,0.1406 0.2027,0.1335 0.2116,0.1265 c 0.1092,0.062 0.2198,0.1211 0.3318,0.1772 0.2759,0.1351 0.5603,0.2513 0.8516,0.3487 0.1728,0.058 0.3476,0.1101 0.5237,0.157 l 0.2602,0.063 0.2588,0.053 0.2573,0.043 0.2559,0.034 0.2539,0.023 0.2517,0.014 h 0.2495 l 0.2469,-0.01 0.2453,-0.015 0.2427,-0.025 0.2397,-0.034 0.2371,-0.043 0.2334,-0.053 0.2312,-0.063 0.2273,-0.072 0.2248,-0.081 0.2207,-0.091 0.2168,-0.099 0.2137,-0.1092 0.2094,-0.1179 0.2054,-0.1267 0.2011,-0.1357 0.1968,-0.1448 0.1921,-0.1541 0.1878,-0.1623 0.1826,-0.1716 0.1787,-0.1807 0.1729,-0.1885 0.1675,-0.1975 c 0.1958,-0.2485 0.3862,-0.501 0.5715,-0.7573 0.1345,-0.1848 0.2676,-0.3709 0.3994,-0.5576 l 0.3909,-0.5637 c 0.2583,-0.3785 0.5112,-0.7598 0.7595,-1.1448 0.4961,-0.7722 0.9785,-1.5535 1.447,-2.3428 0.3523,-0.5933 0.6997,-1.187 1.0449,-1.7847 l 1.3738,-2.3884 c 0.137,-0.2375 0.2634,-0.4812 0.3789,-0.7297 0.1548,-0.3345 0.2974,-0.6743 0.4275,-1.0188 l 0.099,-0.2603 c 0.127,-0.3481 0.2535,-0.6999 0.3775,-1.0491 l 0.1914,-0.5239 0.2002,-0.518 0.7214,0.06 0.01,0.239 c 0.01,0.1614 0.023,0.3225 0.037,0.4836 0.01,0.1199 0.018,0.24 0.022,0.3601 0.01,0.1551 9e-4,0.3106 -0.018,0.4646 -0.01,0.075 -0.024,0.1482 -0.043,0.221 l -0.033,0.1062 c -0.2549,0.7248 -0.5186,1.4458 -0.7918,2.164 l -0.4106,1.0779 c -0.2756,0.7163 -0.5481,1.4368 -0.8147,2.1565 -0.2681,0.7185 -0.5227,1.4414 -0.7644,2.1692 -0.1209,0.363 -0.2363,0.7278 -0.3467,1.094 l -0.083,0.2947 -0.073,0.2988 -0.064,0.3025 c -0.06,0.3054 -0.1076,0.613 -0.1435,0.9224 -0.049,0.4167 -0.084,0.8352 -0.1033,1.2544 -0.011,0.2104 -0.02,0.4213 -0.026,0.632 -0.012,0.4195 -0.022,0.8377 -0.028,1.2574 0,0.1706 0,0.3413 0.01,0.5117 0.01,0.1662 0.019,0.3323 0.034,0.4978 0.017,0.1616 0.037,0.3227 0.062,0.4831 0.026,0.1573 0.056,0.3138 0.091,0.469 0.035,0.1521 0.076,0.3033 0.1209,0.4527 l 0.071,0.2209 0.078,0.2166 c 0.055,0.1421 0.1149,0.2822 0.1792,0.4204 0.097,0.2055 0.2058,0.406 0.3249,0.5998 0.08,0.1292 0.165,0.2554 0.2544,0.3782 0.091,0.1238 0.1858,0.2441 0.2856,0.3608 0.1011,0.118 0.2066,0.2322 0.3164,0.3423 l 0.1695,0.1638 c 0.1172,0.1089 0.2383,0.2137 0.3628,0.3145 0.1282,0.1025 0.2602,0.2007 0.395,0.2944 l 0.2095,0.1399 c 0.2195,0.1402 0.445,0.2703 0.6765,0.3897 0.3913,0.2007 0.8013,0.3625 1.2241,0.4836 l 0.2419,0.063 0.2398,0.052 0.239,0.041 0.2376,0.03 0.2356,0.02 0.2341,0.01 0.2329,-7e-4 0.2305,-0.011 0.2292,-0.02 0.2271,-0.03 0.2251,-0.039 0.2236,-0.049 c 0.1479,-0.036 0.2947,-0.078 0.4394,-0.1257 l 0.2166,-0.076 c 0.1443,-0.054 0.2864,-0.1138 0.426,-0.1788 0.2122,-0.099 0.419,-0.2094 0.6194,-0.3303 l 0.2012,-0.126 c 0.2021,-0.1318 0.3977,-0.2734 0.5857,-0.4245 0.1936,-0.155 0.3801,-0.3186 0.5591,-0.4903 0.3308,-0.3195 0.6835,-0.6157 1.0559,-0.8859 0.6904,-0.5 1.4516,-0.8938 2.2585,-1.1685 0.5376,-0.1821 1.0894,-0.3191 1.6497,-0.4092 0.4409,-0.072 0.885,-0.1233 1.3308,-0.1526 0.3327,-0.023 0.6638,-0.063 0.9922,-0.1203 0.3169,-0.055 0.6303,-0.1289 0.9387,-0.2207 0.1501,-0.046 0.2991,-0.097 0.4465,-0.1504 0.2171,-0.082 0.4299,-0.1746 0.6377,-0.2778 0.1367,-0.069 0.2708,-0.1424 0.4021,-0.2208 l 0.1934,-0.1218 0.1884,-0.1291 0.1829,-0.1365 0.178,-0.1443 0.1721,-0.1518 0.166,-0.1602 0.1609,-0.1682 0.1541,-0.1758 0.1484,-0.1841 0.1418,-0.1919 0.1351,-0.2011 0.1286,-0.2095 0.1218,-0.2173 c 0.1636,-0.3084 0.3028,-0.6292 0.4163,-0.9592 l 0.086,-0.2637 0.076,-0.2629 0.066,-0.2615 0.055,-0.261 0.046,-0.2593 0.035,-0.2573 0.026,-0.2568 0.015,-0.2537 0.01,-0.2517 V 99.993 l -0.014,-0.2466 -0.024,-0.2449 -0.033,-0.2417 -0.043,-0.2392 -0.053,-0.2354 -0.062,-0.2321 -0.071,-0.2286 -0.081,-0.2248 -0.091,-0.2217 -0.099,-0.2165 -0.1091,-0.2129 -0.1182,-0.2083 -0.1272,-0.2031 -0.1357,-0.199 -0.1456,-0.1933 -0.154,-0.1885 -0.1631,-0.1836 -0.1721,-0.177 -0.1809,-0.1724 -0.1897,-0.166 -0.1983,-0.1594 -0.2075,-0.1541 c -0.8699,-0.6155 -1.7593,-1.2033 -2.6662,-1.7627 -0.9104,-0.561 -1.8316,-1.1054 -2.7618,-1.6328 l -2.8076,-1.5693 -2.8012,-1.5708 c -0.1761,-0.1001 -0.3558,-0.1934 -0.5386,-0.2798 -0.1836,-0.087 -0.3687,-0.1702 -0.5557,-0.2495 -0.3786,-0.157 -0.7558,-0.3179 -1.1313,-0.4832 l 0.2407,-0.8423 c 0.3884,0.087 0.7871,0.1761 1.1763,0.2615 0.393,0.087 0.7829,0.1865 1.1691,0.2996 l 2.7049,0.7973 2.7051,0.8045 c 1.8012,0.5388 3.6096,1.0683 5.4167,1.5862 0.1082,0.03 0.218,0.053 0.3291,0.067 0.1904,0.024 0.3826,0.035 0.5745,0.032 0.3137,-0.01 0.6272,-0.018 0.9409,-0.029 0.3491,0 0.6982,-0.025 1.0454,-0.062 0.2502,-0.028 0.4995,-0.065 0.7468,-0.1118 0.24,-0.046 0.4781,-0.1035 0.7129,-0.1717 0.2293,-0.067 0.4551,-0.1452 0.6765,-0.2348 l 0.2173,-0.093 0.2122,-0.1006 c 0.1399,-0.07 0.2773,-0.1443 0.4121,-0.2236 0.134,-0.08 0.2651,-0.1653 0.3931,-0.2551 l 0.1892,-0.1399 0.184,-0.1485 0.1795,-0.156 0.1743,-0.1645 0.1687,-0.1739 0.1638,-0.1821 0.1582,-0.1912 0.1526,-0.2004 0.1477,-0.2087 0.1414,-0.2188 c 0.07,-0.1133 0.1372,-0.2285 0.2016,-0.3452 0.2173,-0.3928 0.396,-0.8059 0.5337,-1.2332 0.088,-0.2771 0.1551,-0.5603 0.2005,-0.8474 l 0.032,-0.2382 0.021,-0.2364 0.01,-0.2348 8e-4,-0.2334 -0.01,-0.2312 c -0.01,-0.1529 -0.027,-0.305 -0.049,-0.4566 l -0.039,-0.2256 c -0.029,-0.1496 -0.064,-0.2981 -0.1042,-0.445 -0.042,-0.147 -0.088,-0.2928 -0.1399,-0.4368 -0.053,-0.1445 -0.1101,-0.2876 -0.1729,-0.428 -0.1279,-0.2856 -0.2742,-0.5627 -0.4375,-0.8298 -0.2109,-0.343 -0.4446,-0.6714 -0.6994,-0.9829 -0.1043,-0.1277 -0.2117,-0.253 -0.3221,-0.3755 -0.2783,-0.3076 -0.5424,-0.6277 -0.7917,-0.959 -0.2742,-0.3647 -0.521,-0.749 -0.739,-1.1497 -0.4348,-0.8027 -0.7202,-1.6779 -0.8423,-2.5825 -0.048,-0.3557 -0.076,-0.7141 -0.083,-1.073 -0.01,-0.3503 -0.034,-0.6997 -0.08,-1.0468 -0.023,-0.1705 -0.05,-0.3399 -0.084,-0.5086 l -0.053,-0.2495 c -0.038,-0.1643 -0.081,-0.3274 -0.1301,-0.4888 l -0.077,-0.2383 -0.084,-0.2348 -0.093,-0.23 -0.1013,-0.2256 -0.1091,-0.2209 -0.118,-0.2159 -0.1267,-0.2102 -0.135,-0.2045 -0.144,-0.1998 -0.1533,-0.1926 -0.1617,-0.187 c -0.4021,-0.4431 -0.8723,-0.8193 -1.393,-1.1145 -0.4515,-0.2551 -0.9314,-0.4565 -1.4295,-0.6011 -0.499,-0.1501 -1.0122,-0.2485 -1.5312,-0.2932 l -0.2708,-0.017 -0.2685,-0.01 h -0.2659 l -0.2622,0.015 -0.2603,0.026 -0.2566,0.036 -0.2531,0.046 -0.2503,0.056 -0.2468,0.067 -0.2427,0.077 -0.239,0.086 -0.2356,0.096 -0.2312,0.106 -0.227,0.1162 -0.2229,0.125 -0.2181,0.135 -0.2146,0.1443 -0.2087,0.1533 -0.2046,0.1624 -0.1997,0.1716 c -0.1321,0.1186 -0.26,0.2417 -0.3838,0.3691 l -0.1836,0.1983 -0.1784,0.206 -0.1739,0.2151 -0.1672,0.2229 c -0.2664,0.3714 -0.5261,0.7481 -0.7786,1.1292 l -0.3745,0.5752 -0.3664,0.5815 c -0.3619,0.5859 -0.7139,1.1777 -1.0562,1.7754 l -0.3411,0.5989 -1.3371,2.4182 -1.3396,2.4153 c -0.1196,0.2158 -0.2307,0.4365 -0.3325,0.6616 l -0.1504,0.3396 -0.1421,0.343 c -0.1817,0.4627 -0.3674,0.9231 -0.5576,1.3823 -0.334,-0.132 -0.6673,-0.2619 -1.0027,-0.3908 l 0.01,-0.02 0.3957,-1.1243 c 0.099,-0.2805 0.1922,-0.5627 0.2806,-0.8464 l 0.8213,-2.7437 c 0.3698,-1.2375 0.7294,-2.4507 1.0939,-3.6899 0.3599,-1.2263 0.7181,-2.4666 1.0674,-3.6958 0.04,-0.1465 0.072,-0.2954 0.094,-0.4458 l 0.029,-0.229 0.019,-0.2315 c 0.017,-0.309 0.016,-0.6189 0,-0.9282 -0.023,-0.456 -0.067,-0.9111 -0.1321,-1.3633 -0.051,-0.3484 -0.1186,-0.6938 -0.2033,-1.0356 -0.062,-0.2493 -0.1355,-0.4956 -0.22,-0.7383 l -0.087,-0.2378 -0.096,-0.2326 -0.1025,-0.2286 -0.1111,-0.2236 -0.1196,-0.2192 -0.1279,-0.2139 -0.1365,-0.208 -0.1463,-0.2034 -0.1552,-0.1975 -0.1646,-0.1912 c -0.4187,-0.4619 -0.907,-0.8554 -1.447,-1.1665 -0.5051,-0.2949 -1.0449,-0.5258 -1.6067,-0.6884 -0.5456,-0.1565 -1.1116,-0.231 -1.6789,-0.2193 z"
       id="path4198" />
    <path
       style="fill:#ff0000;fill-rule:evenodd;stroke:none"
       d="m 1120.8314,116.698 c -3.9714,2.2971 -5.9658,6.0391 -7.677,10.0635 -1.8269,4.3042 -3.7502,8.5676 -5.6906,12.8254 -0.3992,0.8738 -1.0376,1.6321 -1.5752,2.4556 2.2746,-5.4702 4.5192,-10.877 6.7587,-16.2659 -4.7998,-2.2519 -11.8667,-0.2036 -15.4438,4.2507 0.8538,0.1375 1.6165,0.2664 2.8884,0.47 -4.019,0.7031 -6.3967,2.937 -8.1616,5.9612 -1.4863,2.5478 -2.8721,5.1611 -4.3506,7.708 -3.5581,6.1201 -8.4563,10.0293 -15.7312,10.012 -0.2361,9e-4 -0.4819,0.1374 -0.7834,0.2336 3.8889,4.1533 12.4753,6.4541 17.7812,4.7329 -0.1006,0.419 -0.1821,0.7593 -0.3291,1.387 7.323,0.1089 14.4995,-0.3152 20.4556,-5.2005 1.9617,-1.6074 3.0129,-4.3689 4.1841,-6.9516 l 0.3913,2.333 c 0.3345,0.1982 0.6612,0.3977 0.9944,0.5876 0.2151,-0.7566 0.311,-1.592 0.677,-2.2761 3.2095,-5.9653 4.5881,-12.1164 2.0108,-18.6943 -0.2845,-0.7246 -0.6233,-1.5315 -1.1717,-2.033 -1.9402,-1.7602 -1.0688,-3.3623 0.2395,-4.8347 1.1289,-1.2812 2.3648,-2.5068 3.7268,-3.5132 1.2019,-0.8938 1.4385,-1.8132 0.7972,-3.2578 z"
       id="path4200" />
    <path
       style="fill:#ff0000;fill-rule:evenodd;stroke:none"
       d="m 1096.1444,68.2126 0.2449,0.033 c 0.7808,0.1372 1.4136,0.711 1.6265,1.4746 0.2653,0.8689 0.1975,1.805 -0.1902,2.6265 -0.386,0.7017 -1.1409,1.1201 -1.9405,1.0757 -1.0739,0.052 -2.0183,-0.7088 -2.196,-1.7693 -0.1587,-0.721 -0.1062,-1.4722 0.1516,-2.1641 0.3372,-0.8208 1.1587,-1.3376 2.0444,-1.2866 z m -0.4189,0.689 c -0.5259,0.063 -0.9634,0.4341 -1.1116,0.9426 -0.2495,0.7356 -0.1987,1.5393 0.1418,2.2376 0.3152,0.5525 0.9849,0.7959 1.5813,0.5747 0.4451,-0.1858 0.7701,-0.5786 0.8689,-1.0508 0.191,-0.6875 0.1211,-1.4211 -0.1965,-2.06 -0.2524,-0.4605 -0.7639,-0.7173 -1.2839,-0.6441 z"
       id="path4202" />
    <path
       style="fill:#ff0000;fill-rule:evenodd;stroke:none"
       d="m 1109.2814,68.2119 c 0.9133,0.056 1.6726,0.7251 1.844,1.6238 0.078,0.3833 0.1057,0.7754 0.082,1.1658 h -3.7558 l 0.02,0.2048 c 0.032,0.5171 0.3054,0.9895 0.7385,1.2739 0.3826,0.2066 0.8188,0.2908 1.2507,0.2415 0.5454,-0.038 1.0764,-0.1926 1.5564,-0.4546 v 0.7727 c -0.7544,0.3318 -1.5857,0.449 -2.4023,0.3389 -1.1245,-0.1548 -1.9729,-1.1009 -2.0044,-2.2356 -0.069,-0.6338 0.057,-1.274 0.3598,-1.8348 0.4292,-0.7246 1.2259,-1.1511 2.0667,-1.1064 z m -0.5603,0.7058 -0.2906,0.073 c -0.4616,0.1682 -0.8022,0.5647 -0.8986,1.0467 l -0.053,0.331 2.9119,-0.01 c 0.014,-0.3909 -0.1199,-0.7725 -0.375,-1.0688 -0.2496,-0.2684 -0.604,-0.4146 -0.9703,-0.3999 z"
       id="path4204" />
    <path
       style="fill:#ff0000;fill-rule:evenodd;stroke:none"
       d="m 1092.2504,73.2927 h -0.8169 V 66.385 h 0.8169 z"
       id="path4206" />
    <path
       style="fill:#ff0000;fill-rule:evenodd;stroke:none"
       d="m 1124.8822,68.321 h 1.6819 v 0.6351 h -1.6819 v 2.6989 c -0.016,0.2266 0.016,0.4539 0.093,0.6673 0.062,0.1294 0.1836,0.2202 0.3252,0.2439 0.1394,0.032 0.2822,0.046 0.4251,0.043 h 0.8381 v 0.6833 c -0.4248,0.022 -0.8506,0.015 -1.2744,-0.022 -0.3181,-0.012 -0.6238,-0.1282 -0.8692,-0.3311 -0.2055,-0.2388 -0.3242,-0.54 -0.3369,-0.855 -0.016,-0.1426 -0.023,-0.2861 -0.022,-0.4297 v -2.6989 h -0.5994 v -0.6351 h 0.5994 v -1.4118 h 0.821 z"
       id="path4208" />
    <path
       style="fill:#ff0000;fill-rule:evenodd;stroke:none"
       d="m 1122.3651,73.2927 h -0.8166 V 68.321 h 0.8166 z"
       id="path4210" />
    <path
       style="fill:#ff0000;fill-rule:evenodd;stroke:none"
       d="m 1117.0741,70.4646 2.4373,-2.1436 h 1.0427 l -2.6362,2.3255 2.7485,2.6462 h -1.0654 l -2.5269,-2.4275 v 2.4275 h -0.821 V 66.385 h 0.821 z"
       id="path4212" />
    <path
       style="fill:#ff0000;fill-rule:evenodd;stroke:none"
       d="m 1115.1,68.2046 c 0.1086,0.01 0.2165,0.021 0.3235,0.041 v 0.8382 c -0.5744,-0.3015 -1.2788,-0.1804 -1.72,0.2954 -0.2697,0.3752 -0.4008,0.8328 -0.3708,1.2939 v 2.6194 h -0.821 v -4.9717 h 0.821 v 0.773 l 0.1389,-0.2122 c 0.2993,-0.3947 0.7569,-0.6381 1.2515,-0.6662 0.1238,-0.014 0.2485,-0.017 0.3728,-0.011 z"
       id="path4214" />
    <path
       style="fill:#ff0000;fill-rule:evenodd;stroke:none"
       d="m 1100.8837,72.2004 1.0156,-3.8794 h 0.9631 l 1.0213,3.8794 1.0171,-3.8794 h 0.8166 l -1.301,4.9717 h -0.9631 l -1.0696,-4.0752 -1.0738,4.0752 h -0.9646 l -1.2995,-4.9717 h 0.8166 z"
       id="path4216" />
    <path
       style="fill:#ff0000;fill-rule:evenodd;stroke:none"
       d="m 1090.0485,67.4207 h -2.9119 v 1.9531 h 2.6279 v 0.7541 h -2.6279 v 3.1648 h -0.8962 v -6.6279 h 3.8081 z"
       id="path4218" />
    <path
       style="fill:#ff0000;fill-rule:evenodd;stroke:none"
       d="m 1122.3651,67.4207 h -0.8166 V 66.385 h 0.8166 z"
       id="path4220" />
    <path
       style="fill:#ff0000;fill-rule:evenodd;stroke:none"
       d="m 1126.4589,91.9912 c 1.9599,-2.5574 4.4392,-3.0434 7.3264,-2.0474 1.3943,0.482 2.7612,1.045 4.1123,1.6385 1.0007,0.4392 1.0383,0.7102 0.4436,1.6235 -0.6563,1.0083 -1.2883,2.0271 -1.9722,3.0166 -1.2839,1.8652 -2.5117,3.7796 -3.9194,5.5469 -1.3235,1.6589 -3.1978,2.3682 -5.2642,1.8022 -2.007,-0.5517 -3.9436,-1.3845 -5.8852,-2.1609 -0.208,-0.084 -0.4322,-0.7456 -0.3145,-0.9294 1.7918,-2.8496 3.6358,-5.6641 5.4676,-8.4836 z"
       id="path4222" />
    <path
       style="fill:#ff0000;fill-rule:evenodd;stroke:none"
       d="m 1147.5338,66.0183 c 1.3892,-1.2693 3.8882,-2.2297 6.4458,-3.0557 0.1758,-0.055 0.6726,0.366 0.7549,0.6429 0.2727,0.9204 0.4446,1.8735 0.6221,2.8203 0.4646,2.4658 0.9846,4.925 1.3323,7.404 0.2287,1.6167 -0.1531,3.1543 -1.3934,4.3614 -1.9631,1.9082 -4.497,2.7326 -6.9897,3.6103 -0.1523,0.054 -0.6336,-0.3039 -0.6768,-0.5244 -0.6948,-3.3652 -1.4104,-6.7322 -1.9716,-10.1233 -0.2676,-1.6289 0.036,-3.2351 1.8791,-5.1387 z"
       id="path4224" />
    <path
       style="fill:#ff0000;fill-rule:evenodd;stroke:none"
       d="m 1143.9681,111.2151 c -1.9433,1.7541 -4.4526,2.6946 -6.9885,3.5837 -0.647,0.2261 -0.7439,-0.2849 -0.8398,-0.7343 -0.3723,-1.7488 -0.7705,-3.4927 -1.0994,-5.253 -0.3203,-1.7195 -0.6589,-3.4497 -0.8188,-5.1882 -0.19,-2.0247 0.5278,-3.7805 2.3112,-4.8572 1.4917,-0.9026 3.0735,-1.6816 4.6863,-2.345 1.9763,-0.8127 1.9073,-1.0229 2.3609,1.3172 0.039,0.2004 0.1018,0.3992 0.1381,0.6025 0.5269,2.9409 1.1033,5.8758 1.5518,8.8303 0.2178,1.4471 -0.2673,2.7884 -1.2959,4.0437 z"
       id="path4226" />
    <path
       style="fill:#ff0000;fill-rule:evenodd;stroke:none"
       d="m 1140.6827,84.6436 c 2.3201,-2.6272 6.3887,-2.8904 9.012,-0.5848 2.6487,2.3335 2.8838,6.3772 0.5166,9.0957 -2.3039,2.6526 -6.3689,2.9244 -8.9961,0.6043 -2.624,-2.3174 -2.8667,-6.4783 -0.5298,-9.1184 z"
       id="path4228" />
    <path
       style="fill:#ff0000;fill-rule:evenodd;stroke:none"
       d="m 1123.2125,87.6443 c -0.3276,-0.3938 -0.7492,-0.7434 -0.9658,-1.1939 -0.8794,-1.8195 -1.6872,-3.6757 -2.5466,-5.5051 -0.3801,-0.8049 -0.063,-1.0893 0.7173,-1.2534 2.4253,-0.5002 4.8278,-1.1252 7.2631,-1.5615 1.4441,-0.2588 2.9361,-0.3709 4.4014,-0.3401 1.395,0.029 2.6958,0.6614 3.3682,1.906 1.0691,1.9866 1.9421,4.0828 2.8806,6.1423 0.2351,0.5113 0.065,0.8482 -0.5269,0.9619 -0.8103,0.1543 -1.6106,0.3724 -2.4206,0.5264 -2.6658,0.5095 -5.325,1.0745 -8.0088,1.4854 -1.5017,0.2302 -2.9512,-0.1014 -4.1621,-1.1739 z"
       id="path4230" />
    <path
       style="fill:#ff0000;fill-rule:evenodd;stroke:none"
       d="m 1148.2255,107.7131 c -2.2876,-1.9214 -2.8218,-4.2827 -1.8538,-7.0066 0.5415,-1.5185 1.2578,-2.9716 1.8355,-4.4804 0.2846,-0.7498 0.6257,-0.7478 1.2268,-0.3511 2.6128,1.7217 5.2763,3.3606 7.8542,5.1343 2.655,1.8305 3.3928,4.0173 2.4072,7.1128 -0.5197,1.6316 -1.2734,3.1899 -1.9133,4.7822 -0.2312,0.5759 -0.6338,0.5749 -1.0796,0.3091 -0.562,-0.3347 -1.0969,-0.7063 -1.6455,-1.0625 -2.2742,-1.4785 -4.5542,-2.9566 -6.8284,-4.4351 z"
       id="path4232" />
    <path
       style="fill:#ff0000;fill-rule:evenodd;stroke:none"
       d="m 1167.5851,90.1189 c 0.2056,0.1809 0.4416,0.3394 0.6167,0.5488 1.5579,1.9087 2.2944,4.2161 3.0532,6.4988 0.061,0.1753 -0.3586,0.6956 -0.6306,0.7656 -1.5986,0.4217 -3.2051,0.8084 -4.8318,1.1111 -2.0596,0.3799 -4.1238,0.7839 -6.208,0.9597 -1.6514,0.1426 -3.2588,-0.455 -4.1016,-1.9328 -1.1337,-1.9886 -1.9897,-4.1358 -2.956,-6.22 -0.2859,-0.6167 0.048,-0.8643 0.6225,-0.9827 1.0794,-0.2212 2.1468,-0.4914 3.2298,-0.6982 2.3987,-0.4573 4.7915,-0.9583 7.206,-1.302 1.4712,-0.2078 2.8838,0.1467 3.9966,1.249 z"
       id="path4234" />
    <path
       style="fill:#ff0000;fill-rule:evenodd;stroke:none"
       d="m 1142.6735,70.0229 c 2.1789,1.8313 2.7719,4.1009 1.9004,6.7217 -0.5535,1.6573 -1.293,3.2556 -1.9544,4.8787 -0.2244,0.5432 -0.5671,0.6059 -1.0576,0.2844 -2.7261,-1.7937 -5.5173,-3.501 -8.179,-5.3869 -1.9045,-1.3521 -3.1276,-3.2642 -2.4816,-5.6915 0.56,-2.1103 1.4814,-4.1289 2.3051,-6.1618 0.069,-0.166 0.669,-0.2952 0.9051,-0.1865 0.5871,0.2685 1.1071,0.6823 1.6557,1.0385 2.305,1.5 4.604,3.0003 6.909,4.5003 z"
       id="path4236" />
    <path
       style="fill:#ff0000;fill-rule:evenodd;stroke:none"
       d="m 1164.338,85.9424 c -1.6714,1.8718 -3.6721,2.8125 -6.1255,2.1272 -1.8457,-0.5152 -3.6076,-1.3264 -5.4079,-2.0061 -0.6233,-0.2339 -0.7761,-0.5623 -0.3824,-1.166 1.0313,-1.5848 1.9888,-3.2178 3.0325,-4.7913 0.8748,-1.3191 1.7642,-2.6362 2.7627,-3.8572 1.6719,-2.0483 3.8469,-2.7414 6.3804,-1.9026 1.6301,0.5406 3.2031,1.2464 4.8074,1.8474 0.7075,0.2637 0.8027,0.6575 0.4145,1.2552 -1.831,2.8313 -3.6565,5.6623 -5.4875,8.4936 z"
       id="path4238" />
    <path
       style="fill:#ff0000;fill-rule:evenodd;stroke:none"
       d="m 1031.4052,156.8179 c -3.1421,-0.2898 -3.4913,-0.6512 -3.8643,-3.9971 -0.2937,-2.6555 1.1426,-4.6125 3.0193,-6.2397 2.4953,-2.1675 5.5185,-3.4456 8.4744,-4.8228 0.2341,-0.1072 0.738,0.099 0.976,0.3174 0.7459,0.6828 1.3806,1.4846 2.1424,2.1474 0.4165,0.3653 0.615,0.6551 0.3293,1.1592 -1.6147,2.826 -3.0947,5.7476 -4.8918,8.4505 -1.357,2.0363 -3.4676,3.0962 -6.1814,2.9851 z"
       id="path4240" />
    <path
       style="fill:#ff0000;fill-rule:evenodd;stroke:none"
       d="m 1051.5599,120.3215 c 0.02,-3.8264 -1.4995,-6.2595 -4.5029,-7.4861 -0.4048,-0.1667 -0.988,-0.1787 -1.3926,-0.02 -2.9716,1.1589 -4.7729,4.4853 -4.3523,7.6648 0.4363,3.2905 1.4681,6.4023 2.5391,9.5144 0.2183,0.6389 0.5476,0.7898 1.2656,0.6628 0.8809,-0.1548 1.8133,0.02 2.7178,-0.016 0.3572,-0.016 0.9363,-0.1311 1.0276,-0.3571 1.333,-3.3343 2.5034,-6.7202 2.7019,-9.9632 z"
       id="path4242" />
    <path
       style="fill:#ff0000;fill-rule:evenodd;stroke:none"
       d="m 1031.3326,118.8171 c -0.5832,0.1509 -1.6503,0.3614 -2.6582,0.7305 -0.353,0.127 -0.6862,0.6072 -0.8212,0.9963 -1.1585,3.3699 -0.3372,6.4898 2.6582,8.5379 2.6225,1.7942 5.5107,3.1875 8.2841,4.7593 0.5435,0.3095 0.8489,0.079 1.2259,-0.377 0.5952,-0.7266 1.3569,-1.3179 1.9836,-2.0205 0.238,-0.2659 0.5318,-0.782 0.4246,-1.0122 -1.46,-3.2031 -2.8445,-6.4619 -5.3323,-9.0579 -1.436,-1.4965 -3.1223,-2.5166 -5.7686,-2.5522 z"
       id="path4244" />
    <path
       style="fill:#ff0000;fill-rule:evenodd;stroke:none"
       d="m 1028.5555,132.8276 c -3.2255,-0.1113 -5.5861,1.2305 -7.0541,4.128 -0.377,0.7382 -0.4126,1.3813 -0.016,2.1316 1.4282,2.6992 4.1301,4.2273 7.1731,3.9414 3.4756,-0.3255 6.7407,-1.4724 9.9941,-2.6277 0.2617,-0.095 0.5037,-0.6072 0.5276,-0.9407 0.067,-1.0002 0.06,-2.0085 0,-3.0088 -0.02,-0.3491 -0.2102,-0.897 -0.4563,-0.9883 -3.3049,-1.2026 -6.5898,-2.5166 -10.1645,-2.6396 z"
       id="path4246" />
    <path
       style="fill:#ff0000;fill-rule:evenodd;stroke:none"
       d="m 1041.2963,156.6392 c 0.1548,-4.6045 1.4839,-7.8514 2.6582,-11.1299 0.087,-0.25 0.5949,-0.4685 0.9204,-0.4883 1.0395,-0.06 2.0869,-0.06 3.1262,0 0.3176,0.02 0.8054,0.2542 0.8928,0.5042 1.1824,3.3183 2.3885,6.6445 2.6424,10.1931 0.226,3.1875 -1.4046,5.8508 -4.2928,7.1289 -0.3928,0.1748 -0.9958,0.1787 -1.3886,0.01 -3.1621,-1.3654 -4.646,-3.7986 -4.5586,-6.2199 z"
       id="path4248" />
    <path
       style="fill:#ff0000;fill-rule:evenodd;stroke:none"
       d="m 1064.4493,143.0564 c 3.3328,0.052 5.6695,-1.4685 7.0027,-4.4932 0.1746,-0.4008 0.2141,-0.9963 0.048,-1.3933 -1.2895,-3.0959 -4.5349,-4.9736 -7.8398,-4.2868 -3.1421,0.6511 -6.2168,1.6196 -9.3193,2.457 -0.615,0.1667 -0.7659,0.5557 -0.7102,1.1948 0.083,0.9368 -0.028,1.8894 0.032,2.8301 0.024,0.3572 0.1982,0.9248 0.4482,1.02 3.3445,1.2861 6.709,2.5364 10.3391,2.6753 z"
       id="path4250" />
    <path
       style="fill:#ff0000;fill-rule:evenodd;stroke:none"
       d="m 1065.4056,123.0127 c 0.1983,-4.1716 -2.6821,-4.6877 -6.1813,-3.9097 -1.6385,0.3653 -3.0511,1.3694 -3.9358,2.8064 -1.6822,2.7427 -3.2215,5.5728 -4.8204,8.3633 -0.2736,0.4802 -0.1626,0.8018 0.2776,1.1748 0.7698,0.6511 1.4998,1.3655 2.1426,2.1397 0.377,0.4563 0.6943,0.5437 1.1665,0.2856 2.5589,-1.405 5.229,-2.6555 7.6453,-4.2749 2.1423,-1.4329 3.7373,-3.4375 3.7014,-6.5891 z"
       id="path4252" />
    <path
       style="fill:#ff0000;fill-rule:evenodd;stroke:none"
       d="m 1061.1405,156.8862 c 0.024,0 0.1231,0.01 0.2222,0 3.6262,-0.2539 4.0747,-1.1152 4.0588,-4.6242 -0.012,-2.834 -1.718,-4.8186 -3.9914,-6.2198 -2.3765,-1.4687 -4.8958,-2.7072 -7.3477,-4.0566 -0.5356,-0.2937 -0.8489,-0.1748 -1.2456,0.2976 -0.6509,0.77 -1.4561,1.4131 -2.1345,2.1633 -0.2144,0.2342 -0.4168,0.7344 -0.3096,0.9646 1.4282,3.0762 2.7534,6.2317 5.0942,8.7681 1.4878,1.6116 3.2137,2.8501 5.6536,2.707 z"
       id="path4254" />
  </g>
</svg>
