<?xml version="1.0" encoding="UTF-8" standalone="no"?>
<!-- Created with Inkscape (http://www.inkscape.org/) -->

<svg
   width="2478.189mm"
   height="317.58899mm"
   viewBox="0 0 2478.189 317.58899"
   version="1.1"
   id="svg5094"
   inkscape:version="1.2.1 (9c6d41e410, 2022-07-14)"
   sodipodi:docname="pochoires_1.svg"
   xmlns:inkscape="http://www.inkscape.org/namespaces/inkscape"
   xmlns:sodipodi="http://sodipodi.sourceforge.net/DTD/sodipodi-0.dtd"
   xmlns="http://www.w3.org/2000/svg"
   xmlns:svg="http://www.w3.org/2000/svg">
  <sodipodi:namedview
     id="namedview5096"
     pagecolor="#ffffff"
     bordercolor="#000000"
     borderopacity="0.25"
     inkscape:showpageshadow="2"
     inkscape:pageopacity="0.0"
     inkscape:pagecheckerboard="0"
     inkscape:deskcolor="#d1d1d1"
     inkscape:document-units="mm"
     showgrid="false"
     inkscape:zoom="0.71624579"
     inkscape:cx="4208.0527"
     inkscape:cy="621.99318"
     inkscape:window-width="1920"
     inkscape:window-height="991"
     inkscape:window-x="-9"
     inkscape:window-y="-9"
     inkscape:window-maximized="1"
     inkscape:current-layer="layer1" />
  <defs
     id="defs5091" />
  <g
     inkscape:label="Calque 1"
     inkscape:groupmode="layer"
     id="layer1"
     transform="translate(1051.0684,15.835495)">
    <rect
       style="fill:none;stroke:#000000;stroke-width:0.05mm"
       x="-717.92419"
       y="-14.941207"
       width="310.00021"
       height="310.00021"
       id="rect2176" />
    <rect
       style="fill:none;stroke:#000000;stroke-width:0.05mm"
       x="-400.93402"
       y="-14.941207"
       width="310.00021"
       height="310.00021"
       id="rect2178" />
    <rect
       style="fill:none;stroke:#000000;stroke-width:0.05mm"
       x="-85.934006"
       y="-14.941207"
       width="310.00021"
       height="310.00021"
       id="rect2180" />
    <rect
       style="fill:none;stroke:#000000;stroke-width:0.05mm"
       x="233.9762"
       y="-15.741007"
       width="310.00021"
       height="310.00021"
       id="rect2182" />
    <rect
       style="fill:none;stroke:#000000;stroke-width:0.05mm"
       x="558.9762"
       y="-15.741007"
       width="310.00021"
       height="310.00021"
       id="rect2184" />
    <rect
       style="fill:none;stroke:#000000;stroke-width:0.05mm"
       x="873.97601"
       y="-15.741007"
       width="310.00021"
       height="310.00021"
       id="rect2186" />
    <path
       style="fill:none;stroke:#000000;stroke-width:0.316392mm"
       d="m -538.61747,10.065829 c 3.75028,8.214878 7.52294,16.45222 11.65273,25.493073 -5.98259,1.339416 -9.44272,2.120778 -13.79572,3.102924 V 11.383034 c 0.71433,-0.446746 1.42868,-0.870775 2.14304,-1.317205 z"
       id="path2188" />
    <path
       style="fill:none;stroke:#000000;stroke-width:0.316392mm"
       d="m -460.41912,125.74488 c -3.37079,0.20122 -6.76394,0.37967 -10.42498,0.60304 1.11618,-11.92072 2.05373,-21.89917 3.25922,-35.002883 3.21458,7.456043 5.17904,12.054553 7.16581,16.653133 v 17.76942 z"
       id="path2190" />
    <path
       style="fill:none;stroke:#000000;stroke-width:0.316392mm"
       d="m -624.20481,201.55473 c -18.26042,0.29045 -21.25173,-1.62948 -27.94869,-18.41657 -2.32162,-5.80416 -4.62092,-11.65267 -6.40678,-17.63547 -5.15666,-17.27819 7.43365,-32.8821 25.02436,-29.53372 10.60354,2.0315 21.56426,6.09435 30.38193,12.16631 5.71475,3.92883 10.358,12.85812 11.05001,19.97923 2.2993,23.75203 -7.43365,33.06074 -32.10083,33.44022 z"
       id="path2192" />
    <path
       style="fill:none;stroke:#000000;stroke-width:0.316392mm"
       d="m -536.74232,177.98134 c 3.25921,-5.9378 5.31294,-13.14832 10.02315,-17.56826 9.62133,-9.04086 20.35878,-17.03274 31.2972,-24.48853 3.90658,-2.65643 9.68827,-3.48259 14.62176,-3.50481 12.12151,-0.0671 14.86725,3.83943 13.59485,15.64852 -2.07609,19.26514 -10.44729,35.76198 -21.31875,51.34348 -3.99584,5.71475 -8.79537,8.68384 -16.00575,6.49611 -4.21909,-1.2724 -8.68373,-1.7413 -12.85818,-3.08071 -14.86727,-4.79961 -17.4568,-8.43819 -19.35425,-24.8458 z"
       id="path2194" />
    <path
       style="fill:none;stroke:#000000;stroke-width:0.316392mm"
       d="m -563.68647,99.046347 c 1.25011,12.434223 -3.37079,21.497293 -13.08141,29.042743 -11.18396,8.70598 -19.01942,9.64352 -31.23024,2.14293 -11.34023,-6.96475 -15.73789,-15.29132 -10.53657,-28.17197 6.42911,-15.893978 14.51011,-31.341652 23.72962,-45.807181 7.18809,-11.251043 21.60892,-8.415977 25.00202,4.665524 3.23687,12.411825 4.17445,25.403913 6.11658,38.128207 z"
       id="path2196" />
    <path
       style="fill:none;stroke:#000000;stroke-width:0.316392mm"
       d="m -656.12704,93.778096 c -3.61639,10.558714 11.36251,25.158264 -9.3088,32.792754 2.1877,-11.65274 4.2191,-22.54645 6.27284,-33.44022 1.00453,0.223373 2.03143,0.423966 3.03596,0.647466 z"
       id="path2198" />
    <path
       style="fill:none;stroke:#000000;stroke-width:0.316392mm"
       d="m -607.06054,270.06478 c -15.55931,-7.29974 -18.9971,-15.91656 -10.02317,-30.49353 10.62587,-17.25579 22.01073,-34.1321 34.1992,-50.31653 11.07236,-14.71098 20.6267,-12.90286 31.05166,2.18754 6.74161,9.75539 15.91647,17.90332 24.35466,26.40852 3.08062,3.10305 7.16578,5.20143 10.78213,7.74624 8.14797,5.73689 15.0905,12.23294 13.66181,23.48398 -1.47333,11.69747 -8.32654,18.43897 -19.64445,20.96157 h -4.44234 c -23.70727,-5.91572 -47.39225,-8.25955 -71.09955,0 h -8.88466 z"
       id="path2200" />
    <path
       style="fill:none;stroke:#000000;stroke-width:0.316392mm"
       d="m -550.60503,83.241593 c 2.29928,-6.652469 5.15666,-16.43001 9.08557,-25.716509 2.81273,-6.629879 8.88463,-7.924683 14.82264,-4.308317 17.72467,10.848972 26.83254,28.350603 32.39103,47.168993 3.01364,10.15709 -11.69741,25.87281 -22.7474,27.50229 -18.37204,2.70124 -25.78336,-1.58506 -29.53367,-17.97014 -1.71889,-7.50059 -2.34392,-15.269229 -4.04049,-26.698718 z"
       id="path2202" />
    <path
       style="fill:none;stroke:#000000;stroke-width:0.316392mm"
       d="m -590.6753,41.273836 c 4.5093,-10.134621 8.32657,-18.684622 12.14386,-27.23437 0.60273,0.06708 1.22778,0.13415 1.83052,0.201225 0.55806,7.902283 1.11616,15.782544 1.69656,24.220669 -4.5986,0.825974 -9.35344,1.696496 -15.69324,2.835066 z"
       id="path2204" />
    <path
       style="fill:none;stroke:#000000;stroke-width:0.330942mm"
       d="m -348.18923,51.680114 c 4.78668,0.303805 8.12569,-0.443462 9.15313,0.747399 11.7683,13.729725 32.12937,19.380229 36.26224,40.488239 3.38574,17.325608 8.73277,34.277918 13.2394,51.369548 0.58378,2.2183 0.7705,5.06718 2.2416,6.46819 4.01605,3.8059 8.61601,6.98162 13.00576,10.41382 2.56851,-4.24949 6.88823,-8.31273 7.33189,-12.77231 1.1442,-11.46495 0.51362,-23.06977 0.70047,-34.62772 0.25681,-16.181473 0.0463,-32.409413 1.1675,-48.544424 0.7705,-11.090925 4.73995,-21.224832 16.27486,-25.124057 0,-7.145237 -0.91068,-13.846878 0.35014,-20.127628 0.74727,-3.665712 4.97353,-6.63135 7.61213,-9.900395 3.0121,2.988671 7.84544,5.557178 8.66267,9.036305 1.42438,6.140894 0.39713,12.842602 0.39713,20.314213 13.6597,6.561455 14.94395,20.897995 14.40683,34.137263 -0.84046,20.33771 -4.36631,40.558593 -6.79476,60.826343 -0.63078,5.34756 -2.35836,10.74112 -1.86791,15.94803 0.35014,3.54935 3.0354,8.75633 5.86079,9.71374 2.96537,1.00388 8.35919,-1.19092 10.88104,-3.736 3.96952,-4.01598 6.67801,-9.38697 9.4566,-14.43026 8.59271,-15.69109 17.39564,-30.93858 34.88466,-38.90104 3.71264,-1.70442 5.62714,-7.051516 8.87282,-10.227236 2.52185,-2.475181 5.79069,-4.179532 8.70947,-6.211185 1.44767,3.269045 3.99281,6.491559 4.13294,9.807069 0.67704,15.317382 -1.63453,30.074422 -10.6942,43.033782 -3.7593,5.39395 -7.30859,10.95073 -11.53485,15.97099 -14.71037,17.4658 -25.17105,36.84603 -28.86032,59.68228 -1.09741,6.79497 -3.61919,13.37946 -5.90745,19.91755 -9.31661,26.64222 -19.45039,33.92718 -47.75037,34.69761 -4.24969,0.11715 -8.49938,0.25681 -12.77237,0.37397 -24.75076,0.63077 -32.68972,-4.90311 -38.92421,-28.53323 -4.50637,-17.11552 -7.96226,-34.53439 -12.42204,-51.67335 -1.72791,-6.63095 -3.4324,-14.26658 -7.77541,-19.05339 -17.34891,-18.98349 -16.50838,-45.32191 -27.97314,-66.6639 -2.335,-4.342815 0.60695,-13.028785 3.59588,-18.329417 4.9035,-8.662606 6.95826,-16.017924 -0.3038,-24.213504 -1.79788,-2.031587 -2.05482,-5.393958 -3.61912,-9.853533 z"
       id="path2206" />
    <path
       style="fill:none;stroke:#000000;stroke-width:0.185163mm"
       d="M 42.579039,42.139742 C 42.866411,35.346445 47.73942,29.689382 53.27872,29.72871 59.105392,29.767965 63.547193,35.725029 63.298926,43.132697 63.063769,49.97821 58.269196,55.569948 52.67768,55.5044 46.851008,55.439222 42.278556,49.390318 42.579039,42.139742 Z"
       id="path2208" />
    <path
       style="fill:none;stroke:#000000;stroke-width:0.185163mm"
       d="m 42.396097,56.249162 c -0.02592,5.682801 -3.97145,10.13786 -8.805315,9.96788 -4.729211,-0.169609 -8.45258,-4.702992 -8.557123,-10.425158 -0.104432,-5.617697 3.801693,-10.46445 8.426472,-10.46445 4.650887,0 8.962186,5.277997 8.936078,10.921728 z"
       id="path2210" />
    <path
       style="fill:none;stroke:#000000;stroke-width:0.185163mm"
       d="m 125.51103,30.238205 c -0.0915,0.992918 -0.11777,2.52155 -0.36588,4.01063 -1.3718,8.46569 -8.4134,15.428967 -15.74249,15.63783 -7.06771,0.209235 -13.351658,-5.317103 -15.376637,-14.070092 -0.705434,-3.057041 -0.953738,-6.480001 -0.391953,-9.550152 1.920473,-10.555809 9.22334,-16.9442657 17.74136,-16.108218 8.13898,0.810088 14.22696,9.236449 14.13552,20.079743 z"
       id="path2212" />
    <path
       style="fill:none;stroke:#000000;stroke-width:0.185163mm"
       d="m 26.718939,72.030716 c -0.849195,3.919345 -1.959543,8.09977 -7.564168,8.25664 -4.912189,0.130725 -9.0274,-4.729211 -8.844533,-10.555772 0.156648,-4.807868 2.090194,-8.439507 7.36834,-8.792317 4.611669,-0.313666 9.105686,5.186453 9.05347,11.104559 z"
       id="path2214" />
    <path
       style="fill:none;stroke:#000000;stroke-width:0.185163mm"
       d="m 80.00811,270.08532 h -7.747035 c -1.606956,-0.45728 -3.174694,-1.07139 -4.820756,-1.35891 C 50.025591,265.65648 37.340259,254.15975 35.289171,237.8687 34.244,229.61209 34.452975,220.91132 35.772521,212.68072 38.868779,193.45017 38.124017,174.99034 30.350763,156.80474 25.79142,146.13121 22.303246,134.9744 18.828143,123.8698 13.615472,107.17351 18.214143,92.711497 30.089461,80.470223 44.590835,65.524718 62.65867,57.228786 82.960608,54.576992 107.73045,51.337084 119.38384,58.130418 127.82331,78.981143 v 16.905159 c -3.97145,12.933598 -7.3813,26.076058 -12.04519,38.748618 -5.69595,15.52025 -5.61762,31.19741 -4.10221,47.26652 1.48941,15.88621 3.13547,31.85085 2.95261,47.76309 -0.20887,18.55134 -11.784,33.86276 -26.625072,38.27845 -2.639017,0.78387 -5.317141,1.42402 -7.982229,2.12945 z"
       id="path2216" />
    <path
       style="fill:none;stroke:#000000;stroke-width:0.185163mm"
       d="M 76.95118,47.54839 C 71.098399,47.417665 65.88569,40.872634 65.937906,33.713381 c 0.05222,-7.368302 5.52619,-14.12253 11.535841,-14.227184 6.061903,-0.117394 11.640272,6.819553 11.392005,14.148749 -0.248118,7.368117 -5.95736,14.044095 -11.901574,13.913444 z"
       id="path2218" />
    <path
       style="fill:none;stroke:#000000;stroke-width:0.205123mm"
       d="m 395.32488,93.020145 c 3.37207,-19.841802 12.25822,-39.553637 31.92661,-51.898584 7.32328,-4.60252 8.973,-9.942706 9.66788,-17.106767 0.49189,-5.036438 -0.55002,-12.15689 7.30863,-11.273998 7.55466,0.839325 5.10893,7.351832 4.19712,12.07 -1.69342,8.756066 -0.13005,15.992249 5.07988,23.879699 10.56505,15.977931 13.48843,34.256773 9.05994,53.027875 -4.53003,19.16144 -24.08249,31.55025 -41.84036,27.30956 -14.66075,-3.48775 -25.64544,-17.93152 -25.41398,-36.007785 z"
       id="path2220" />
    <path
       style="fill:none;stroke:#000000;stroke-width:0.205123mm"
       d="m 340.45922,265.83768 c -7.16406,-4.47206 -15.64489,-7.71392 -21.23134,-13.66205 -15.05147,-16.02125 -12.15706,-39.58268 5.29698,-52.95525 1.33146,-1.01311 2.66296,-2.09854 4.15367,-2.82222 13.67657,-6.57059 20.27609,-17.23693 22.41799,-32.46194 2.7064,-19.20526 19.52353,-31.98441 38.6273,-31.82544 19.42224,0.15917 35.41445,13.34381 38.25118,33.20014 1.96824,13.72013 7.95994,23.3588 20.21812,30.01609 14.67528,7.98907 23.0405,20.3919 20.3197,37.75905 -2.61963,16.71584 -12.6491,27.38214 -29.09,31.8542 -0.40532,0.11569 -0.70911,0.59347 -1.07095,0.91169 h -17.28014 c -7.16389,-4.86265 -14.6173,-9.33471 -21.41952,-14.67515 -7.04825,-5.54297 -13.87928,-5.57177 -20.65245,-0.14481 -6.72986,5.38375 -14.1543,9.91366 -21.26028,14.81988 h -17.28026 z"
       id="path2222" />
    <path
       style="fill:none;stroke:#000000;stroke-width:0.205123mm"
       d="m 313.19286,86.883711 c 1.46179,-14.067165 3.95096,-27.570239 12.21489,-38.410319 6.33898,-8.321614 6.22316,-16.325 4.68913,-25.34149 -0.31835,-1.866912 -1.21577,-4.182592 -0.47761,-5.57177 1.08547,-2.040733 3.18388,-4.341849 5.23902,-4.804813 1.5776,-0.361838 3.82075,1.881434 5.64438,3.125918 0.47765,0.333121 0.5789,1.288258 0.78148,1.968365 2.80769,9.609872 10.56493,21.940584 17.51176,28.366242 13.48851,12.504451 21.50642,28.105817 24.44416,46.080666 2.50382,15.2543 -8.61109,31.92657 -23.32976,36.34079 -15.38443,4.61655 -33.17122,-3.31422 -40.55222,-19.24859 -3.2275,-6.96148 -4.16819,-14.979141 -6.15096,-22.519522 z"
       id="path2224" />
    <path
       style="fill:none;stroke:#000000;stroke-width:0.205123mm"
       d="m 518.96438,149.18821 c -1.50524,5.25354 -2.67735,10.63729 -4.58787,15.74635 -5.25354,14.09621 -15.34094,23.34432 -30.16079,25.78993 -25.48635,4.21163 -45.38612,-20.79706 -35.35664,-44.90835 8.55336,-20.56568 23.6916,-35.47241 45.28478,-42.23136 5.93373,-1.85238 8.77047,-4.515338 10.07288,-10.043827 0.65114,-2.778644 1.15784,-5.933607 2.85101,-8.017908 1.49072,-1.837866 4.97847,-3.791708 6.75878,-3.198286 1.85255,0.607986 2.93798,4.1245 3.93657,6.541594 0.37619,0.897415 -0.18831,2.445851 -0.76708,3.430157 -6.90352,11.75153 -2.47478,22.79418 1.98264,33.85137 v 23.04033 z"
       id="path2226" />
    <path
       style="fill:none;stroke:#000000;stroke-width:0.205123mm"
       d="m 258.97847,137.42192 c 1.31697,-7.01908 1.56308,-14.48685 4.25496,-20.9418 3.03919,-7.30851 2.86553,-13.67657 -0.23138,-20.536391 -0.96954,-2.156382 -2.22867,-4.747214 -1.80899,-6.831023 0.52094,-2.605109 2.12734,-5.876009 4.24044,-6.946918 1.28801,-0.651308 6.23768,2.084014 6.41134,3.632697 1.43279,13.444983 11.14395,17.178845 21.82469,21.549495 14.64623,5.97742 24.83492,17.68567 32.83838,31.15965 10.4202,17.52637 6.16524,38.27986 -9.72556,48.1214 -15.35546,9.5085 -37.15123,3.86432 -47.7886,-12.64894 -7.10597,-11.0427 -9.17563,-23.48906 -10.01495,-36.55793 z"
       id="path2228" />
    <path
       style="fill:none;stroke:#000000;stroke-width:0.324673mm"
       d="m 660.81827,269.23379 c -0.36688,-5.8871 -1.3285,-11.84316 -0.93928,-17.68461 0.73285,-11.1559 0.20584,-22.97646 3.89393,-33.19301 4.74172,-13.10303 10.14844,-24.94612 0.91636,-38.00324 -0.75584,-1.07681 0.11494,-3.9399 1.07681,-5.45191 8.79611,-14.06528 5.13126,-27.00824 -1.67213,-40.79853 -3.11556,-6.32262 -3.23011,-14.86711 -2.49686,-22.19718 1.67213,-17.088972 -3.77978,-27.489027 -19.03649,-36.148056 -3.91692,-2.221802 -9.00266,-9.14013 -8.01754,-11.980629 3.98588,-11.545437 -2.03875,-18.875579 -8.01754,-26.84734 -1.96999,-2.611799 -3.20712,-5.795932 -4.78769,-8.705003 0.84759,-0.939279 1.67232,-1.878558 2.51985,-2.817512 3.39023,2.542449 6.80339,5.016393 10.12525,7.627803 6.11638,4.787628 13.07984,8.91104 18.02805,14.706972 4.6275,5.428922 8.26981,12.34686 10.3085,19.219213 4.12341,13.836265 12.07219,22.289126 23.20509,22.311724 12.91991,0.02597 19.97538,-8.475459 15.05022,-20.822708 -4.71912,-11.843162 -5.19983,-20.044013 6.3682,-28.496485 4.90224,-3.57374 5.40633,-12.942959 8.38436,-19.471678 1.80966,-3.962894 4.51263,-7.490596 6.82638,-11.2244655 1.53499,0.5727232 3.0466,1.1454465 4.58159,1.7181045 -0.75584,4.787239 -2.03875,9.552334 -2.17629,14.339962 -0.18311,6.505798 0.75584,13.034128 0.68727,19.562847 -0.0916,7.307545 -0.45779,14.638012 -1.37408,21.854 -0.29805,2.38232 -2.74894,4.489643 -4.21497,6.711835 -5.81853,8.819547 -8.31539,17.020787 3.06959,23.801193 3.5277,2.107647 6.29924,5.428853 10.97278,9.575253 7.83423,-7.146959 15.5769,-14.179441 23.251,-21.258286 1.92421,-1.786676 3.34426,-4.787239 5.54386,-5.52048 13.72133,-4.535552 27.60357,-8.590393 43.34099,-13.378086 -2.01609,3.436209 -3.00096,5.612427 -4.4214,7.468063 -5.17691,6.711835 -10.10207,13.65276 -15.89761,19.791871 -3.23005,3.413158 -7.6967,5.979049 -12.0492,7.926178 -6.5747,2.90907 -14.08828,3.98588 -20.1359,7.62774 -4.69607,2.8405 -7.94877,8.26981 -11.45388,12.82841 -2.54245,3.27569 -3.68789,8.08631 -6.80339,10.35408 -11.06395,8.06332 -13.4927,20.13596 -18.07383,31.8875 -4.3525,11.1559 -12.53037,21.34946 -20.89174,30.19199 -5.97898,6.32262 -11.72855,11.08726 -11.06433,20.86869 0.32077,4.60457 -2.33635,9.48376 -3.98588,14.11132 -3.02355,8.5215 -5.91003,17.1115 -9.57532,25.38132 -2.22181,5.01632 -5.77288,9.46077 -8.72793,14.15691 h -2.29083 z"
       id="path2230" />
    <path
       style="fill:none;stroke:#000000;stroke-width:0.50211mm"
       d="m 1007.0128,269.22264 c -9.21046,-3.47159 -18.66971,-6.4473 -27.59702,-10.48587 -50.19996,-22.60238 -72.44745,-64.12205 -77.65543,-116.51814 -4.39286,-44.496081 7.15597,-85.803666 27.06564,-125.127214 1.41705,-2.834211 3.86142,-6.199151 6.58959,-7.1559717 10.23832,-3.5782367 38.33117,6.9077277 44.81472,16.0838887 11.47834,16.29588 22.744,32.698407 34.3638,48.853295 10.6631,14.843878 17.3943,14.985473 28.0225,0.567384 9.3881,-12.718246 19.2012,-25.294896 27.0662,-38.93371 9.5291,-16.509276 21.4329,-25.79078 41.5908,-26.180618 10.3088,-0.176743 15.0915,0.92087 19.8386,10.734811 22.4252,46.72716 32.3448,95.049025 21.469,146.417885 -11.0179,51.9002 -42.6897,84.38601 -93.7393,98.48637 -2.125,0.60253 -3.9674,2.16118 -5.9515,3.2596 h -45.8071 z"
       id="path2232" />
    <rect
       style="fill:none;stroke:#000000;stroke-width:0.05mm"
       x="1267.0261"
       y="82.116333"
       width="160"
       height="121.08533"
       id="rect2234" />
    <rect
       style="fill:none;stroke:#000000;stroke-width:0.05mm"
       x="-1050.9739"
       y="-8.3409996"
       width="310"
       height="310"
       id="rect2474" />
    <path
       style="fill:none;stroke:#000000;stroke-width:0.189378mm"
       d="m -894.95874,276.67973 c -3.76791,-1.10896 -7.65627,-1.93749 -11.30401,-3.3673 -15.67319,-6.14624 -25.80141,-23.15565 -25.45398,-42.82424 0.14696,-8.39117 0.8149,-16.76897 1.20259,-25.14673 0.24051,-5.05073 2.41855,-7.56265 7.89671,-7.33543 23.73056,1.01556 46.81963,5.50497 69.33396,12.82721 2.49855,0.8149 5.86585,5.1575 5.5452,7.37565 -1.60343,11.06357 -3.31364,22.3139 -6.88137,32.84301 -4.70326,13.90958 -14.79126,22.71477 -30.01021,24.55886 -0.81512,0.0936 -1.57684,0.69468 -2.36515,1.05556 h -7.97692 z"
       id="path2476" />
    <path
       style="fill:none;stroke:#000000;stroke-width:0.189378mm"
       d="m -843.99714,136.99665 c 0,11.94527 0.28066,23.89055 -0.10681,35.82265 -0.214,6.64074 -2.81943,8.41798 -9.08611,6.61415 -23.46309,-6.76119 -47.46068,-10.00804 -71.72571,-11.93209 -2.17789,-0.17385 -5.43815,-2.61899 -6.01262,-4.62326 -5.82585,-20.5637 -11.90528,-41.08718 -16.47494,-61.94472 -3.90177,-17.851313 -3.51407,-35.969912 1.95067,-53.754181 10.15482,-33.083667 51.65651,-39.7110053 72.91489,-17.717723 15.21891,15.740232 23.32946,34.914351 26.4427,55.972331 2.51218,16.982553 2.80602,34.299633 4.08879,51.482623 l -1.99086,0.0803 z"
       id="path2478" />
    <path
       style="fill:#ff0000;fill-rule:evenodd;stroke:none"
       d="m 1353.2529,101.5819 0.2107,0.034 c 0.646,0.1675 1.1655,0.6465 1.3855,1.2764 0.333,0.9077 0.2981,1.9087 -0.097,2.791 -0.3862,0.8467 -1.3279,1.292 -2.2273,1.0537 -0.4624,-0.1045 -0.8572,-0.4038 -1.082,-0.8213 v 2.6368 h -0.8211 v -6.8623 h 0.8211 v 0.7539 l 0.1374,-0.2071 c 0.3447,-0.4477 0.8877,-0.6968 1.4519,-0.666 z m -0.5779,0.6801 -0.1494,0.024 c -0.4536,0.1191 -0.8103,0.4687 -0.9385,0.9199 -0.2429,0.7417 -0.1933,1.5473 0.139,2.2534 0.3029,0.5508 0.965,0.7959 1.5537,0.5747 0.4404,-0.187 0.7585,-0.5806 0.8496,-1.0503 0.1618,-0.6421 0.1213,-1.3179 -0.1158,-1.936 -0.2109,-0.5396 -0.7648,-0.8648 -1.3386,-0.7857 z"
       id="path4396" />
    <path
       style="fill:#ff0000;fill-rule:evenodd;stroke:none"
       d="m 1381.4775,101.5872 c 0.3936,0.024 0.7813,0.1079 1.1492,0.2495 v 0.7725 l -0.3521,-0.1553 c -0.6008,-0.2309 -1.2592,-0.2641 -1.8803,-0.095 -0.3362,0.093 -0.5396,0.4356 -0.4612,0.7754 0.041,0.1787 0.1687,0.3252 0.3398,0.3916 0.3994,0.1465 0.8101,0.2603 1.2281,0.3398 l 0.1938,0.054 c 0.3909,0.083 0.7415,0.2988 0.9929,0.6093 0.283,0.4663 0.2798,1.0513 -0.01,1.5142 -0.2847,0.3794 -0.71,0.6284 -1.18,0.6914 -0.6469,0.104 -1.3088,0.064 -1.9382,-0.1187 l -0.4673,-0.1357 v -0.8437 l 0.2256,0.1108 c 0.6331,0.3149 1.3491,0.4233 2.0471,0.31 0.249,-0.036 0.4707,-0.1762 0.6099,-0.3862 0.1501,-0.2763 0.089,-0.6201 -0.1463,-0.8286 -0.247,-0.1479 -0.5188,-0.2495 -0.802,-0.3013 l -0.4655,-0.1079 c -0.4038,-0.059 -0.7832,-0.228 -1.096,-0.4897 -0.2986,-0.3384 -0.4131,-0.8008 -0.3064,-1.2388 0.1167,-0.5278 0.5366,-0.9365 1.0676,-1.0386 0.4092,-0.096 0.8313,-0.1225 1.2493,-0.079 z"
       id="path4398" />
    <path
       style="fill:#ff0000;fill-rule:evenodd;stroke:none"
       d="m 1376.1921,101.5809 c 0.9133,0.056 1.6726,0.7251 1.844,1.624 0.078,0.3833 0.1057,0.7749 0.082,1.1655 h -3.7559 l 0.02,0.2046 c 0.032,0.5176 0.3054,0.9898 0.7385,1.2744 0.3826,0.2061 0.8189,0.2906 1.2508,0.2412 0.5454,-0.038 1.0764,-0.1923 1.5564,-0.4545 v 0.7729 c -0.7544,0.3315 -1.5857,0.4487 -2.4024,0.3389 -1.1245,-0.1548 -1.9729,-1.1011 -2.0044,-2.2359 -0.069,-0.6338 0.057,-1.2739 0.3599,-1.8344 0.4292,-0.7247 1.2258,-1.1514 2.0666,-1.1065 z m -0.5603,0.706 -0.2905,0.072 c -0.4617,0.168 -0.8023,0.5649 -0.8987,1.0469 l -0.053,0.331 2.9119,-0.01 c 0.014,-0.3907 -0.1199,-0.7725 -0.375,-1.0689 -0.2495,-0.2685 -0.604,-0.4145 -0.9702,-0.3999 z"
       id="path4400" />
    <path
       style="fill:#ff0000;fill-rule:evenodd;stroke:none"
       d="m 1338.5317,101.5809 0.231,0.03 c 0.8156,0.146 1.457,0.7798 1.6133,1.5938 0.078,0.3833 0.1054,0.7749 0.082,1.1655 h -3.7556 l 0.02,0.2046 c 0.032,0.5176 0.3052,0.9898 0.7383,1.2744 0.3826,0.2061 0.8189,0.2906 1.2508,0.2412 0.5454,-0.038 1.0764,-0.1923 1.5564,-0.4545 v 0.7729 c -0.7544,0.3315 -1.5855,0.4487 -2.4021,0.3389 -1.1248,-0.1548 -1.9732,-1.1011 -2.0047,-2.2359 -0.069,-0.6338 0.057,-1.2739 0.3599,-1.8344 0.4292,-0.7247 1.2258,-1.1514 2.0669,-1.1065 z m -0.5603,0.706 c -0.595,0.08 -1.0732,0.5298 -1.1892,1.1192 l -0.053,0.331 2.9119,-0.01 c 0.014,-0.3907 -0.1199,-0.7725 -0.375,-1.0689 -0.2495,-0.268 -0.6038,-0.4145 -0.97,-0.3999 z"
       id="path4402" />
    <path
       style="fill:#ff0000;fill-rule:evenodd;stroke:none"
       d="m 1358.749,101.5809 c 0.9133,0.056 1.6729,0.7251 1.844,1.624 0.078,0.3833 0.1057,0.7749 0.082,1.1655 h -3.7559 l 0.02,0.2046 c 0.032,0.5176 0.3054,0.9898 0.7385,1.2744 0.3826,0.2061 0.8189,0.2906 1.2507,0.2412 0.5455,-0.038 1.0765,-0.1923 1.5564,-0.4545 v 0.7729 c -0.7544,0.3315 -1.5857,0.4487 -2.4023,0.3389 -1.1245,-0.1548 -1.9729,-1.1011 -2.0044,-2.2359 -0.069,-0.6338 0.057,-1.2739 0.3599,-1.8344 0.4292,-0.7247 1.2258,-1.1514 2.0669,-1.1065 z m -0.5603,0.706 -0.2905,0.072 c -0.4617,0.168 -0.8023,0.5649 -0.8987,1.0469 l -0.053,0.331 2.9119,-0.01 c 0.014,-0.3907 -0.1199,-0.7725 -0.375,-1.0689 -0.2495,-0.2685 -0.604,-0.4145 -0.9702,-0.3999 z"
       id="path4404" />
    <path
       style="fill:#ff0000;fill-rule:evenodd;stroke:none"
       d="m 1322.7522,103.8338 2.4375,-2.1435 h 1.0425 l -2.6363,2.3251 2.7486,2.6465 h -1.0655 l -2.5268,-2.4277 v 2.4277 h -0.8211 v -6.9082 h 0.8211 z"
       id="path4406" />
    <path
       style="fill:#ff0000;fill-rule:evenodd;stroke:none"
       d="m 1371.1098,101.6903 h 1.6819 v 0.6347 h -1.6819 v 2.6992 c -0.016,0.2261 0.016,0.4536 0.093,0.667 0.062,0.1294 0.1836,0.2202 0.3252,0.2442 0.1394,0.032 0.2823,0.046 0.4251,0.043 h 0.8381 v 0.6836 c -0.4248,0.022 -0.8506,0.015 -1.2744,-0.022 -0.3181,-0.012 -0.6238,-0.128 -0.8691,-0.3311 -0.2056,-0.2388 -0.3242,-0.54 -0.3369,-0.8545 -0.016,-0.143 -0.023,-0.2866 -0.022,-0.4297 v -2.6992 h -0.5994 v -0.6347 h 0.5994 v -1.4122 h 0.821 z"
       id="path4408" />
    <path
       style="fill:#ff0000;fill-rule:evenodd;stroke:none"
       d="m 1367.1455,101.5789 c 0.685,0.024 1.2683,0.5078 1.4182,1.1768 0.078,0.2949 0.1147,0.5991 0.1101,0.9043 v 3.0019 h -0.8169 v -2.9746 c 0.027,-0.3725 -0.07,-0.7441 -0.2754,-1.0561 -0.2033,-0.2417 -0.5102,-0.3721 -0.8254,-0.3501 -0.6013,-0.034 -1.1494,0.3447 -1.3306,0.9189 -0.066,0.211 -0.099,0.4312 -0.095,0.6524 v 2.8095 h -0.8211 v -4.9716 h 0.8211 v 0.7724 l 0.1533,-0.2099 c 0.3977,-0.5 1.0285,-0.7559 1.6621,-0.6739 z"
       id="path4410" />
    <path
       style="fill:#ff0000;fill-rule:evenodd;stroke:none"
       d="m 1362.8315,106.6619 h -0.8169 v -4.9716 h 0.8169 z"
       id="path4412" />
    <path
       style="fill:#ff0000;fill-rule:evenodd;stroke:none"
       d="m 1347.5928,101.5789 0.1774,0.026 c 0.5818,0.1245 1.0337,0.584 1.149,1.1675 0.074,0.29 0.1096,0.5884 0.1054,0.8877 v 3.0019 h -0.821 v -2.9746 c 0.027,-0.3711 -0.061,-0.7417 -0.2534,-1.0605 -0.1834,-0.2368 -0.4732,-0.3667 -0.772,-0.3457 -0.5881,-0.028 -1.1184,0.353 -1.28,0.9189 -0.064,0.2114 -0.095,0.4312 -0.092,0.6524 v 2.8095 h -0.8211 v -2.9746 c 0.028,-0.3716 -0.061,-0.7427 -0.2526,-1.0625 -0.1871,-0.2373 -0.48,-0.3662 -0.7813,-0.3437 -0.5857,-0.023 -1.1118,0.3579 -1.2715,0.9218 -0.064,0.2105 -0.095,0.4292 -0.092,0.6495 v 2.8095 h -0.821 v -4.9716 h 0.821 v 0.7724 l 0.147,-0.2139 c 0.3425,-0.4506 0.8853,-0.7045 1.4512,-0.6777 0.6821,-0.026 1.2947,0.4175 1.4829,1.0733 l 0.1609,-0.2569 c 0.3867,-0.5825 1.0703,-0.8955 1.7637,-0.8086 z"
       id="path4414" />
    <path
       style="fill:#ff0000;fill-rule:evenodd;stroke:none"
       d="m 1328.0432,106.6619 h -0.8167 v -4.9716 h 0.8167 z"
       id="path4416" />
    <path
       style="fill:#ff0000;fill-rule:evenodd;stroke:none"
       d="m 1330.5603,101.6903 h 1.6819 v 0.6347 h -1.6819 v 2.6992 c -0.016,0.2261 0.016,0.4536 0.093,0.667 0.062,0.1294 0.1836,0.2202 0.3252,0.2442 0.1394,0.032 0.2822,0.046 0.425,0.043 h 0.8382 v 0.6836 c -0.4248,0.022 -0.8506,0.015 -1.2744,-0.022 -0.3182,-0.012 -0.6238,-0.128 -0.8692,-0.3311 -0.2056,-0.2388 -0.3242,-0.54 -0.3369,-0.8545 -0.016,-0.143 -0.023,-0.2866 -0.023,-0.4297 v -2.6992 h -0.5993 v -0.6347 h 0.5993 v -1.4122 h 0.8211 z"
       id="path4418" />
    <path
       style="fill:#ff0000;fill-rule:evenodd;stroke:none"
       d="m 1362.8315,100.7899 h -0.8169 v -1.0362 h 0.8169 z"
       id="path4420" />
    <path
       style="fill:#ff0000;fill-rule:evenodd;stroke:none"
       d="m 1328.0432,100.7899 h -0.8167 v -1.0362 h 0.8167 z"
       id="path4422" />
    <path
       style="fill:#ff0000;fill-rule:evenodd;stroke:none"
       d="m 1376.3857,89.3069 c 0.5518,0.031 1.0259,0.4029 1.1868,0.9312 0.08,0.3027 0.1128,0.6162 0.097,0.9287 h -2.5039 l 0.035,0.2647 c 0.067,0.4575 0.4333,0.8139 0.893,0.8681 0.5015,0.057 1.0081,-0.044 1.4492,-0.289 v 0.5151 c -0.5554,0.2524 -1.1779,0.3193 -1.7741,0.1899 -0.6697,-0.1694 -1.1455,-0.7641 -1.1638,-1.4545 -0.071,-0.5333 0.086,-1.0718 0.4323,-1.483 0.3506,-0.3603 0.8499,-0.5346 1.3484,-0.4712 z m -0.3735,0.4703 -0.1936,0.049 c -0.3804,0.146 -0.6326,0.5107 -0.6345,0.9184 h 1.9411 c 0.028,-0.3852 -0.1845,-0.7475 -0.5337,-0.9126 -0.1855,-0.067 -0.385,-0.084 -0.5793,-0.051 z"
       id="path4424" />
    <path
       style="fill:#ff0000;fill-rule:evenodd;stroke:none"
       d="m 1369.9673,89.306 c 0.4292,-0.01 0.8313,0.2114 1.0559,0.5771 0.1443,0.2847 0.2131,0.6011 0.1997,0.9199 v 1.8912 h -0.5445 v -0.503 l -0.099,0.1407 c -0.2571,0.3085 -0.6462,0.475 -1.0469,0.4482 -0.3688,0.027 -0.7253,-0.1406 -0.9406,-0.4409 -0.2432,-0.4019 -0.2271,-0.9082 0.041,-1.2935 0.1645,-0.1889 0.3855,-0.3193 0.6303,-0.3721 0.2132,-0.051 0.4314,-0.074 0.6504,-0.071 h 0.7644 c 0.043,-0.3623 -0.1906,-0.7007 -0.5444,-0.7896 -0.5,-0.1099 -1.0227,-0.031 -1.468,0.2212 v -0.5039 c 0.4114,-0.1719 0.8562,-0.2485 1.3013,-0.2241 z m 0.1694,1.7221 -0.3047,0.01 c -0.2117,0 -0.4209,0.046 -0.6101,0.1411 -0.2437,0.1768 -0.3298,0.5 -0.2068,0.7749 0.1216,0.2495 0.386,0.3975 0.6624,0.3701 0.4333,0.01 0.8183,-0.2768 0.9323,-0.6953 0.052,-0.1953 0.076,-0.3979 0.069,-0.6006 z"
       id="path4426" />
    <path
       style="fill:#ff0000;fill-rule:evenodd;stroke:none"
       d="m 1359.2986,89.3069 c 0.5517,0.031 1.0258,0.4029 1.1867,0.9312 0.08,0.3027 0.1128,0.6162 0.097,0.9287 h -2.5036 l 0.035,0.2647 c 0.067,0.458 0.4334,0.8144 0.8931,0.8681 0.5015,0.057 1.0078,-0.044 1.449,-0.289 v 0.5151 c -0.5554,0.2524 -1.1777,0.3193 -1.7739,0.1899 -0.67,-0.1694 -1.1458,-0.7636 -1.1639,-1.4545 -0.071,-0.5333 0.086,-1.0718 0.4322,-1.483 0.3508,-0.3598 0.8498,-0.5341 1.3484,-0.4712 z m -0.3736,0.4703 -0.1936,0.049 c -0.3803,0.146 -0.6323,0.5107 -0.6345,0.9184 h 1.9414 c 0.027,-0.3852 -0.1848,-0.7475 -0.5339,-0.9126 -0.1856,-0.067 -0.385,-0.084 -0.5794,-0.051 z"
       id="path4428" />
    <path
       style="fill:#ff0000;fill-rule:evenodd;stroke:none"
       d="m 1356.6264,92.6942 h -0.5446 v -0.4971 l -0.091,0.1382 c -0.4039,0.4834 -1.1016,0.5932 -1.6346,0.2578 -0.2929,-0.2031 -0.5046,-0.5034 -0.5974,-0.8472 -0.1665,-0.5654 -0.1247,-1.1714 0.1179,-1.708 0.2845,-0.6172 1.0022,-0.9058 1.6346,-0.6572 0.2436,0.095 0.446,0.2724 0.5708,0.5019 v -1.7934 h 0.5446 z m -1.6779,-2.917 -0.1812,0.064 c -0.2475,0.1421 -0.4219,0.3833 -0.4787,0.6626 -0.1102,0.4282 -0.083,0.8799 0.077,1.291 0.1558,0.3946 0.5808,0.6119 0.9917,0.5079 0.3406,-0.098 0.5969,-0.379 0.6624,-0.7271 0.1108,-0.4277 0.084,-0.8794 -0.078,-1.2905 -0.157,-0.3946 -0.5823,-0.6118 -0.9936,-0.5078 z"
       id="path4430" />
    <path
       style="fill:#ff0000;fill-rule:evenodd;stroke:none"
       d="m 1319.5283,88.2029 0.2078,0.02 c 0.3967,0.048 0.7783,0.1826 1.1176,0.394 v 0.6363 c -0.6399,-0.5738 -1.5542,-0.7251 -2.3449,-0.3887 -0.3843,0.207 -0.6482,0.5835 -0.7115,1.0156 -0.1294,0.5708 -0.069,1.1689 0.1717,1.7026 0.2461,0.4307 0.7036,0.6973 1.1997,0.6997 0.4153,0.049 0.8362,-0.027 1.2077,-0.2187 v -1.1865 h -0.9763 V 90.386 h 1.5681 v 1.8974 c -0.8183,0.5572 -1.8642,0.6553 -2.7719,0.2608 -0.5855,-0.3077 -0.9793,-0.8863 -1.0503,-1.544 -0.115,-0.6372 -0.012,-1.2944 0.2925,-1.8662 0.3527,-0.561 0.9621,-0.9092 1.6245,-0.9277 0.1548,-0.012 0.3103,-0.013 0.4653,0 z"
       id="path4432" />
    <path
       style="fill:#ff0000;fill-rule:evenodd;stroke:none"
       d="m 1346.1311,91.3655 c -0.018,0.2491 0.047,0.4971 0.1833,0.7061 0.135,0.1626 0.3399,0.25 0.5506,0.2353 0.4807,0.022 0.894,-0.3388 0.9367,-0.8183 l 0.016,-0.23 v -1.8789 h 0.5444 v 3.3145 h -0.5444 v -0.5098 l -0.1028,0.1416 c -0.2942,0.3686 -0.7737,0.5366 -1.2336,0.4321 -0.4051,-0.065 -0.7295,-0.3701 -0.8206,-0.77 -0.052,-0.1963 -0.077,-0.3989 -0.074,-0.6016 v -2.0068 h 0.5445 z"
       id="path4434" />
    <path
       style="fill:#ff0000;fill-rule:evenodd;stroke:none"
       d="m 1343.4653,89.3069 0.1541,0.02 c 0.4895,0.083 0.8899,0.436 1.0327,0.9111 0.08,0.3027 0.1128,0.6162 0.097,0.9287 h -2.5037 l 0.035,0.2647 c 0.067,0.458 0.4333,0.8144 0.8931,0.8681 0.5014,0.057 1.0078,-0.044 1.4489,-0.289 v 0.5151 c -0.5554,0.2524 -1.1777,0.3193 -1.7739,0.1899 -0.6699,-0.1694 -1.1457,-0.7636 -1.1638,-1.4545 -0.071,-0.5333 0.086,-1.0718 0.4321,-1.483 0.3509,-0.3598 0.8499,-0.5341 1.3484,-0.4712 z m -0.3735,0.4703 c -0.3968,0.054 -0.7156,0.3535 -0.7928,0.7461 l -0.035,0.2211 h 1.9415 c 0.027,-0.3852 -0.1849,-0.7475 -0.534,-0.9126 -0.1855,-0.067 -0.385,-0.084 -0.5793,-0.051 z"
       id="path4436" />
    <path
       style="fill:#ff0000;fill-rule:evenodd;stroke:none"
       d="m 1337.1623,89.306 0.1629,0.018 c 0.5866,0.056 1.0439,0.5361 1.0708,1.1245 0.015,0.1176 0.023,0.2363 0.022,0.3549 v 1.8912 h -0.5447 v -0.503 l -0.099,0.1407 c -0.257,0.3085 -0.6462,0.475 -1.0468,0.4482 -0.3689,0.027 -0.7254,-0.1401 -0.9407,-0.4409 -0.2432,-0.4019 -0.2271,-0.9082 0.041,-1.2935 0.1645,-0.1889 0.3855,-0.3193 0.6304,-0.3721 0.2131,-0.051 0.4314,-0.074 0.6504,-0.071 h 0.7641 c 0.043,-0.3623 -0.1904,-0.7007 -0.5442,-0.7896 -0.5,-0.1099 -1.0227,-0.031 -1.468,0.2212 v -0.5039 c 0.4111,-0.1719 0.856,-0.2485 1.301,-0.2241 z m 0.1697,1.7221 c -0.3125,-0.023 -0.6265,0.028 -0.9148,0.1509 -0.2078,0.147 -0.3039,0.4058 -0.2429,0.6529 0.075,0.3168 0.3745,0.5283 0.6982,0.4921 0.4336,0.01 0.8186,-0.2768 0.9327,-0.6953 0.052,-0.1953 0.075,-0.3979 0.068,-0.6006 z"
       id="path4438" />
    <path
       style="fill:#ff0000;fill-rule:evenodd;stroke:none"
       d="m 1383.4812,89.3069 c 0.5517,0.031 1.0259,0.4029 1.187,0.9312 0.08,0.3032 0.1125,0.6162 0.097,0.9287 h -2.5037 l 0.035,0.2647 c 0.067,0.458 0.4333,0.8139 0.893,0.8681 0.5015,0.057 1.0078,-0.044 1.449,-0.289 v 0.5151 c -0.5554,0.2524 -1.1777,0.3193 -1.7739,0.1899 -0.6699,-0.1694 -1.1458,-0.7641 -1.1638,-1.4545 -0.071,-0.5333 0.086,-1.0718 0.4321,-1.483 0.3508,-0.3598 0.8498,-0.5341 1.3484,-0.4712 z m -0.3736,0.4703 -0.1936,0.049 c -0.3803,0.146 -0.6323,0.5107 -0.6345,0.9184 h 1.9414 c 0.027,-0.3852 -0.1848,-0.7475 -0.5339,-0.9126 -0.1856,-0.067 -0.385,-0.084 -0.5794,-0.051 z"
       id="path4440" />
    <path
       style="fill:#ff0000;fill-rule:evenodd;stroke:none"
       d="m 1331.1567,89.3069 0.1541,0.02 c 0.4895,0.083 0.8899,0.436 1.0327,0.9111 0.08,0.3027 0.1128,0.6162 0.097,0.9287 h -2.5039 l 0.035,0.2647 c 0.067,0.4575 0.4333,0.8139 0.893,0.8681 0.5015,0.057 1.0081,-0.044 1.4492,-0.289 v 0.5151 c -0.5554,0.2524 -1.1779,0.3193 -1.7741,0.1899 -0.67,-0.1694 -1.1455,-0.7641 -1.1636,-1.4545 -0.071,-0.5333 0.086,-1.0718 0.4321,-1.483 0.3506,-0.3603 0.8499,-0.5346 1.3484,-0.4712 z m -0.3735,0.4703 c -0.3967,0.053 -0.7156,0.3535 -0.7927,0.7461 l -0.035,0.2211 h 1.9411 c 0.028,-0.3852 -0.1846,-0.748 -0.5337,-0.9126 -0.1855,-0.067 -0.385,-0.084 -0.5793,-0.051 z"
       id="path4442" />
    <path
       style="fill:#ff0000;fill-rule:evenodd;stroke:none"
       d="m 1387.0049,89.3113 c 0.2624,0.016 0.5207,0.072 0.7661,0.1661 v 0.5151 l -0.2346,-0.1035 c -0.4007,-0.1538 -0.8396,-0.1763 -1.2537,-0.063 -0.2241,0.062 -0.3599,0.2905 -0.3074,0.5171 0.051,0.1621 0.1868,0.2827 0.354,0.313 0.2713,0.078 0.5449,0.1484 0.8203,0.2104 l 0.2271,0.081 c 0.4321,0.1499 0.6733,0.6108 0.5495,1.0513 -0.069,0.2846 -0.2712,0.5195 -0.5424,0.6303 -0.5337,0.1919 -1.1153,0.2041 -1.6563,0.035 l -0.3115,-0.09 v -0.5625 l 0.2998,0.1372 c 0.3823,0.1655 0.8049,0.2153 1.2153,0.143 0.2066,-0.018 0.3824,-0.1591 0.4453,-0.3564 0.061,-0.2051 -0.038,-0.4238 -0.2331,-0.5117 -0.3189,-0.1211 -0.648,-0.2129 -0.9834,-0.2744 l -0.2002,-0.075 c -0.3301,-0.1221 -0.5415,-0.4458 -0.52,-0.7974 -0.015,-0.4429 0.2964,-0.8316 0.7324,-0.9121 0.2729,-0.062 0.5542,-0.08 0.8328,-0.053 z"
       id="path4444" />
    <path
       style="fill:#ff0000;fill-rule:evenodd;stroke:none"
       d="m 1323.5876,89.3069 0.1541,0.02 c 0.4895,0.083 0.8899,0.436 1.0327,0.9111 0.08,0.3027 0.1128,0.6162 0.097,0.9287 h -2.5039 l 0.035,0.2647 c 0.067,0.4575 0.4333,0.8139 0.893,0.8681 0.5015,0.057 1.0081,-0.044 1.4492,-0.289 v 0.5151 c -0.5554,0.2524 -1.1779,0.3193 -1.7741,0.1899 -0.6699,-0.1694 -1.1455,-0.7641 -1.1636,-1.4545 -0.071,-0.5333 0.086,-1.0718 0.4321,-1.483 0.3506,-0.3603 0.8499,-0.5346 1.3484,-0.4712 z m -0.3735,0.4703 c -0.3967,0.053 -0.7156,0.3535 -0.7927,0.7461 l -0.035,0.2211 h 1.9411 c 0.028,-0.3852 -0.1845,-0.748 -0.5337,-0.9126 -0.1855,-0.067 -0.385,-0.084 -0.5793,-0.051 z"
       id="path4446" />
    <path
       style="fill:#ff0000;fill-rule:evenodd;stroke:none"
       d="m 1374.0451,89.3021 c 0.072,0 0.1443,0.014 0.2156,0.028 v 0.5586 c -0.4477,-0.2407 -1.0048,-0.08 -1.2548,0.3633 -0.098,0.2187 -0.146,0.4565 -0.1392,0.6963 v 1.7461 h -0.5474 v -3.3145 h 0.5474 v 0.5151 l 0.093,-0.1411 c 0.2603,-0.3252 0.6687,-0.4956 1.083,-0.4516 z"
       id="path4448" />
    <path
       style="fill:#ff0000;fill-rule:evenodd;stroke:none"
       d="m 1351.1853,89.3021 0.065,0.01 c 0.05,0.01 0.1006,0.013 0.1504,0.023 v 0.5586 c -0.4478,-0.2407 -1.0049,-0.079 -1.2549,0.3633 -0.098,0.2187 -0.1455,0.4565 -0.1389,0.6963 v 1.7461 h -0.5474 v -3.3145 h 0.5474 V 89.9 l 0.092,-0.1411 c 0.2603,-0.3252 0.6685,-0.4956 1.0828,-0.4516 z"
       id="path4450" />
    <path
       style="fill:#ff0000;fill-rule:evenodd;stroke:none"
       d="m 1380.791,92.6942 h -0.5444 v -4.605 h 0.5444 z"
       id="path4452" />
    <path
       style="fill:#ff0000;fill-rule:evenodd;stroke:none"
       d="m 1379.1074,92.6942 h -0.5447 v -4.605 h 0.5447 z"
       id="path4454" />
    <path
       style="fill:#ff0000;fill-rule:evenodd;stroke:none"
       d="m 1327.6313,89.3221 0.2334,0.066 c 0.2954,0.1269 0.512,0.3877 0.5825,0.7012 0.052,0.1972 0.077,0.3999 0.073,0.6035 v 2.001 h -0.5447 v -1.983 c 0.018,-0.2485 -0.046,-0.496 -0.1836,-0.7041 -0.1357,-0.1611 -0.3401,-0.248 -0.5503,-0.2334 -0.4802,-0.023 -0.893,0.3379 -0.9348,0.8169 l -0.016,0.2305 v 1.8731 h -0.5473 v -3.3145 h 0.5473 v 0.5151 l 0.1023,-0.1401 c 0.2964,-0.3682 0.7766,-0.5356 1.2378,-0.4326 z"
       id="path4456" />
    <path
       style="fill:#ff0000;fill-rule:evenodd;stroke:none"
       d="m 1340.0771,89.3797 h 1.1214 v 0.4233 h -1.1214 v 1.7994 c -0.022,0.1811 0.017,0.3642 0.1109,0.5205 0.1306,0.094 0.292,0.1352 0.4516,0.1157 h 0.5589 v 0.4556 c -0.2832,0.01 -0.5669,0 -0.8496,-0.015 -0.2129,0 -0.418,-0.081 -0.5794,-0.2207 -0.134,-0.1611 -0.2126,-0.3608 -0.2246,-0.5703 l -0.015,-0.2861 v -1.7994 h -0.3997 v -0.4233 h 0.3997 V 88.438 h 0.5473 z"
       id="path4458" />
    <path
       style="fill:#ff0000;fill-rule:evenodd;stroke:none"
       d="m 1335.0359,89.3021 0.065,0.01 c 0.05,0.01 0.1008,0.013 0.1506,0.023 v 0.5586 c -0.448,-0.2407 -1.0052,-0.079 -1.2552,0.3633 -0.098,0.2187 -0.1455,0.4565 -0.1389,0.6963 v 1.7461 h -0.5473 v -3.3145 h 0.5473 V 89.9 l 0.093,-0.1411 c 0.2602,-0.3252 0.6687,-0.4956 1.083,-0.4516 z"
       id="path4460" />
    <path
       style="fill:#ff0000;fill-rule:evenodd;stroke:none"
       d="m 1365.4436,91.282 1.1335,-3.0063 h 0.8911 v 4.4185 h -0.5835 v -3.8799 l -1.1391,3.0302 h -0.6004 l -1.1391,-3.0302 v 3.8799 h -0.5806 v -4.4185 h 0.8911 z"
       id="path4462" />
    <path
       style="fill:#ff0000;fill-rule:evenodd;stroke:none"
       d="m 1330.9968,88.9593 h -0.4526 l 0.8283,-1.1128 h 0.5891 z"
       id="path4464" />
    <path
       style="fill:#ff0000;fill-rule:evenodd;stroke:none"
       d="m 1323.4277,88.9593 h -0.4526 l 0.8283,-1.1128 h 0.5892 z"
       id="path4466" />
    <path
       style="fill:#ff0000;fill-rule:evenodd;stroke:none"
       d="m 1398.5539,132.3616 c -0.9502,-0.667 -1.9436,-1.2846 -2.8447,-2.0083 -5.0713,-4.0566 -6.3935,-9.4541 -5.4497,-15.5927 0.8052,-5.2129 3.3379,-9.5928 6.7673,-13.5005 0.2451,-0.2823 0.6233,-0.5948 0.9632,-0.624 1.2746,-0.108 4.1762,1.915 4.6474,3.1538 0.8328,2.1987 1.638,4.4038 2.4912,6.5908 0.7823,2.0088 1.5469,2.2226 3.1846,0.8877 1.4463,-1.1773 2.9368,-2.3262 4.2358,-3.6533 1.5738,-1.606 3.2061,-2.3169 5.5206,-1.7696 1.1831,0.2827 1.6972,0.5489 1.9511,1.8096 1.1897,5.9971 0.9038,11.8086 -1.8476,17.3579 -2.7832,5.606 -7.3557,8.3872 -13.6021,8.4985 -0.2605,0.01 -0.5166,0.1304 -0.7756,0.1978 l -5.2334,-1.3452 z"
       id="path4468" />
    <path
       style="fill:#ff0000;fill-rule:evenodd;stroke:none"
       d="m 1370.8325,148.9324 c -0.3731,1.1592 -0.637,2.377 -1.1519,3.4703 -0.9812,2.0893 -1.7705,4.4018 -3.2492,6.0878 -1.8987,2.1617 -3.8303,4.0308 -3.0391,7.2369 0.064,0.2636 -0.3191,0.7485 -0.6179,0.9668 -2.7505,2.041 -3.021,4.8051 -2.7522,7.9687 0.1226,1.4502 -0.499,3.1016 -1.1924,4.4551 -1.6089,3.1592 -1.3442,5.5693 0.9363,8.3833 0.5857,0.7222 1.042,2.4355 0.6387,2.9072 -1.636,1.9194 -1.0301,3.7822 -0.4815,5.7651 0.1821,0.6504 0.1799,1.356 0.2647,2.0342 -0.2337,0.1167 -0.4629,0.2354 -0.6968,0.3516 -0.4602,-0.7441 -0.9299,-1.4766 -1.3718,-2.229 -0.815,-1.3809 -1.8431,-2.6983 -2.3575,-4.1851 -0.4807,-1.3925 -0.6596,-2.997 -0.5339,-4.4717 0.2498,-2.9702 -0.6414,-5.1943 -2.78,-6.0371 -2.482,-0.978 -4.4785,0.1241 -4.4619,2.8692 0.015,2.6318 -0.5105,4.2446 -3.3711,4.998 -1.2117,0.3179 -2.0144,2.0811 -3.0786,3.1114 -0.6465,0.6259 -1.4319,1.1001 -2.158,1.6435 -0.252,-0.2256 -0.4993,-0.4497 -0.7512,-0.6753 0.5058,-0.8633 1.1113,-1.6826 1.4985,-2.5928 0.5254,-1.2368 0.8367,-2.5625 1.3418,-3.8125 0.5681,-1.3979 1.1909,-2.7793 1.9107,-4.0976 0.2368,-0.4356 0.8666,-0.6558 1.3159,-0.9727 1.7829,-1.2573 2.8808,-2.6455 1.2028,-4.8066 -0.5192,-0.6709 -0.8017,-1.5181 -1.3879,-2.6675 -2.0444,0.7837 -4.0627,1.5523 -6.0713,2.335 -0.5044,0.1982 -1.0034,0.6684 -1.4817,0.6435 -2.9792,-0.1616 -5.9536,-0.4282 -9.3396,-0.6933 0.6465,-0.5088 0.9998,-0.8531 1.4126,-1.1026 1.501,-0.9004 2.9707,-1.8637 4.5471,-2.6074 0.8782,-0.4126 1.9302,-0.5693 2.9136,-0.6157 1.4832,-0.064 3.0086,0.2954 4.4456,0.051 1.1167,-0.1924 2.1511,-0.9908 3.1684,-1.6031 0.7354,-0.4384 1.3182,-1.2768 2.0879,-1.478 2.7344,-0.7168 4.1109,-2.8545 5.8767,-4.7685 1.6773,-1.8165 4.0174,-3.1602 6.2908,-4.23 1.6257,-0.7652 3.0901,-1.2481 3.6992,-3.1782 0.2852,-0.9092 1.1636,-1.647 1.8294,-2.4126 1.2234,-1.4102 2.4253,-2.8443 3.7529,-4.1578 0.8052,-0.7968 1.8225,-1.3838 2.7444,-2.0639 l 0.4404,0.1728 z"
       id="path4470" />
    <path
       style="fill:#ff0000;fill-rule:evenodd;stroke:none"
       d="m 1287.6528,178.0887 c -3.6985,1.895 -8.0569,2.8623 -12.5298,1.1352 -1.6662,-0.642 -2.7534,-0.2548 -4.0241,0.5157 -0.8938,0.541 -1.9427,1.5937 -2.7679,0.185 -0.7951,-1.3535 0.5843,-1.7539 1.4773,-2.1865 1.6575,-0.8022 2.6609,-1.9551 3.3213,-3.792 1.3367,-3.7222 3.9983,-6.4648 7.6499,-8.0527 3.729,-1.6197 8.1948,0.082 9.6885,3.5439 1.2356,2.8555 0.2046,6.4575 -2.8135,8.6538 z"
       id="path4472" />
    <path
       style="fill:#ff0000;fill-rule:evenodd;stroke:none"
       d="m 1323.0158,165.8006 c 0.146,1.7373 0.6582,3.541 0.365,5.2002 -0.7893,4.4692 -5.0437,6.9033 -9.4128,5.6694 -0.332,-0.095 -0.6763,-0.1811 -0.98,-0.3379 -2.7773,-1.4497 -5.3572,-1.2226 -8.1399,0.3052 -3.5107,1.9263 -7.7029,0.7246 -10.0381,-2.4546 -2.3745,-3.2319 -2.1709,-7.5063 0.7625,-10.4297 2.0259,-2.0214 2.8791,-4.2041 2.4648,-7.0542 -0.4926,-3.4145 0.5244,-6.331 3.7332,-8.0278 3.0881,-1.6333 6.092,-1.293 8.864,0.8735 0.069,0.053 0.1858,0.044 0.2832,0.064 l 2.1357,2.8579 c 0.082,1.7862 0.2632,3.5713 0.2207,5.3565 -0.045,1.851 0.7942,2.9843 2.5291,3.4336 1.7222,0.4472 3.3892,1.1152 5.0789,1.684 l 2.1362,2.8579 z"
       id="path4474" />
    <path
       style="fill:#ff0000;fill-rule:evenodd;stroke:none"
       d="m 1296.7903,192.4305 c -2.5071,1.4971 -5.0481,2.7549 -7.8623,2.728 -2.16,-0.02 -3.4693,0.9888 -4.7708,2.3569 -0.2693,0.2832 -0.5413,0.7178 -0.8623,0.7676 -0.4717,0.073 -1.1116,0.01 -1.4421,-0.2724 -0.2549,-0.2163 -0.1612,-0.8643 -0.1809,-1.3199 0,-0.1201 0.1416,-0.2553 0.229,-0.3725 1.2421,-1.6524 2.3225,-4.4595 2.5266,-6.4029 0.4006,-3.7763 1.9897,-7.0307 4.5993,-9.7387 2.2134,-2.2993 6.3445,-2.522 8.8941,-0.6338 2.665,1.9741 3.5522,5.896 1.8293,9.0864 -0.7524,1.3941 -1.9621,2.5405 -2.9641,3.8008 z"
       id="path4476" />
    <path
       style="fill:#ff0000;fill-rule:evenodd;stroke:none"
       d="m 1281.6587,150.6981 c 1.0549,-0.4004 2.0903,-0.8721 3.1714,-1.188 2.9807,-0.8736 5.757,-0.3482 7.9934,1.8003 3.8469,3.6943 2.1706,10.0766 -3.0567,11.3984 -4.4585,1.1279 -8.7951,0.4668 -12.582,-2.269 -1.0398,-0.7525 -1.8308,-0.8921 -2.9063,-0.4244 -0.54,0.2359 -1.1242,0.542 -1.6782,0.5196 -0.4883,-0.019 -1.2427,-0.3545 -1.3645,-0.7222 -0.1284,-0.3818 0.3189,-0.9956 0.5952,-1.46 0.1018,-0.1728 0.4278,-0.2709 0.6621,-0.2968 2.7969,-0.3111 4.0757,-2.4087 5.3533,-4.5122 l 3.8106,-2.8482 z"
       id="path4478" />
    <path
       style="fill:#ff0000;fill-rule:evenodd;stroke:none"
       d="m 1311.8498,195.1497 c -1.3235,0.6499 -2.5888,1.5322 -3.9892,1.8848 -1.5845,0.4009 -2.6162,1.2168 -3.3677,2.5766 -0.2368,0.4273 -0.5098,0.9556 -0.9063,1.1436 -0.4951,0.2363 -1.2348,0.375 -1.673,0.1577 -0.2669,-0.1323 -0.4263,-1.2895 -0.1917,-1.5093 2.0464,-1.8989 1.4636,-3.9668 0.8662,-6.2734 -0.822,-3.1611 -0.145,-6.2935 1.094,-9.2827 1.6106,-3.8897 5.5689,-5.7515 9.1607,-4.3399 3.4707,1.3643 5.2314,5.6665 3.8151,9.4673 -0.9477,2.5401 -2.7505,4.4209 -4.8081,6.1748 z"
       id="path4480" />
    <path
       style="fill:#ff0000;fill-rule:evenodd;stroke:none"
       d="m 1298.7517,94.6585 c 0.9306,-1.3911 2.6794,-1.956 3.8386,-1.2383 1.2197,0.7544 1.3904,2.5757 0.3894,4.1006 -0.926,1.4087 -2.6501,1.9702 -3.8169,1.2403 -1.2163,-0.7603 -1.4028,-2.6172 -0.4111,-4.1026 z"
       id="path4482" />
    <path
       style="fill:#ff0000;fill-rule:evenodd;stroke:none"
       d="m 1296.9062,97.6004 c -0.7334,1.1914 -2.133,1.6226 -3.1274,0.9678 -0.9724,-0.6416 -1.1743,-2.0713 -0.4634,-3.2876 0.6975,-1.1939 2.1394,-1.7124 3.1113,-1.1201 0.9778,0.5957 1.2078,2.2573 0.4795,3.4399 z"
       id="path4484" />
    <path
       style="fill:#ff0000;fill-rule:evenodd;stroke:none"
       d="m 1317.7077,102.7786 c -0.1464,0.1968 -0.3476,0.5152 -0.5905,0.7959 -1.3726,1.604 -3.7447,2.1656 -5.3118,1.271 -1.5125,-0.8613 -2.1255,-2.8276 -1.4299,-4.9267 0.2431,-0.7329 0.6294,-1.4844 1.1406,-2.0577 1.7556,-1.9726 4.1089,-2.3803 5.7922,-1.1137 1.607,1.2129 1.8074,3.7637 0.3994,6.0312 z"
       id="path4486" />
    <path
       style="fill:#ff0000;fill-rule:evenodd;stroke:none"
       d="m 1291.5898,98.91 c -0.6804,0.7148 -1.4494,1.4511 -2.6474,0.7666 -1.0494,-0.6016 -1.2918,-2.1504 -0.5071,-3.3516 0.6487,-0.9902 1.5202,-1.5063 2.6748,-0.9043 1.0095,0.5249 1.2497,2.2564 0.4807,3.4937 z"
       id="path4488" />
    <path
       style="fill:#ff0000;fill-rule:evenodd;stroke:none"
       d="m 1277.4243,147.3641 -1.6284,-0.9922 c -0.2791,-0.3018 -0.5301,-0.6318 -0.8391,-0.9028 -3.2674,-2.8755 -4.4612,-6.917 -2.8059,-10.604 0.8378,-1.8692 1.9963,-3.6714 3.3276,-5.2325 3.114,-3.6455 5.3218,-7.6211 6.0168,-12.4389 0.409,-2.8272 1.1045,-5.6192 1.7964,-8.3985 1.0427,-4.1767 3.8616,-6.6274 7.9256,-7.6797 4.9624,-1.2841 9.8225,-0.7138 14.4294,1.3291 5.6213,2.4913 7.2007,5.4117 6.3042,10.8755 l -2.1653,3.5533 c -2.4912,2.2099 -4.8913,4.5356 -7.4946,6.602 -3.1851,2.5327 -5.1765,5.8379 -6.916,9.4092 -1.7217,3.5303 -3.4204,7.0967 -5.4968,10.418 -2.42,3.8725 -6.814,5.6084 -10.4991,4.6357 -0.655,-0.1733 -1.2998,-0.3818 -1.9504,-0.5752 z"
       id="path4490" />
    <path
       style="fill:#ff0000;fill-rule:evenodd;stroke:none"
       d="m 1305.2839,100.1976 c -1.2136,-0.7769 -1.4709,-2.8203 -0.543,-4.3189 0.9546,-1.542 2.9703,-2.2602 4.2469,-1.5127 1.2893,0.752 1.5732,2.9243 0.5822,4.4331 -0.9958,1.5171 -3.0507,2.189 -4.2834,1.3999 z"
       id="path4492" />
    <path
       style="fill:#ff0000;fill-rule:evenodd;stroke:none"
       d="m 1378.7846,149.6868 c 0.9891,0.049 1.6763,-0.1147 1.8919,0.128 2.4692,2.8007 6.6892,3.9087 7.6033,8.2544 0.7487,3.5673 1.9016,7.0517 2.8811,10.5673 0.1269,0.4561 0.1738,1.044 0.4814,1.3291 0.8401,0.774 1.7991,1.4165 2.7151,2.1123 0.5181,-0.8847 1.3982,-1.7363 1.477,-2.6582 0.2032,-2.3701 0.04,-4.7641 0.045,-7.1508 0.01,-3.3413 -0.084,-6.691 0.1013,-10.0254 0.127,-2.292 0.9173,-4.3955 3.2876,-5.2339 -0.021,-1.4751 -0.228,-2.856 0.014,-4.1563 0.1438,-0.7592 1.0078,-1.3838 1.5432,-2.0659 0.6304,0.6079 1.6355,1.1245 1.8145,1.8404 0.3117,1.2636 0.1189,2.6503 0.1404,4.1928 2.8391,1.3155 3.1455,4.2715 3.0727,7.0064 -0.115,4.2011 -0.7847,8.3857 -1.2275,12.5771 -0.1148,1.106 -0.4561,2.2246 -0.3399,3.2979 0.083,0.7319 0.6521,1.7993 1.2381,1.9887 0.6152,0.1988 1.7224,-0.27 2.2356,-0.8027 0.8081,-0.8403 1.3518,-1.957 1.9108,-3.0063 1.7288,-3.2642 3.5022,-6.4375 7.0899,-8.1319 0.7617,-0.3623 1.1416,-1.4721 1.8025,-2.1367 0.5134,-0.5186 1.1833,-0.8799 1.78,-1.3076 0.3084,0.6709 0.8433,1.3286 0.8816,2.0127 0.1841,3.1601 -0.2507,6.2138 -2.0837,8.915 -0.7608,1.1245 -1.4773,2.2822 -2.3355,3.3306 -2.9866,3.6484 -5.0906,7.6797 -5.7864,12.4048 -0.207,1.4062 -0.7085,2.7729 -1.1621,4.1294 -1.8467,5.5268 -3.9179,7.06 -9.7583,7.3007 -0.8769,0.037 -1.7539,0.078 -2.6357,0.1138 -5.1082,0.2017 -6.7632,-0.918 -8.1184,-5.7783 -0.9795,-3.5205 -1.7432,-7.1069 -2.7134,-10.6323 -0.3757,-1.3643 -0.7498,-2.9356 -1.6602,-3.9112 -3.6364,-3.8696 -3.5388,-9.3095 -5.9672,-13.6826 -0.4947,-0.8896 0.088,-2.6914 0.6896,-3.7944 0.9874,-1.8027 1.3904,-3.3272 -0.1325,-4.9981 -0.377,-0.414 -0.4397,-1.1074 -0.7754,-2.0239 z"
       id="path4494" />
    <path
       style="fill:#ff0000;fill-rule:evenodd;stroke:none"
       d="m 1374.9841,118.8421 c -0.916,1.624 -1.8332,3.2544 -2.8413,5.042 -0.9502,-0.8364 -1.501,-1.3193 -2.1936,-1.9268 l 4.5549,-3.3129 c 0.1612,0.065 0.3189,0.1328 0.48,0.1977 z"
       id="path4496" />
    <path
       style="fill:#ff0000;fill-rule:evenodd;stroke:none"
       d="m 1365.1662,145.949 c -0.4428,-0.5385 -0.8847,-1.0835 -1.3667,-1.6674 2.126,-1.2618 3.906,-2.3169 6.2403,-3.7071 -0.8545,1.4419 -1.3836,2.3286 -1.9102,3.2188 l -2.967,2.1582 z"
       id="path4498" />
    <path
       style="fill:#ff0000;fill-rule:evenodd;stroke:none"
       d="m 1332.6157,127.8084 c -2.2664,-3.0137 -2.3091,-3.7466 -0.3196,-6.9033 0.6873,-1.0928 1.3845,-2.187 2.1665,-3.2119 2.2588,-2.9595 6.3936,-2.7525 7.9707,0.5913 0.9488,2.0176 1.6016,4.3408 1.6587,6.5508 0.038,1.4311 -0.8889,3.291 -1.9939,4.2715 -3.6867,3.269 -6.4231,2.7744 -9.4824,-1.2984 z"
       id="path4500" />
    <path
       style="fill:#ff0000;fill-rule:evenodd;stroke:none"
       d="m 1347.1745,139.5491 c 1.3872,-0.1767 2.8406,-0.7099 4.1507,-0.4599 2.6782,0.5083 5.3166,1.3305 7.8901,2.2514 0.918,0.3296 1.7583,1.1949 2.3611,2.0157 1.4834,2.0161 1.1645,2.9487 -0.9617,4.1709 -3.469,1.9931 -7.2402,2.5986 -11.1623,2.6757 -1.4395,0.027 -2.5181,-0.4135 -3.0286,-1.8833 -0.3,-0.8588 -0.7639,-1.6616 -1.0474,-2.521 -1.0041,-3.0654 -0.7111,-3.9399 1.7981,-6.2495 z"
       id="path4502" />
    <path
       style="fill:#ff0000;fill-rule:evenodd;stroke:none"
       d="m 1357.082,125.4632 c -1.9243,1.7192 -3.9988,2.0483 -6.4382,1.3433 -2.812,-0.8101 -3.9202,-2.0044 -4.1509,-4.9546 -0.2144,-2.7393 0.6418,-4.4849 3.4243,-5.1807 3.4348,-0.8569 6.9956,-1.3838 10.5308,-1.6016 2.7517,-0.166 4.0298,2.586 2.2575,4.7417 -1.6794,2.0479 -3.7348,3.7823 -5.6235,5.6519 z"
       id="path4504" />
    <path
       style="fill:#ff0000;fill-rule:evenodd;stroke:none"
       d="m 1346.7344,109.3885 c -2.2022,0.6782 -2.8206,4.9526 -6.606,2.4282 2.2114,-1.0498 4.2771,-2.0337 6.3455,-3.0141 0.085,0.1948 0.1757,0.3906 0.2605,0.5859 z"
       id="path4506" />
    <path
       style="fill:#ff0000;fill-rule:evenodd;stroke:none"
       d="m 1323.2585,138.992 c -0.6709,-3.4849 0.3504,-5.1055 3.8743,-5.3774 4.1719,-0.3213 8.3723,-0.4702 12.5552,-0.4009 3.801,0.062 4.6596,1.8769 3.406,5.4507 -0.8101,2.3105 -1.0562,4.832 -1.4517,7.2739 -0.1438,0.8911 0,1.8281 0.016,2.7412 0.032,2.0571 -0.2097,4.0054 -2.2617,5.1333 -2.1323,1.1748 -4.0903,0.8491 -5.886,-0.7339 l -0.5395,-0.7422 c -1.8916,-4.6767 -4.377,-8.916 -8.6355,-11.8715 l -1.0789,-1.4834 z"
       id="path4508" />
    <path
       style="fill:#ff0000;fill-rule:evenodd;stroke:none"
       d="m 1361.3098,125.7278 c 1.3901,-0.4238 3.3696,-1.1342 5.3975,-1.6059 1.4487,-0.3359 2.4023,0.521 2.5197,1.9517 0.3411,4.2768 -1.4751,7.9233 -3.9421,11.1372 -1.3298,1.7368 -5.7407,1.1889 -7.355,-0.458 -2.6821,-2.7398 -2.8667,-4.4976 -0.5864,-7.1138 1.0437,-1.1983 2.2649,-2.2461 3.9673,-3.9175 z"
       id="path4510" />
    <path
       style="fill:#ff0000;fill-rule:evenodd;stroke:none"
       d="m 1363.4507,113.9403 c 2.24,-0.4781 4.1311,-0.879 6.0222,-1.2803 0.062,0.1089 0.1269,0.2212 0.1889,0.3301 -1.2517,1.0532 -2.4997,2.1035 -3.8383,3.2251 -0.6963,-0.6675 -1.4192,-1.356 -2.3794,-2.2759 z"
       id="path4512" />
  </g>
</svg>
